<svg width="17" height="19" viewBox="0 0 17 19" fill="none" xmlns="http://www.w3.org/2000/svg">
<path fill-rule="evenodd" clip-rule="evenodd" d="M10.4805 3.98047C10.4805 4.18533 10.5011 4.3854 10.5402 4.57872L5.39216 7.66834C4.87309 7.23869 4.20693 6.98047 3.48047 6.98047C1.82362 6.98047 0.480469 8.32357 0.480469 9.98047C0.480469 11.6374 1.82362 12.9805 3.48047 12.9805C4.20616 12.9805 4.87168 12.7228 5.39051 12.294L10.5401 15.3829C10.501 15.576 10.4805 15.7759 10.4805 15.9805C10.4805 17.6374 11.8237 18.9805 13.4805 18.9805C15.1374 18.9805 16.4805 17.6374 16.4805 15.9805C16.4805 14.3236 15.1374 12.9805 13.4805 12.9805C12.7543 12.9805 12.0883 13.2386 11.5693 13.668L6.42062 10.5797C6.45987 10.3861 6.48047 10.1857 6.48047 9.98047C6.48047 9.77607 6.46002 9.57637 6.42105 9.38337L11.5698 6.29336C12.0887 6.72256 12.7545 6.98047 13.4805 6.98047C15.1374 6.98047 16.4805 5.63732 16.4805 3.98047C16.4805 2.32362 15.1374 0.980469 13.4805 0.980469C11.8237 0.980469 10.4805 2.32362 10.4805 3.98047ZM14.4805 3.98056C14.4805 4.53285 14.0328 4.98056 13.4805 4.98056C12.9282 4.98056 12.4805 4.53285 12.4805 3.98056C12.4805 3.42828 12.9282 2.98056 13.4805 2.98056C14.0328 2.98056 14.4805 3.42828 14.4805 3.98056ZM14.4805 15.9806C14.4805 16.5329 14.0328 16.9806 13.4805 16.9806C12.9282 16.9806 12.4805 16.5329 12.4805 15.9806C12.4805 15.4283 12.9282 14.9806 13.4805 14.9806C14.0328 14.9806 14.4805 15.4283 14.4805 15.9806ZM3.48042 10.9806C4.03271 10.9806 4.48042 10.5329 4.48042 9.98057C4.48042 9.42827 4.03271 8.98057 3.48042 8.98057C2.92814 8.98057 2.48042 9.42827 2.48042 9.98057C2.48042 10.5329 2.92814 10.9806 3.48042 10.9806Z" fill="#F38A00"/>
</svg>
