<svg width="41" height="41" viewBox="0 0 41 41" fill="none" xmlns="http://www.w3.org/2000/svg">
<rect x="0.830078" y="0.98999" width="40" height="40" rx="20" fill="#F5F5F5"/>
<g clip-path="url(#clip0_113_764)">
<path fill-rule="evenodd" clip-rule="evenodd" d="M30.6094 11.5447C30.6094 11.5447 31.4664 18.5847 29.7934 23.1277C27.1424 30.3217 20.7074 28.4977 18.3464 26.8927C18.5864 26.6587 20.6404 23.7607 20.6404 23.7607C20.6404 23.7607 26.6284 25.5157 26.7004 23.9207C26.7654 22.4427 20.8784 23.2677 20.8784 23.2677L22.7014 21.0377C22.7014 21.0377 27.2014 21.8747 27.2014 20.8327C27.2014 19.2287 22.9994 20.3647 22.9994 20.3647L24.9564 18.0447C24.9564 18.0447 27.5024 18.6117 27.7604 17.6537C28.0634 16.5307 25.3264 17.5227 25.3264 17.5227C25.3264 17.5227 28.5784 14.9667 27.8464 14.1907C26.9634 13.2547 24.9834 17.1007 24.9834 17.1007C24.9834 17.1007 25.2124 14.6967 24.3194 14.7507C23.1494 14.8227 24.4014 17.6307 24.4014 17.6307L22.6114 19.9207C22.6114 19.9207 23.1614 15.4977 21.4594 16.4677C20.6234 16.9447 22.5704 19.5387 22.0804 20.2977C21.5904 21.0577 20.2184 22.7427 20.2184 22.7427C20.2184 22.7427 20.3484 21.5057 20.1184 20.3827C19.8904 19.2597 19.1314 17.9057 18.6494 18.3157C17.6784 19.1417 20.4564 21.8767 19.5314 23.3697C18.9354 24.3317 17.9774 25.4097 17.4054 26.1597C15.5674 25.1877 12.4514 18.5027 17.2884 15.0677C23.3414 10.7677 30.6094 11.5447 30.6094 11.5447ZM14.1724 28.3127C15.4924 28.3517 16.8294 26.9157 17.4064 26.1587C17.5534 26.2947 18.1234 26.7407 18.3464 26.8927C16.9044 29.2297 15.3044 30.6947 13.3334 30.4667C11.5914 30.2647 11.0234 29.5277 10.8604 28.6397C10.7304 27.9297 11.0164 27.2987 11.7594 27.2197C13.1164 27.0747 12.6184 28.2667 14.1724 28.3127Z" fill="#666666"/>
</g>
<defs>
<clipPath id="clip0_113_764">
<rect width="24" height="24" fill="white" transform="translate(8.83008 8.98999)"/>
</clipPath>
</defs>
</svg>
