<svg width="41" height="41" viewBox="0 0 41 41" fill="none" xmlns="http://www.w3.org/2000/svg">
<rect x="0.830078" y="0.98999" width="40" height="40" rx="20" fill="#F5F5F5"/>
<g clip-path="url(#clip0_113_812)">
<path fill-rule="evenodd" clip-rule="evenodd" d="M15.3301 10.99H25.3301C26.9871 10.99 28.3301 12.333 28.3301 13.99C28.3301 14.542 27.8821 14.99 27.3301 14.99C26.8171 14.99 26.3941 14.604 26.3371 14.107L26.3231 13.873C26.2701 13.414 25.9061 13.05 25.4471 12.997L25.3301 12.99H15.3301C14.8171 12.99 14.3941 13.376 14.3371 13.873L14.3301 13.99V27.99C14.3301 28.503 14.7161 28.926 15.2131 28.983L15.3301 28.99H25.3301C25.8431 28.99 26.2661 28.604 26.3231 28.107L26.3371 27.873C26.3941 27.376 26.8171 26.99 27.3301 26.99C27.8821 26.99 28.3301 27.438 28.3301 27.99C28.3301 29.588 27.0811 30.894 25.5061 30.985L25.3301 30.99H15.3301C13.7321 30.99 12.4261 29.741 12.3351 28.166L12.3301 27.99V13.99C12.3301 12.392 13.5791 11.086 15.1541 10.995L15.3301 10.99ZM24.1981 16.648L24.3481 16.753L24.5181 16.651C27.2021 15.124 30.3301 16.467 30.3301 19.499C30.3301 21.234 29.2641 22.849 27.3501 24.305C26.7431 24.768 26.0731 25.195 25.3681 25.576C25.2271 25.653 25.0881 25.725 24.9531 25.793L24.3341 26.093L23.7111 25.81C23.5771 25.747 23.4391 25.679 23.2991 25.607C22.5931 25.245 21.9221 24.833 21.3131 24.38C19.3961 22.954 18.3301 21.312 18.3301 19.5C18.3301 16.52 21.7781 15.042 24.1981 16.65V16.648ZM20.3301 19.498C20.3301 20.583 21.0491 21.691 22.5071 22.775C22.9201 23.083 23.3721 23.371 23.8491 23.635L24.2111 23.827L24.3071 23.876L24.7821 23.612C25.2641 23.333 25.7211 23.032 26.1391 22.714C27.6041 21.599 28.3301 20.499 28.3301 19.498C28.3301 18.078 26.8001 17.49 25.2681 18.539L24.2331 19.249L23.2721 18.449C22.0941 17.469 20.3301 18.152 20.3301 19.498Z" fill="#666666"/>
</g>
<defs>
<clipPath id="clip0_113_812">
<rect width="24" height="24" fill="white" transform="translate(8.83008 8.98999)"/>
</clipPath>
</defs>
</svg>
