<svg width="41" height="41" viewBox="0 0 41 41" fill="none" xmlns="http://www.w3.org/2000/svg">
<rect x="0.830078" y="0.98999" width="40" height="40" rx="20" fill="#F5F5F5"/>
<g clip-path="url(#clip0_113_795)">
<g clip-path="url(#clip1_113_795)">
<path fill-rule="evenodd" clip-rule="evenodd" d="M20.8301 40.99C31.8761 40.99 40.8301 32.036 40.8301 20.99C40.8301 9.94399 31.8761 0.98999 20.8301 0.98999C9.78408 0.98999 0.830078 9.94399 0.830078 20.99C0.830078 32.036 9.78408 40.99 20.8301 40.99Z" fill="#F5F5F5"/>
<path fill-rule="evenodd" clip-rule="evenodd" d="M29.7425 17.99L30.6275 27.718C30.7775 29.368 29.5615 30.828 27.9115 30.978C27.8215 30.986 27.7305 30.99 27.6395 30.99H14.0195C12.3625 30.99 11.0195 29.647 11.0195 27.99C11.0195 27.9 11.0235 27.809 11.0325 27.718L11.9165 17.99H29.7425ZM27.9165 19.99H13.7425L13.0235 27.9C13.0205 27.93 13.0195 27.96 13.0195 27.99C13.0195 28.542 13.4675 28.99 14.0195 28.99H27.6395C27.6695 28.99 27.6995 28.989 27.7295 28.986C28.2795 28.936 28.6855 28.449 28.6355 27.9L27.9165 19.99ZM20.8295 10.99C23.6975 10.99 26.1485 13.017 26.7095 15.794C26.8195 16.336 26.4695 16.864 25.9295 16.973C25.3875 17.083 24.8595 16.733 24.7495 16.191C24.3765 14.341 22.7425 12.99 20.8295 12.99C18.9185 12.99 17.2835 14.341 16.9095 16.19C16.7995 16.732 16.2725 17.082 15.7305 16.972C15.1895 16.862 14.8405 16.335 14.9495 15.793C15.5115 13.016 17.9625 10.99 20.8295 10.99Z" fill="#666666"/>
</g>
</g>
<defs>
<clipPath id="clip0_113_795">
<rect width="40" height="40" fill="white" transform="translate(0.830078 0.98999)"/>
</clipPath>
<clipPath id="clip1_113_795">
<rect width="40" height="40" fill="white" transform="translate(0.830078 0.98999)"/>
</clipPath>
</defs>
</svg>
