<svg width="99" height="99" viewBox="0 0 99 99" fill="none" xmlns="http://www.w3.org/2000/svg">
<path d="M49.8301 0.990005C76.8921 0.990005 98.8301 22.928 98.8301 49.99C98.8301 77.052 76.8921 98.99 49.8301 98.99C22.7681 98.99 0.830078 77.052 0.830078 49.99C0.830078 22.928 22.7681 0.990005 49.8301 0.990005ZM49.7618 52.8723C25.4438 52.8723 11.4998 66.1023 19.1368 75.0378C26.7756 83.9715 37.1233 89.813 49.7618 89.813C62.4021 89.813 72.7498 83.9715 80.3868 75.0378C88.0256 66.104 74.0816 52.8723 49.7618 52.8723ZM49.7601 10.72C41.6401 10.72 35.0601 17.5415 35.0601 25.9573C35.0601 34.3713 41.6401 42.7363 49.7601 42.7363C57.8783 42.7363 64.4601 34.3713 64.4601 25.9573C64.4601 17.5415 57.8783 10.72 49.7601 10.72Z" fill="#D8D8D8"/>
</svg>
