<svg width="14" height="16" viewBox="0 0 14 16" fill="none" xmlns="http://www.w3.org/2000/svg">
<path fill-rule="evenodd" clip-rule="evenodd" d="M8.63478 3C8.63478 3.17 8.65178 3.337 8.68478 3.499L4.39478 6.073C3.96178 5.715 3.40678 5.5 2.80078 5.5C1.42078 5.5 0.300781 6.62 0.300781 8C0.300781 9.38 1.42078 10.5 2.80078 10.5C3.40578 10.5 3.96078 10.285 4.39278 9.928L8.68378 12.502C8.65178 12.662 8.63378 12.829 8.63378 13C8.63378 14.38 9.75378 15.5 11.1338 15.5C12.5148 15.5 13.6338 14.38 13.6338 13C13.6338 11.62 12.5148 10.5 11.1338 10.5C10.5298 10.5 9.97378 10.715 9.54178 11.073L5.25178 8.499C5.28378 8.338 5.30178 8.171 5.30178 8C5.30178 7.83 5.28378 7.663 5.25178 7.502L9.54178 4.927C9.97478 5.285 10.5298 5.5 11.1348 5.5C12.5148 5.5 13.6348 4.38 13.6348 3C13.6348 1.62 12.5148 0.5 11.1348 0.5C9.75378 0.5 8.63478 1.62 8.63478 3ZM11.9678 3C11.9678 3.46 11.5948 3.833 11.1348 3.833C10.6748 3.833 10.3008 3.46 10.3008 3C10.3008 2.54 10.6738 2.167 11.1348 2.167C11.5948 2.167 11.9678 2.54 11.9678 3ZM11.9678 13C11.9678 13.46 11.5948 13.833 11.1348 13.833C10.6748 13.833 10.3008 13.46 10.3008 13C10.3008 12.54 10.6738 12.167 11.1348 12.167C11.5948 12.167 11.9678 12.54 11.9678 13ZM2.80078 8.833C3.26078 8.833 3.63478 8.46 3.63478 8C3.63478 7.54 3.26178 7.167 2.80078 7.167C2.34078 7.167 1.96778 7.54 1.96778 8C1.96778 8.46 2.34078 8.833 2.80078 8.833Z" fill="#458500"/>
</svg>
