<svg width="16" height="18" viewBox="0 0 16 18" fill="none" xmlns="http://www.w3.org/2000/svg">
<path fill-rule="evenodd" clip-rule="evenodd" d="M10 3C10 3.205 10.0205 3.405 10.06 3.5985L4.912 6.688C4.3925 6.258 3.7265 6 3 6C1.343 6 0 7.343 0 9C0 10.657 1.343 12 3 12C3.7255 12 4.391 11.7425 4.91 11.3135L10.06 14.402C10.0205 14.5955 10 14.7955 10 15C10 16.657 11.343 18 13 18C14.657 18 16 16.657 16 15C16 13.343 14.657 12 13 12C12.2735 12 11.608 12.258 11.089 12.6875L5.94 9.599C5.9795 9.4055 6 9.205 6 9C6 8.7955 5.98 8.596 5.9405 8.403L11.0895 5.313C11.6085 5.742 12.2745 6 13 6C14.657 6 16 4.657 16 3C16 1.343 14.657 0 13 0C11.343 0 10 1.343 10 3ZM14 3C14 3.5525 13.5525 4 13 4C12.4475 4 12 3.5525 12 3C12 2.4475 12.4475 2 13 2C13.5525 2 14 2.4475 14 3ZM14 15C14 15.5525 13.5525 16 13 16C12.4475 16 12 15.5525 12 15C12 14.4475 12.4475 14 13 14C13.5525 14 14 14.4475 14 15ZM3 10C3.5525 10 4 9.5525 4 9C4 8.4475 3.5525 8 3 8C2.4475 8 2 8.4475 2 9C2 9.5525 2.4475 10 3 10Z" fill="#F38A00"/>
</svg>
