<svg width="20" height="21" viewBox="0 0 20 21" fill="none" xmlns="http://www.w3.org/2000/svg">
<path d="M1.32812 2.82935C0.776125 2.82935 0.328125 2.38135 0.328125 1.82935C0.328125 1.27735 0.776125 0.829346 1.32812 0.829346H1.46613C3.04012 0.829346 4.34613 2.04535 4.45813 3.61535L5.19312 13.9003C5.23012 14.4243 5.66612 14.8293 6.19012 14.8293H13.9741C14.3831 14.8293 14.7501 14.5803 14.9021 14.2003L17.3021 8.20035C17.5081 7.68835 17.2581 7.10635 16.7451 6.90035C16.6281 6.85435 16.5011 6.82935 16.3741 6.82935H7.32812C6.77612 6.82935 6.32812 6.38135 6.32812 5.82935C6.32812 5.27735 6.77612 4.82935 7.32812 4.82935H16.3741C16.7551 4.82935 17.1341 4.90235 17.4881 5.04435C19.0261 5.65935 19.7751 7.40435 19.1591 8.94435L16.7591 14.9443C16.3041 16.0813 15.2011 16.8293 13.9741 16.8293H6.19012C4.61613 16.8293 3.31012 15.6133 3.19812 14.0433L2.46313 3.75835C2.42613 3.23435 1.99012 2.82935 1.46613 2.82935H1.32812ZM5.82812 20.8293C5.00012 20.8293 4.32812 20.1573 4.32812 19.3293C4.32812 18.5013 5.00012 17.8293 5.82812 17.8293C6.65613 17.8293 7.32812 18.5013 7.32812 19.3293C7.32812 20.1573 6.65613 20.8293 5.82812 20.8293ZM13.8281 20.8293C12.9991 20.8293 12.3281 20.1573 12.3281 19.3293C12.3281 18.5013 12.9991 17.8293 13.8281 17.8293C14.6561 17.8293 15.3281 18.5013 15.3281 19.3293C15.3281 20.1573 14.6561 20.8293 13.8281 20.8293Z" fill="#999999"/>
</svg>
