<svg width="25" height="24" viewBox="0 0 25 24" fill="none" xmlns="http://www.w3.org/2000/svg">
<g clip-path="url(#clip0_163_1701)">
<path d="M22.0751 3.45622C22.8658 3.95412 23.3982 4.86721 23.3982 5.91128V22.041C23.3982 23.6764 22.0722 25 20.4382 25C18.804 25 17.4782 23.6762 17.4782 22.0409V16C17.4782 15.8357 17.4567 15.7443 17.4416 15.6996C17.4283 15.6601 17.4157 15.6443 17.4067 15.6341C17.3665 15.5891 17.2961 15.5412 17.0049 15.4012L16.9667 15.383C16.7288 15.2693 16.308 15.0683 15.9767 14.6966C15.5845 14.2567 15.3982 13.6892 15.3982 13C15.3982 12.885 15.396 12.7533 15.3935 12.6067C15.362 10.738 15.3984 6 19.2465 3.55852C20.1724 2.88333 21.2599 2.94287 22.0751 3.45622ZM21.0094 5.14862C20.8269 5.03371 20.6332 5.02264 20.425 5.17446C17.3952 7.38398 17.3748 10.7005 17.3952 12.5935C17.3967 12.7372 17.3982 12.8733 17.3982 13C17.3982 13.1642 17.4196 13.2557 17.4347 13.3003C17.4481 13.3398 17.4606 13.3557 17.4696 13.3658C17.5098 13.4109 17.5803 13.4587 17.8715 13.5987L17.9096 13.617C18.1476 13.7306 18.5683 13.9316 18.8996 14.3033C19.2918 14.7432 19.4782 15.3108 19.4782 16V22.0409C19.4782 22.5705 19.9074 23 20.4382 23C20.969 23 21.3982 22.5705 21.3982 22.041V5.91128C21.3982 5.55178 21.2164 5.27897 21.0094 5.14862ZM5.39844 5C5.95072 5 6.39844 5.44772 6.39844 6V10C6.39844 10.6382 6.50444 11.0173 6.61576 11.2539C6.72419 11.4843 6.86735 11.644 7.05694 11.8099C7.12891 11.8729 7.19129 11.9234 7.26542 11.9834C7.30616 12.0165 7.35062 12.0524 7.40201 12.0948C7.52835 12.1991 7.68652 12.3345 7.83335 12.4997C8.16445 12.8722 8.39844 13.3528 8.39844 14V22.0017C8.39844 22.5529 8.84503 23 9.39844 23C9.95185 23 10.3984 22.5529 10.3984 22.0017V14C10.3984 13.3528 10.6324 12.8722 10.9635 12.4997C11.1104 12.3345 11.2685 12.1991 11.3949 12.0948C11.4463 12.0524 11.4906 12.0165 11.5314 11.9835C11.6055 11.9234 11.668 11.8729 11.7399 11.8099C11.9295 11.644 12.0727 11.4843 12.1811 11.2539C12.2924 11.0173 12.3984 10.6382 12.3984 10V6C12.3984 5.44772 12.8461 5 13.3984 5C13.9507 5 14.3984 5.44772 14.3984 6V10C14.3984 10.8618 14.2544 11.5451 13.9907 12.1055C13.7241 12.6719 13.3673 13.0435 13.0569 13.3151C12.9563 13.4031 12.8435 13.4946 12.7551 13.5663C12.7218 13.5933 12.692 13.6174 12.6676 13.6376C12.5596 13.7267 12.499 13.7827 12.4583 13.8284C12.4144 13.8778 12.3984 13.8972 12.3984 14V22.0017C12.3984 23.6597 11.0542 25 9.39844 25C7.74271 25 6.39844 23.6597 6.39844 22.0017V14C6.39844 13.8972 6.38243 13.8778 6.33853 13.8284C6.29786 13.7827 6.23728 13.7267 6.12924 13.6376C6.10482 13.6174 6.07501 13.5933 6.04176 13.5663C5.95332 13.4946 5.84055 13.4031 5.73994 13.3151C5.42953 13.0435 5.07269 12.6719 4.80612 12.1055C4.54244 11.5451 4.39844 10.8618 4.39844 10V6C4.39844 5.44772 4.84616 5 5.39844 5ZM10.3984 6C10.3984 5.44772 9.95072 5 9.39844 5C8.84616 5 8.39844 5.44772 8.39844 6V10C8.39844 10.5523 8.84616 11 9.39844 11C9.95072 11 10.3984 10.5523 10.3984 10V6Z" fill="#707070"/>
</g>
<defs>
<clipPath id="clip0_163_1701">
<rect width="24" height="24" fill="white" transform="translate(0.398438)"/>
</clipPath>
</defs>
</svg>
