<svg width="12" height="21" viewBox="0 0 12 21" fill="none" xmlns="http://www.w3.org/2000/svg">
<rect width="12" height="21" fill="#1E1E1E"/>
<rect width="375" height="9420" transform="translate(-301 -19)" fill="white"/>
<rect width="375" height="60" transform="translate(-301 -19)" fill="#458500"/>
<g clip-path="url(#clip0_0_1)">
<path d="M8.16899 9.617L3.95199 8.383C3.68559 8.30537 3.45616 8.1342 3.30588 7.90095C3.15559 7.6677 3.09454 7.38804 3.13395 7.11337C3.17336 6.83871 3.31059 6.5875 3.5204 6.40592C3.73021 6.22434 3.99851 6.12459 4.27599 6.125H6.86599C7.34199 6.125 7.81099 6.27 8.20199 6.535C8.43999 6.695 8.75999 6.656 8.96299 6.457L10.323 5.129C10.3875 5.0647 10.4374 4.98722 10.4692 4.90187C10.5011 4.81652 10.5141 4.7253 10.5075 4.63445C10.5008 4.54359 10.4747 4.45524 10.4307 4.37543C10.3868 4.29562 10.3262 4.22623 10.253 4.172C9.28752 3.41723 8.09847 3.00493 6.87299 3V1.125C6.87246 0.959574 6.80658 0.80106 6.6897 0.683992C6.57282 0.566924 6.41441 0.500791 6.24899 0.5H4.99899C4.83339 0.500527 4.67473 0.566545 4.55763 0.683641C4.44053 0.800737 4.37452 0.959402 4.37399 1.125V3H4.27599C3.68122 3.00056 3.0931 3.12507 2.54913 3.3656C2.00517 3.60613 1.51731 3.95739 1.11667 4.39698C0.716037 4.83657 0.411419 5.35484 0.22225 5.91873C0.0330814 6.48261 -0.0364846 7.07973 0.0179898 7.672C0.18199 9.472 1.55799 10.937 3.29199 11.445L7.29599 12.617C7.56239 12.6946 7.79181 12.8658 7.9421 13.099C8.09239 13.3323 8.15344 13.612 8.11403 13.8866C8.07462 14.1613 7.93739 14.4125 7.72758 14.5941C7.51777 14.7757 7.24947 14.8754 6.97199 14.875H4.38199C3.90499 14.875 3.43599 14.73 3.04499 14.465C2.92827 14.3893 2.78916 14.3557 2.65074 14.3699C2.51233 14.3841 2.38292 14.4452 2.28399 14.543L0.92399 15.871C0.859462 15.9353 0.809574 16.0128 0.777733 16.0981C0.745892 16.1835 0.732849 16.2747 0.739494 16.3656C0.74614 16.4564 0.772318 16.5448 0.816239 16.6246C0.860161 16.7044 0.920792 16.7738 0.99399 16.828C1.95946 17.5828 3.14851 17.9951 4.37399 18V19.875C4.37399 20.219 4.65399 20.5 4.99899 20.5H6.24899C6.41459 20.4995 6.57325 20.4335 6.69035 20.3164C6.80745 20.1993 6.87346 20.0406 6.87399 19.875V17.992C8.69399 17.957 10.401 16.875 11.003 15.152C11.843 12.746 10.433 10.277 8.17099 9.617H8.16899Z" fill="white"/>
</g>
<defs>
<clipPath id="clip0_0_1">
<rect width="24" height="25" fill="white" transform="translate(-6 -1.5)"/>
</clipPath>
</defs>
</svg>
