<svg width="7" height="16" viewBox="0 0 7 16" fill="none" xmlns="http://www.w3.org/2000/svg">
<path d="M5.53936 0.0434723H0.739364C0.461103 0.0434723 0.182846 0.252168 0.113281 0.530429V0.599994V15C0.113281 15.3478 0.321968 15.6261 0.669794 15.6261H0.739364H5.53936C5.88719 15.6261 6.16545 15.4174 6.16545 15.0696V15V14.4435C6.16545 14.1652 5.95676 13.887 5.60893 13.8174H5.53936H2.20024V8.73912H4.70458C5.05241 8.73912 5.33067 8.53043 5.33067 8.1826V8.11304V7.55652C5.33067 7.27825 5.12197 6.99999 4.84371 6.93043C4.77414 6.93043 4.77414 6.93043 4.70458 6.93043H2.20024V1.85217H5.53936C5.88719 1.85217 6.16545 1.64347 6.16545 1.29565V1.22608V0.669559C6.16545 0.391298 5.95676 0.113038 5.6785 0.0434723C5.60893 0.0434723 5.53936 0.0434723 5.53936 0.0434723Z" fill="#556860"/>
</svg>
