<svg width="8" height="16" viewBox="0 0 8 16" fill="none" xmlns="http://www.w3.org/2000/svg">
<path d="M6.53896 0.0434723H5.70418C5.35635 0.0434723 5.07809 0.252168 5.07809 0.530429V0.599994V6.99999H2.43461V0.669559C2.43461 0.321733 2.22592 0.113038 1.87809 0.0434723H1.80852H0.973744C0.625918 0.0434723 0.347656 0.252168 0.347656 0.530429V0.599994V15C0.347656 15.3478 0.556354 15.6261 0.90418 15.6261H0.973744H1.80852C2.15635 15.6261 2.43461 15.4174 2.43461 15.0696V15V8.73912H5.07809V15C5.07809 15.3478 5.28679 15.6261 5.63462 15.6261H5.70418H6.53896C6.88678 15.6261 7.16505 15.4174 7.16505 15.0696V15V0.669559C7.16505 0.321733 6.95636 0.113038 6.6781 0.0434723C6.60853 0.0434723 6.60852 0.0434723 6.53896 0.0434723Z" fill="#556860"/>
</svg>
