<svg width="14" height="12" viewBox="0 0 14 12" fill="none" xmlns="http://www.w3.org/2000/svg">
<path fill-rule="evenodd" clip-rule="evenodd" d="M4.17254 8.55302L4.1859 8.5352C4.29918 8.63448 4.41627 8.73248 4.53654 8.82984C5.29497 9.43848 6.11782 9.96215 6.99036 10.3915L7.26909 10.2407C7.50571 10.1092 7.73871 9.97123 7.96781 9.82702H10.1569C9.38949 10.445 8.56632 10.9904 7.698 11.4561L7.4059 11.6088L7.27036 11.675L7.01136 11.7959L6.66645 11.6464C6.37126 11.5083 6.08111 11.3597 5.79654 11.2009C5.0721 10.8 4.38317 10.338 3.73727 9.82002C3.25632 9.43566 2.80806 9.01209 2.39709 8.55366L4.17254 8.55302ZM7.36963 3.55311C7.50914 3.48351 7.66935 3.46755 7.81985 3.50826C7.97035 3.54896 8.10067 3.6435 8.18609 3.77393L8.22299 3.8382L9.76427 6.92839C9.81102 7.02217 9.88021 7.10295 9.96569 7.16357C10.0512 7.22418 10.1503 7.26275 10.2543 7.27584L10.3338 7.28093H13.3642C13.5264 7.28111 13.6824 7.34322 13.8003 7.45456C13.9183 7.56591 13.9892 7.71808 13.9987 7.88C14.0082 8.04192 13.9556 8.20135 13.8515 8.32573C13.7474 8.45011 13.5997 8.53005 13.4386 8.5492L13.3642 8.55366H9.94054C9.72139 8.55366 9.50595 8.49708 9.31508 8.38938C9.12421 8.28168 8.96439 8.12652 8.85109 7.93893L8.80145 7.84857L7.85772 5.95666C7.83444 5.91017 7.80011 5.87009 7.75775 5.83994C7.71539 5.80978 7.66628 5.79047 7.61473 5.78369C7.56318 5.77691 7.51075 5.78286 7.46203 5.80103C7.41331 5.81921 7.36979 5.84904 7.33527 5.88793L7.3009 5.93439L6.2579 7.65639C6.20164 7.74934 6.12252 7.82634 6.02807 7.88005C5.93363 7.93376 5.827 7.96239 5.71835 7.96322C5.6097 7.96405 5.50265 7.93705 5.40739 7.88479C5.31214 7.83252 5.23185 7.75674 5.17418 7.66466L5.13854 7.59911L4.62818 6.52175C4.6064 6.47595 4.574 6.43601 4.53366 6.40527C4.49332 6.37453 4.44622 6.35388 4.39628 6.34504C4.34635 6.3362 4.29502 6.33942 4.24658 6.35444C4.19814 6.36946 4.15399 6.39584 4.11781 6.43139L4.0809 6.4753L3.89318 6.7413C3.7857 6.89374 3.64602 7.02069 3.48404 7.11318C3.32206 7.20566 3.14173 7.26141 2.95581 7.27648L2.85272 7.28093H0.638178C0.474929 7.2824 0.317361 7.22107 0.19806 7.10963C0.0787586 6.99819 0.00685011 6.84516 -0.00279403 6.68219C-0.0124382 6.51922 0.0409198 6.35877 0.146245 6.23404C0.25157 6.1093 0.400805 6.02982 0.563087 6.01202L0.636905 6.0082H2.52245C2.61147 6.00817 2.69948 5.98947 2.78082 5.95329C2.86215 5.91712 2.93499 5.86429 2.99463 5.7982L3.04236 5.73839L3.98227 4.40457C4.04268 4.3188 4.12336 4.2493 4.21713 4.20225C4.3109 4.1552 4.41485 4.13206 4.51972 4.1349C4.62459 4.13773 4.72713 4.16645 4.81822 4.21849C4.90931 4.27054 4.98612 4.3443 5.04181 4.4332L5.07745 4.49875L5.52863 5.45075C5.55119 5.49826 5.58518 5.53944 5.62755 5.5706C5.66992 5.60176 5.71936 5.62193 5.77143 5.6293C5.82351 5.63668 5.8766 5.63103 5.92596 5.61287C5.97532 5.5947 6.0194 5.56458 6.05427 5.5252L6.088 5.47939L7.10936 3.79302C7.17168 3.69005 7.26193 3.60686 7.36963 3.55311ZM7.03236 1.04584C9.938 -0.746796 13.3642 0.840295 13.3642 4.31993C13.3642 4.9003 13.2674 5.46284 13.0842 6.0082H11.7141C11.961 5.45584 12.0914 4.89202 12.0914 4.3193C12.0914 1.82157 9.65163 0.760114 7.49563 2.26384L7.38109 2.34657L6.96109 2.65839L6.57418 2.30839C4.75927 0.669113 1.90963 1.82411 1.90963 4.31993C1.90963 4.45993 1.916 4.59802 1.93 4.73548H0.652178C0.641968 4.5972 0.636873 4.45859 0.636905 4.31993C0.636905 0.872113 4.41372 -0.826978 7.03236 1.04584Z" fill="#666666"/>
</svg>
