<svg width="24" height="24" viewBox="0 0 24 24" fill="none" xmlns="http://www.w3.org/2000/svg">
<g clip-path="url(#clip0_188_7855)">
<path d="M12 2.5C15.785 2.5 18.869 5.505 18.996 9.26L19 9.5H19.5C20.88 9.5 22 10.62 22 12V16C22 17.38 20.88 18.5 19.5 18.5H19C18.78 18.5 18.57 18.465 18.373 18.4C17.271 20.818 14.833 22.5 12 22.5C11.448 22.5 11 22.052 11 21.5C11 20.948 11.448 20.5 12 20.5C14.689 20.5 16.882 18.378 16.995 15.717L17 15.5V9.5C17 6.739 14.761 4.5 12 4.5C9.311 4.5 7.118 6.622 7.005 9.283L7 9.5V16.5C7 17.555 6.184 18.418 5.15 18.495L5 18.5H4.5C3.174 18.5 2.09 17.469 2.005 16.165L2 16V12C2 10.675 3.031 9.59 4.336 9.505L4.5 9.5H5C5 5.634 8.134 2.5 12 2.5ZM5 11.5H4.5C4.254 11.5 4.05 11.677 4.008 11.91L4 12V16C4 16.246 4.177 16.45 4.41 16.492L4.5 16.5H5V11.5ZM19.5 11.5H19V16.5H19.5C19.776 16.5 20 16.276 20 16V12C20 11.724 19.776 11.5 19.5 11.5Z" fill="#666666"/>
</g>
<defs>
<clipPath id="clip0_188_7855">
<rect width="24" height="24" fill="white"/>
</clipPath>
</defs>
</svg>
