<svg width="18" height="19" viewBox="0 0 18 19" fill="none" xmlns="http://www.w3.org/2000/svg">
<path d="M3.5 11.5C5.433 11.5 7 13.067 7 15C7 16.933 5.433 18.5 3.5 18.5C1.567 18.5 0 16.933 0 15C0 13.067 1.567 11.5 3.5 11.5ZM17 16C17.552 16 18 16.448 18 17C18 17.552 17.552 18 17 18H10C9.448 18 9 17.552 9 17C9 16.448 9.448 16 10 16H17ZM3.5 13.5C2.672 13.5 2 14.172 2 15C2 15.828 2.672 16.5 3.5 16.5C4.328 16.5 5 15.828 5 15C5 14.172 4.328 13.5 3.5 13.5ZM17 12C17.552 12 18 12.448 18 13C18 13.552 17.552 14 17 14H10C9.448 14 9 13.552 9 13C9 12.448 9.448 12 10 12H17ZM3.5 0.5C5.433 0.5 7 2.067 7 4C7 5.933 5.433 7.5 3.5 7.5C1.567 7.5 0 5.933 0 4C0 2.067 1.567 0.5 3.5 0.5ZM17 5C17.552 5 18 5.448 18 6C18 6.552 17.552 7 17 7H10C9.448 7 9 6.552 9 6C9 5.448 9.448 5 10 5H17ZM3.5 2.5C2.672 2.5 2 3.172 2 4C2 4.829 2.672 5.5 3.5 5.5C4.328 5.5 5 4.83 5 4C5 3.172 4.328 2.5 3.5 2.5ZM17 1C17.552 1 18 1.448 18 2C18 2.552 17.552 3 17 3H10C9.448 3 9 2.552 9 2C9 1.448 9.448 1 10 1H17Z" fill="#666666"/>
</svg>
