<svg width="19" height="21" viewBox="0 0 19 21" fill="none" xmlns="http://www.w3.org/2000/svg">
<path fill-rule="evenodd" clip-rule="evenodd" d="M13.9922 14.8293C16.7532 14.8293 18.9922 17.0673 18.9922 19.8293C18.9922 20.3813 18.5442 20.8293 17.9922 20.8293C17.4402 20.8293 16.9922 20.3813 16.9922 19.8293C16.9922 18.1723 15.6492 16.8293 13.9922 16.8293H5.99219C4.33519 16.8293 2.99219 18.1723 2.99219 19.8293C2.99219 20.3813 2.54419 20.8293 1.99219 20.8293C1.44019 20.8293 0.992188 20.3813 0.992188 19.8293C0.992188 17.0673 3.23119 14.8293 5.99219 14.8293H13.9922ZM9.99219 0.829346C13.3062 0.829346 15.9922 3.51535 15.9922 6.82935C15.9922 10.1433 13.3062 12.8293 9.99219 12.8293C6.67819 12.8293 3.99219 10.1433 3.99219 6.82935C3.99219 3.51535 6.67819 0.829346 9.99219 0.829346ZM9.99219 2.82935C7.78219 2.82935 5.99219 4.61935 5.99219 6.82935C5.99219 9.03835 7.78219 10.8293 9.99219 10.8293C12.2022 10.8293 13.9922 9.03835 13.9922 6.82935C13.9922 4.61935 12.2022 2.82935 9.99219 2.82935Z" fill="#458500"/>
</svg>
