<svg width="41" height="41" viewBox="0 0 41 41" fill="none" xmlns="http://www.w3.org/2000/svg">
<rect x="0.830078" y="0.98999" width="40" height="40" rx="20" fill="#F5F5F5"/>
<g clip-path="url(#clip0_113_752)">
<path fill-rule="evenodd" clip-rule="evenodd" d="M11.8301 12.99C11.2781 12.99 10.8301 12.542 10.8301 11.99C10.8301 11.438 11.2781 10.99 11.8301 10.99H11.9681C13.5421 10.99 14.8481 12.206 14.9601 13.776L15.6951 24.061C15.7321 24.585 16.1681 24.99 16.6921 24.99H24.4761C24.8851 24.99 25.2521 24.741 25.4041 24.361L27.8041 18.361C28.0101 17.849 27.7601 17.267 27.2471 17.061C27.1301 17.015 27.0031 16.99 26.8761 16.99H17.8301C17.2781 16.99 16.8301 16.542 16.8301 15.99C16.8301 15.438 17.2781 14.99 17.8301 14.99H26.8761C27.2581 14.99 27.6361 15.063 27.9901 15.205C29.5281 15.82 30.2771 17.565 29.6611 19.105L27.2611 25.105C26.8061 26.242 25.7031 26.99 24.4761 26.99H16.6921C15.1181 26.99 13.8121 25.774 13.7001 24.204L12.9651 13.919C12.9281 13.395 12.4921 12.99 11.9681 12.99H11.8301ZM16.3301 30.99C15.5021 30.99 14.8301 30.318 14.8301 29.49C14.8301 28.662 15.5021 27.99 16.3301 27.99C17.1581 27.99 17.8301 28.662 17.8301 29.49C17.8301 30.318 17.1581 30.99 16.3301 30.99ZM24.3301 30.99C23.5021 30.99 22.8301 30.318 22.8301 29.49C22.8301 28.662 23.5021 27.99 24.3301 27.99C25.1581 27.99 25.8301 28.662 25.8301 29.49C25.8301 30.318 25.1581 30.99 24.3301 30.99Z" fill="#666666"/>
</g>
<defs>
<clipPath id="clip0_113_752">
<rect width="24" height="24" fill="white" transform="translate(8.83008 8.98999)"/>
</clipPath>
</defs>
</svg>
