<svg width="42" height="42" viewBox="0 0 42 42" fill="none" xmlns="http://www.w3.org/2000/svg">
<rect x="0.830078" y="0.47998" width="41" height="41" rx="20.5" fill="#00ACED"/>
<g clip-path="url(#clip0_113_850)">
<path fill-rule="evenodd" clip-rule="evenodd" d="M31.2919 14.6522C30.9685 15.3319 30.4107 15.8156 29.8492 16.2724C29.5034 16.5533 29.4184 16.8434 29.3963 17.2672C29.1407 22.1154 27.0198 25.8568 22.5562 27.9353C18.8448 29.6634 15.0986 29.3915 11.506 27.3857C11.4337 27.3457 11.3369 27.3228 11.332 27.1562C12.7906 27.259 14.2052 27.0728 15.5409 26.4611C16.0893 26.2104 16.6307 25.9417 17.1759 25.4696C16.9031 25.4158 16.7067 25.3814 16.5132 25.3365C15.1538 25.027 14.1799 24.2364 13.5731 22.9836C13.4277 22.6838 13.433 22.5269 13.8418 22.562C14.2223 22.5947 14.6082 22.569 15.0162 22.5081C13.1403 21.7609 12.041 20.4848 11.9466 18.3808C12.5375 18.5555 13.0349 18.8195 13.6956 18.806C12.8425 18.082 12.2631 17.2734 12.0638 16.2338C11.869 15.2184 11.9899 14.2596 12.5481 13.3045C13.3248 14.1712 14.1121 14.9412 15.0301 15.5674C16.717 16.7181 18.5794 17.3751 20.6027 17.604C20.9482 17.643 21.1184 17.6211 21.0703 17.1777C20.8808 15.4314 21.5513 14.0477 23.0393 13.1441C24.5489 12.2276 26.1451 12.2433 27.5642 13.2937C28.2371 13.7921 28.7761 13.8135 29.4508 13.5095C29.8889 13.3123 30.3316 13.1267 30.8992 12.8813C30.5521 13.8231 30.0384 14.499 29.2025 15.0651C29.9837 15.07 30.599 14.7404 31.2557 14.6149L31.2919 14.6522Z" fill="white"/>
</g>
<defs>
<clipPath id="clip0_113_850">
<rect width="24" height="24" fill="white" transform="translate(9.33008 8.97998)"/>
</clipPath>
</defs>
</svg>
