<svg width="42" height="42" viewBox="0 0 42 42" fill="none" xmlns="http://www.w3.org/2000/svg">
<rect x="0.830078" y="0.47998" width="41" height="41" rx="20.5" fill="#4FCE5D"/>
<g clip-path="url(#clip0_113_854)">
<path d="M21.3418 10.98C15.8358 10.98 11.3536 15.4584 11.3516 20.9644C11.3506 22.7244 11.8115 24.4425 12.6855 25.9565L11.3301 30.98L16.5625 29.7437C18.0215 30.5397 19.6639 30.9575 21.3359 30.9585H21.3398C26.8448 30.9585 31.3251 26.4791 31.3281 20.9741C31.3301 18.3051 30.2922 15.7957 28.4062 13.9077C26.5203 12.0207 24.0138 10.981 21.3418 10.98ZM21.3398 12.98C23.4758 12.981 25.4832 13.8138 26.9922 15.3218C28.5012 16.8318 29.3301 18.8382 29.3281 20.9722C29.3261 25.3762 25.7439 28.9585 21.3379 28.9585C20.0049 28.9575 18.6845 28.6228 17.5215 27.9878L16.8477 27.6206L16.1035 27.7964L14.1348 28.2612L14.6152 26.4761L14.832 25.6753L14.418 24.9565C13.72 23.7485 13.3506 22.3674 13.3516 20.9644C13.3536 16.5624 16.9368 12.98 21.3398 12.98ZM17.8066 16.355C17.6396 16.355 17.3696 16.4175 17.1406 16.6675C16.9116 16.9165 16.2656 17.5196 16.2656 18.7476C16.2656 19.9756 17.1602 21.1626 17.2852 21.3296C17.4092 21.4956 19.0118 24.0952 21.5488 25.0952C23.6568 25.9262 24.085 25.7622 24.543 25.7202C25.001 25.6792 26.0205 25.1177 26.2285 24.5347C26.4365 23.9517 26.437 23.4502 26.375 23.3472C26.313 23.2432 26.1465 23.1812 25.8965 23.0562C25.6475 22.9312 24.4204 22.3286 24.1914 22.2456C23.9624 22.1626 23.7949 22.1206 23.6289 22.3706C23.4629 22.6206 22.9858 23.1812 22.8398 23.3472C22.6938 23.5142 22.5488 23.5366 22.2988 23.4116C22.0488 23.2856 21.245 23.0214 20.291 22.1714C19.549 21.5104 19.0483 20.6948 18.9023 20.4448C18.7573 20.1958 18.8887 20.0591 19.0137 19.9351C19.1257 19.8231 19.2617 19.6436 19.3867 19.4976C19.5107 19.3516 19.5537 19.2475 19.6367 19.0815C19.7197 18.9155 19.6772 18.769 19.6152 18.644C19.5532 18.519 19.0677 17.2865 18.8457 16.7925C18.6587 16.3775 18.4612 16.3678 18.2832 16.3608C18.1382 16.3548 17.9726 16.355 17.8066 16.355Z" fill="white"/>
</g>
<defs>
<clipPath id="clip0_113_854">
<rect width="24" height="24" fill="white" transform="translate(9.33008 8.97998)"/>
</clipPath>
</defs>
</svg>
