<svg width="60" height="15" viewBox="0 0 60 15" fill="none" xmlns="http://www.w3.org/2000/svg">
<path fill-rule="evenodd" clip-rule="evenodd" d="M20.3258 2.39095C20.3258 3.45301 20.2954 4.33557 20.2651 4.33557C20.2347 4.33557 19.9159 4.23086 19.5517 4.09623C18.9597 3.88681 17.7909 3.85689 9.47309 3.88681C4.29719 3.90177 0.0320149 3.93169 0.00165773 3.97656C-0.0590566 4.02144 1.56505 11.8897 2.06594 14.0138L2.14184 14.3578H7.43916H12.7517L12.8427 13.9091C12.8883 13.6548 12.949 13.4603 12.9793 13.4603C13.0249 13.4603 13.4043 13.6548 13.8445 13.8941C14.3606 14.1933 14.8918 14.3578 15.3927 14.3877C15.8177 14.4027 20.4776 14.4027 25.7597 14.3877L35.3526 14.3578V14.0437C35.3526 13.6996 35.3829 13.6997 36.5668 14.1484C37.2954 14.4326 37.5383 14.4326 43.7463 14.3877L47.1918 14.3728V11.9046V9.45141L47.6624 9.06249C47.9204 8.85307 48.1936 8.67356 48.2695 8.67356C48.3454 8.67356 48.4061 9.84033 48.4061 11.4259C48.4061 12.9517 48.4669 14.2232 48.5276 14.2681C48.5883 14.313 50.2883 14.3578 52.2918 14.3728C56.3749 14.4027 56.6481 14.3578 57.7106 13.3406C58.8794 12.2337 59.4713 10.3489 59.274 8.35943C59.016 5.5173 57.4677 3.85689 55.0544 3.82698L54.0222 3.81202V2.1217V0.446335H51.2142H48.4213L48.3758 2.19649L48.3302 3.94665L47.7231 4.06631C47.3285 4.15607 47.1008 4.14111 47.0704 4.0364C47.0401 3.94665 46.0383 3.88681 44.2927 3.88681C41.682 3.88681 41.5758 3.90177 41.5758 4.18598C41.5758 4.54499 41.682 4.54499 40.5892 4.17102C39.8302 3.90177 39.4356 3.87185 38.1606 3.91673C37.1588 3.9616 36.4758 4.06631 36.157 4.23086C35.8838 4.38045 35.5954 4.48516 35.5043 4.48516C35.4133 4.48516 35.3526 3.82698 35.3526 2.61533V0.745507H30.7231C27.7329 0.745507 26.0936 0.685672 26.0936 0.595921C26.0936 0.506169 25.0311 0.446335 23.2097 0.446335H20.3258V2.39095ZM24.7276 7.40208V13.0116H23.2097H21.6918V7.40208V1.79261H23.2097H24.7276V7.40208ZM52.6561 3.81202C52.6561 4.91895 52.6865 5.83143 52.7169 5.83143C52.7472 5.83143 53.0963 5.65193 53.4758 5.44251C54.0829 5.11342 54.3258 5.05358 55.1454 5.11342C56.3294 5.18821 57.0124 5.63697 57.5285 6.68407C57.8472 7.31233 57.8927 7.6115 57.8927 9.12232C57.8927 10.6032 57.8472 10.9323 57.5588 11.4409C57.1642 12.1589 56.5267 12.7872 55.9499 12.9966C54.9936 13.3556 53.5972 13.0714 52.8535 12.3833L52.5043 12.0692V12.5329V13.0116H51.1383H49.7722V7.40208V1.79261H51.2142H52.6561V3.81202ZM28.3704 4.18598V6.28019H29.6606H30.9508V4.18598V2.09178H32.5445H34.1383V7.55167V13.0116H32.5445H30.9508V10.7678V8.52398H29.6606H28.3704V10.7678V13.0116H26.7767H25.1829V7.55167V2.09178H26.7767H28.3704V4.18598ZM19.6427 5.50234C19.9767 5.6968 20.432 6.08573 20.6293 6.3849C21.0088 6.92341 21.0088 6.98324 21.0088 9.93008V12.9368L19.6124 12.9816L18.2008 13.0265V12.5478V12.0692L17.8668 12.3683C17.2901 12.8919 16.5767 13.1611 15.8177 13.1611C14.2695 13.1611 13.2829 12.129 13.3892 10.5733C13.4802 8.98769 14.5427 8.2248 16.7892 8.10514C17.7302 8.06026 18.049 7.98547 18.049 7.83588C18.049 7.49183 17.4722 7.02812 17.032 7.02812C16.5463 7.02812 14.7097 7.28241 14.1633 7.41704C13.8142 7.50679 13.799 7.49183 13.799 6.51952C13.799 5.80151 13.8597 5.50234 14.0115 5.44251C14.5883 5.21813 15.8633 5.11342 17.3659 5.12838C18.7927 5.15829 19.1267 5.21813 19.6427 5.50234ZM40.3767 5.45746C41.7276 6.1306 42.3347 7.2525 42.3347 9.07744V10.0198H39.8302C38.3579 10.0198 37.3258 10.0797 37.3258 10.1545C37.3258 10.2442 37.4927 10.4985 37.6901 10.7229C38.0392 11.1118 38.1302 11.1417 39.2535 11.1417C39.9061 11.1417 40.7258 11.0819 41.0901 11.0221L41.7276 10.8874V11.8747V12.847L41.0901 13.0265C40.7258 13.1163 39.7847 13.206 38.9954 13.206C37.8267 13.206 37.4017 13.1462 36.7945 12.8769C35.2008 12.1888 34.4418 10.9622 34.4418 9.13728C34.4418 7.07299 35.4436 5.68184 37.2347 5.21813C37.9633 5.02366 39.8151 5.17325 40.3767 5.45746ZM4.4338 5.56217C4.47934 5.75664 4.63112 6.95332 4.78291 8.2248L5.05612 10.5434L5.43559 7.88076L5.81505 5.23308H7.45434C9.03291 5.23308 9.09362 5.24804 9.15434 5.56217C9.21505 5.83143 9.79184 9.58604 9.86773 10.2442C9.88291 10.319 10.0347 9.24199 10.2168 7.85084L10.5356 5.30788L11.9472 5.263C12.7061 5.24804 13.3436 5.27796 13.3436 5.3378C13.3588 5.39763 12.9945 7.16274 12.5543 9.22703L11.7499 13.0116H10.0499C8.56238 13.0116 8.34987 12.9816 8.27398 12.7423C8.24362 12.6077 8.0463 11.4858 7.86416 10.2741C7.66684 9.06248 7.46952 8.15001 7.42398 8.25472C7.36327 8.35943 7.15077 9.48133 6.96862 10.7229L6.61952 13.0116H4.90434C3.40166 13.0116 3.18916 12.9816 3.11327 12.7423C3.03737 12.473 1.50434 5.39763 1.50434 5.29292C1.50434 5.263 2.14184 5.23308 2.93112 5.23308C4.28201 5.23308 4.35791 5.24804 4.4338 5.56217ZM45.8258 5.92118V6.60928L46.4633 6.07077C47.1463 5.48738 47.8445 5.23308 48.7552 5.23308H49.3168V6.26523V7.28241L48.5579 7.37216C47.5713 7.49183 46.6606 8.00042 46.2356 8.6586C45.9624 9.10736 45.9017 9.46637 45.8561 11.0969L45.7954 13.0116H44.2927H42.7901V9.12232V5.23308H44.3079H45.8258V5.92118Z" fill="#458500"/>
</svg>
