<svg width="15" height="11" viewBox="0 0 15 11" fill="none" xmlns="http://www.w3.org/2000/svg">
<path fill-rule="evenodd" clip-rule="evenodd" d="M7.13021 0.1875C10.4353 0.1875 12.7969 1.95833 14.2135 5.5C12.7969 9.04167 10.4353 10.8125 7.13021 10.8125C3.82512 10.8125 1.46354 9.04167 0.046875 5.5C1.46354 1.95833 3.82512 0.1875 7.13021 0.1875ZM7.13021 1.95833C6.1909 1.95833 5.29006 2.33147 4.62587 2.99566C3.96168 3.65985 3.58854 4.56069 3.58854 5.5C3.58854 6.43931 3.96168 7.34015 4.62587 8.00434C5.29006 8.66853 6.1909 9.04167 7.13021 9.04167C8.06952 9.04167 8.97035 8.66853 9.63454 8.00434C10.2987 7.34015 10.6719 6.43931 10.6719 5.5C10.6719 4.56069 10.2987 3.65985 9.63454 2.99566C8.97035 2.33147 8.06952 1.95833 7.13021 1.95833ZM7.13021 3.375C7.69379 3.375 8.2343 3.59888 8.63281 3.9974C9.03133 4.39591 9.25521 4.93641 9.25521 5.5C9.25521 6.06358 9.03133 6.60409 8.63281 7.0026C8.2343 7.40112 7.69379 7.625 7.13021 7.625C6.56662 7.625 6.02612 7.40112 5.62761 7.0026C5.22909 6.60409 5.00521 6.06358 5.00521 5.5C5.00521 4.93641 5.22909 4.39591 5.62761 3.9974C6.02612 3.59888 6.56662 3.375 7.13021 3.375Z" fill="#999999"/>
</svg>
