<svg width="32" height="33" viewBox="0 0 32 33" fill="none" xmlns="http://www.w3.org/2000/svg">
<g clip-path="url(#clip0_188_3558)">
<path d="M7 8.66C6.448 8.66 6 8.212 6 7.66C6 7.108 6.448 6.66 7 6.66H7.138C8.712 6.66 10.018 7.876 10.13 9.446L10.865 19.731C10.902 20.255 11.338 20.66 11.862 20.66H19.646C20.055 20.66 20.422 20.411 20.574 20.031L22.974 14.031C23.18 13.519 22.93 12.937 22.417 12.731C22.3 12.685 22.173 12.66 22.046 12.66H13C12.448 12.66 12 12.212 12 11.66C12 11.108 12.448 10.66 13 10.66H22.046C22.427 10.66 22.806 10.733 23.16 10.875C24.698 11.49 25.447 13.235 24.831 14.775L22.431 20.775C21.976 21.912 20.873 22.66 19.646 22.66H11.862C10.288 22.66 8.982 21.444 8.87 19.874L8.135 9.589C8.098 9.065 7.662 8.66 7.138 8.66H7ZM11.5 26.66C10.672 26.66 10 25.988 10 25.16C10 24.332 10.672 23.66 11.5 23.66C12.328 23.66 13 24.332 13 25.16C13 25.988 12.328 26.66 11.5 26.66ZM19.5 26.66C18.671 26.66 18 25.988 18 25.16C18 24.332 18.671 23.66 19.5 23.66C20.328 23.66 21 24.332 21 25.16C21 25.988 20.328 26.66 19.5 26.66Z" fill="#F38A00"/>
</g>
<rect x="1" y="1.44" width="30" height="30" rx="15" stroke="#F38A00" stroke-width="2"/>
<defs>
<clipPath id="clip0_188_3558">
<rect width="24" height="24" fill="white" transform="translate(4 4.66)"/>
</clipPath>
</defs>
</svg>
