<svg width="25" height="25" viewBox="0 0 25 25" fill="none" xmlns="http://www.w3.org/2000/svg">
<path d="M9.53125 14.8096H8.03125C7.07125 14.8096 6.14925 15.1916 5.47125 15.8696L4.03125 17.3096V14.8096H3.53125C2.42625 14.8096 1.53125 13.9146 1.53125 12.8096V4.80963C1.53125 3.70463 2.42625 2.80963 3.53125 2.80963H11.5312C12.6362 2.80963 13.5312 3.70463 13.5312 4.80963V6.80963" fill="white"/>
<path d="M9.53125 14.8096H8.03125C7.07125 14.8096 6.14925 15.1916 5.47125 15.8696L4.03125 17.3096V14.8096H3.53125C2.42625 14.8096 1.53125 13.9146 1.53125 12.8096V4.80963C1.53125 3.70463 2.42625 2.80963 3.53125 2.80963H11.5312C12.6363 2.80963 13.5312 3.70463 13.5312 4.80963V6.80963" stroke="#666666" stroke-width="1.5" stroke-linecap="round" stroke-linejoin="round"/>
<path d="M21.0312 20.8096H20.2812C20.2812 20.3956 20.6173 20.0596 21.0312 20.0596V20.8096ZM21.0312 23.3096H21.7812C21.7812 23.6126 21.5983 23.8866 21.3183 24.0026C21.0383 24.1186 20.7152 24.0546 20.5012 23.8396L21.0312 23.3096ZM24.2812 10.8096V18.8096H22.7812V10.8096H24.2812ZM13.5312 8.05963H21.5312V9.55963H13.5312V8.05963ZM10.7812 14.8096V10.8096H12.2812V14.8096H10.7812ZM21.5312 21.5596H21.0312V20.0596H21.5312V21.5596ZM21.7812 20.8096V23.3096H20.2812V20.8096H21.7812ZM20.5012 23.8396L20.1222 23.4616L21.1822 22.4006L21.5623 22.7796L20.5012 23.8396ZM13.5312 9.55963C12.8412 9.55963 12.2812 10.1196 12.2812 10.8096H10.7812C10.7812 9.29063 12.0122 8.05963 13.5312 8.05963V9.55963ZM20.1222 23.4616C18.9042 22.2436 17.2533 21.5596 15.5312 21.5596V20.0596C17.6512 20.0596 19.6843 20.9016 21.1833 22.4006L20.1222 23.4606V23.4616ZM24.2812 18.8096C24.2812 20.3286 23.0503 21.5596 21.5312 21.5596V20.0596C22.2212 20.0596 22.7812 19.4996 22.7812 18.8096H24.2812ZM22.7812 10.8096C22.7812 10.1196 22.2212 9.55963 21.5312 9.55963V8.05963C23.0503 8.05963 24.2812 9.29063 24.2812 10.8096H22.7812Z" fill="#666666"/>
<path d="M23.5312 15.8096V10.8096C23.5312 9.70463 22.6362 8.80963 21.5312 8.80963H13.5312C12.4262 8.80963 11.5312 9.70463 11.5312 10.8096V18.8096C11.5312 19.9146 12.4262 20.8096 13.5312 20.8096H15.5312" fill="white"/>
<path d="M23.5312 15.8096V10.8096C23.5312 9.70463 22.6363 8.80963 21.5312 8.80963H13.5312C12.4262 8.80963 11.5312 9.70463 11.5312 10.8096V18.8096C11.5312 19.9146 12.4262 20.8096 13.5312 20.8096H15.5312" stroke="#666666" stroke-width="1.5"/>
<path fill-rule="evenodd" clip-rule="evenodd" d="M6.74525 9.17363C6.74525 8.79563 7.05225 8.48863 7.43125 8.48863C7.99925 8.48863 8.46025 8.02863 8.46025 7.45963C8.46025 6.89163 8.00025 6.43063 7.43125 6.43063C6.86325 6.43063 6.40225 6.89063 6.40225 7.45963C6.40225 7.83863 6.09525 8.14563 5.71725 8.14563C5.33825 8.14563 5.03125 7.83863 5.03125 7.45963C5.03125 6.13463 6.10625 5.05963 7.43125 5.05963C8.75625 5.05963 9.83125 6.13463 9.83125 7.45963C9.83125 8.54663 9.10825 9.46563 8.11725 9.75963V10.0736C8.11725 10.4526 7.81025 10.7596 7.43125 10.7596C7.05225 10.7596 6.74525 10.4526 6.74525 10.0736V9.17363ZM7.43125 13.0596C6.98925 13.0596 6.63125 12.7016 6.63125 12.2596C6.63125 11.8176 6.98925 11.4596 7.43125 11.4596C7.87325 11.4596 8.23125 11.8176 8.23125 12.2596C8.23125 12.7016 7.87325 13.0596 7.43125 13.0596Z" fill="#666666"/>
<path d="M14.5312 12.8096H20.5312H14.5312ZM14.5312 16.8096H17.5312H14.5312Z" fill="white"/>
<path d="M14.5312 12.8096H20.5312M14.5312 16.8096H17.5312" stroke="#666666" stroke-width="1.7" stroke-linecap="round" stroke-linejoin="round"/>
</svg>
