<svg width="33" height="33" viewBox="0 0 33 33" fill="none" xmlns="http://www.w3.org/2000/svg">
<path fill-rule="evenodd" clip-rule="evenodd" d="M8.9668 19.637C11.5438 19.637 13.6328 21.727 13.6328 24.303C13.6328 26.881 11.5438 28.97 8.9668 28.97C6.3888 28.97 4.2998 26.88 4.2998 24.304C4.2998 21.726 6.3898 19.637 8.9668 19.637ZM26.9668 25.637C27.7028 25.637 28.2998 26.234 28.2998 26.97C28.2998 27.706 27.7028 28.304 26.9668 28.304H17.6328C16.8968 28.304 16.2998 27.706 16.2998 26.97C16.2998 26.234 16.8968 25.637 17.6328 25.637H26.9668ZM8.9668 22.303C7.8618 22.303 6.9668 23.199 6.9668 24.303C6.9668 25.408 7.8618 26.303 8.9668 26.303C10.0708 26.303 10.9668 25.408 10.9668 24.303C10.9668 23.199 10.0708 22.303 8.9668 22.303ZM26.9668 20.303C27.7028 20.303 28.2998 20.9 28.2998 21.637C28.2998 22.373 27.7028 22.97 26.9668 22.97H17.6328C16.8968 22.97 16.2998 22.373 16.2998 21.636C16.2998 20.9 16.8968 20.303 17.6328 20.303H26.9668ZM8.9668 4.96997C11.5438 4.96997 13.6328 7.05997 13.6328 9.63697C13.6328 12.214 11.5438 14.303 8.9668 14.303C6.3888 14.303 4.2998 12.214 4.2998 9.63697C4.2998 7.05897 6.3898 4.96997 8.9668 4.96997ZM26.9668 10.97C27.7028 10.97 28.2998 11.567 28.2998 12.303C28.2998 13.04 27.7028 13.637 26.9668 13.637H17.6328C16.8968 13.637 16.2998 13.04 16.2998 12.303C16.2998 11.567 16.8968 10.97 17.6328 10.97H26.9668ZM8.9668 7.63697C7.8618 7.63697 6.9668 8.53197 6.9668 9.63697C6.9668 10.741 7.8618 11.637 8.9668 11.637C10.0708 11.637 10.9668 10.741 10.9668 9.63697C10.9668 8.53197 10.0708 7.63697 8.9668 7.63697ZM26.9668 5.63697C27.7028 5.63697 28.2998 6.23397 28.2998 6.96997C28.2998 7.70697 27.7028 8.30297 26.9668 8.30297H17.6328C16.8968 8.30297 16.2998 7.70697 16.2998 6.96997C16.2998 6.23397 16.8968 5.63697 17.6328 5.63697H26.9668Z" fill="#666666"/>
</svg>
