<svg width="32" height="33" viewBox="0 0 32 33" fill="none" xmlns="http://www.w3.org/2000/svg">
<g clip-path="url(#clip0_34_1294)">
<path fill-rule="evenodd" clip-rule="evenodd" d="M24 20.97C26.21 20.97 28 22.76 28 24.97C28 27.18 26.21 28.97 24 28.97H20C17.79 28.97 16 27.18 16 24.97C16 22.76 17.79 20.97 20 20.97H24ZM8.667 15.637C11.244 15.637 13.333 17.727 13.333 20.304V24.304C13.333 26.881 11.244 28.97 8.667 28.97C6.089 28.97 4 26.88 4 24.304V20.304C4 17.726 6.09 15.637 8.667 15.637ZM23.333 4.96997C25.911 4.96997 28 7.05997 28 9.63697V13.637C28 16.214 25.91 18.303 23.333 18.303C20.756 18.303 18.667 16.214 18.667 13.637V9.63697C18.667 7.05897 20.756 4.96997 23.333 4.96997ZM12 4.96997C14.21 4.96997 16 6.75997 16 8.96997C16 11.18 14.21 12.97 12 12.97H8C5.79 12.97 4 11.18 4 8.96997C4 6.75997 5.79 4.96997 8 4.96997H12Z" fill="#458500"/>
</g>
<defs>
<clipPath id="clip0_34_1294">
<rect width="32" height="32" fill="white" transform="translate(0 0.969971)"/>
</clipPath>
</defs>
</svg>
