<svg width="142" height="27" viewBox="0 0 142 27" fill="none" xmlns="http://www.w3.org/2000/svg">
<g clip-path="url(#clip0_34_1243)">
<path fill-rule="evenodd" clip-rule="evenodd" d="M48.6477 12.0242C49.4741 11.5012 50.4489 11.2425 51.435 11.2843C54.9249 11.2843 57.1776 13.6594 57.2082 17.3515C57.2082 21.2729 54.7034 23.7072 50.6714 23.7072C49.2777 23.7308 47.9 23.4181 46.6622 22.7971C46.2606 22.5865 45.9376 22.2588 45.7389 21.8604C45.5402 21.462 45.4758 21.0132 45.5549 20.5774V6.51935C45.5549 5.94963 45.868 5.26892 47.1204 5.26892C48.3728 5.26892 48.6477 5.94963 48.6477 6.51935V12.0242ZM48.6782 20.6736C49.274 21.0153 49.9529 21.1966 50.6449 21.1989C52.7348 21.1971 53.978 19.8138 53.978 17.5143C53.978 15.2132 52.7408 13.7778 50.7554 13.7778C50.004 13.7665 49.2713 14.004 48.6782 14.4511V20.6736ZM4.72259 7.68094C4.72259 8.63306 3.91571 9.4049 2.92037 9.4049C1.92504 9.4049 1.11816 8.63306 1.11816 7.68094C1.11816 6.72882 1.92504 5.95698 2.92037 5.95698C3.91571 5.95698 4.72259 6.72882 4.72259 7.68094ZM1.39309 12.5717C1.39309 12.002 1.62983 11.3287 2.92039 11.3287C4.21096 11.3287 4.47824 12.0168 4.44769 12.5865V22.3606C4.44769 22.9303 4.18042 23.611 2.92039 23.611C1.66037 23.611 1.39309 22.9303 1.39309 22.3606V12.5717ZM19.9344 5.96442C18.8806 5.96442 18.346 6.37876 18.346 7.20745V13.1267H10.4117V7.20745C10.4117 6.63773 10.1444 5.96442 8.88441 5.96442C7.83057 5.96442 7.29602 6.37876 7.29602 7.20745V22.3606C7.29602 23.1893 7.83057 23.611 8.88441 23.611C10.175 23.611 10.4117 22.9303 10.4117 22.3606V15.8717H18.346V22.3606C18.346 23.1893 18.8806 23.611 19.9344 23.611C21.2173 23.611 21.4617 22.9303 21.4617 22.3606V7.20745C21.4923 6.63773 21.2173 5.96442 19.9344 5.96442ZM31.9772 20.5478C32.2867 20.3307 32.6506 20.1978 33.0311 20.1631C33.2099 20.1669 33.3862 20.2051 33.5497 20.2754C33.7132 20.3457 33.8606 20.4468 33.9835 20.5727C34.1064 20.6987 34.2023 20.847 34.2656 21.0091C34.3288 21.1712 34.3583 21.3439 34.3522 21.5171C34.3268 21.7758 34.2316 22.0234 34.0761 22.2352C33.9206 22.4469 33.7103 22.6152 33.4663 22.7231C32.2971 23.3955 30.9535 23.7293 29.5946 23.685C25.7764 23.685 23.4854 21.3469 23.4854 17.5143C23.4854 13.6816 25.7382 11.2103 29.2281 11.2103C29.9533 11.1826 30.6765 11.3017 31.3515 11.5602C32.0265 11.8188 32.6383 12.2109 33.1479 12.7116C33.6575 13.2124 34.0537 13.8106 34.311 14.4681C34.5683 15.1257 34.6812 15.828 34.6424 16.5302C34.6424 18.3207 33.8176 18.4687 32.8096 18.4687H26.5935C26.6165 18.8416 26.7164 19.2063 26.8873 19.5412C27.0582 19.8761 27.2966 20.1744 27.5885 20.4185C27.8803 20.6627 28.2197 20.8477 28.5865 20.9627C28.9534 21.0777 29.3403 21.1203 29.7245 21.088C30.5112 21.1019 31.288 20.9157 31.9772 20.5478ZM31.6489 16.212C31.6183 14.6065 30.7401 13.6446 29.2128 13.6446H29.1746C27.7313 13.6446 26.8302 14.5325 26.5629 16.212H31.6489ZM42.9279 11.2844C42.2413 11.2698 41.5638 11.4397 40.9707 11.7754C40.3777 12.111 39.8921 12.5992 39.5679 13.1859V12.5866C39.5891 12.431 39.5763 12.2729 39.5302 12.1224C39.4842 11.972 39.4059 11.8327 39.3006 11.7135C39.1447 11.5787 38.962 11.4763 38.7636 11.4127C38.5653 11.349 38.3556 11.3255 38.1475 11.3435C37.1471 11.3435 36.6202 11.7579 36.6202 12.5866V22.3606C36.6202 22.9303 36.8875 23.611 38.1475 23.611C39.4075 23.611 39.6748 22.9303 39.6748 22.3606V15.6275C40.2628 14.5621 41.1181 14.1478 42.7294 14.0738C43.7985 14.0738 44.2567 13.6372 44.2567 12.668C44.2567 11.6987 43.8825 11.2844 42.9279 11.2844ZM56.3911 7.39977L56.1009 6.88924C56.1866 6.86181 56.2607 6.80786 56.3118 6.73568C56.3628 6.6635 56.388 6.57708 56.3834 6.4897C56.3834 6.20854 56.1849 6.03836 55.8413 6.03836H55.3372C55.3259 6.03719 55.3145 6.0385 55.3037 6.04218C55.293 6.04585 55.2832 6.05181 55.2752 6.05962C55.2671 6.06742 55.261 6.07687 55.2572 6.08727C55.2534 6.09768 55.252 6.10877 55.2532 6.11975V7.42937C55.252 7.44034 55.2534 7.45144 55.2572 7.46184C55.261 7.47224 55.2671 7.48169 55.2752 7.4895C55.2832 7.4973 55.293 7.50326 55.3037 7.50694C55.3145 7.51062 55.3259 7.51192 55.3372 7.51076H55.5358C55.5969 7.51076 55.6274 7.51075 55.6274 7.42937V6.96323H55.7267L56.0551 7.45156C56.0677 7.46981 56.0847 7.48476 56.1047 7.49509C56.1247 7.50541 56.147 7.5108 56.1696 7.51076H56.3529C56.3659 7.51724 56.3803 7.52063 56.3949 7.52063C56.4095 7.52063 56.4239 7.51724 56.4369 7.51076C56.4455 7.50151 56.4513 7.49012 56.4535 7.47786C56.4558 7.46561 56.4544 7.45299 56.4497 7.44144C56.4449 7.42988 56.4369 7.41985 56.4265 7.41249C56.4162 7.40512 56.4039 7.40072 56.3911 7.39977ZM55.9863 6.51929C55.9863 6.61548 55.9329 6.65987 55.7954 6.65987H55.5892V6.37871H55.7954C55.9329 6.37871 55.9863 6.41571 55.9863 6.51929ZM54.958 5.64888C55.1991 5.49278 55.4826 5.40946 55.7726 5.40946C56.1614 5.40946 56.5344 5.55913 56.8093 5.82555C57.0843 6.09196 57.2388 6.4533 57.2388 6.83006C57.2388 7.11103 57.1528 7.38569 56.9917 7.61931C56.8306 7.85293 56.6016 8.03501 56.3337 8.14253C56.0657 8.25005 55.7709 8.27819 55.4865 8.22337C55.2021 8.16856 54.9409 8.03326 54.7358 7.83458C54.5307 7.63591 54.3911 7.38278 54.3345 7.10721C54.278 6.83164 54.307 6.546 54.418 6.28642C54.5289 6.02684 54.7169 5.80497 54.958 5.64888ZM55.1099 7.78186C55.306 7.90902 55.5366 7.9769 55.7726 7.97691V7.93991C56.0807 7.94013 56.377 7.82464 56.5991 7.61769C56.8213 7.41073 56.952 7.12843 56.9639 6.83006C56.9654 6.60147 56.8968 6.37758 56.7668 6.1868C56.6368 5.99601 56.4513 5.84692 56.2338 5.75842C56.0162 5.66993 55.7765 5.64601 55.5449 5.68971C55.3133 5.73341 55.1003 5.84275 54.9329 6.00387C54.7656 6.165 54.6513 6.37065 54.6047 6.59475C54.5582 6.81885 54.5813 7.05131 54.6712 7.26265C54.7612 7.47399 54.9139 7.6547 55.1099 7.78186Z" fill="white"/>
<path d="M66.7919 13.748V1.90964C66.7919 1.30292 66.5475 0.969971 66.0282 0.969971C65.5089 0.969971 65.2646 1.30292 65.2646 1.90964V26.0303C65.2646 26.637 65.5395 26.97 66.0282 26.97C66.517 26.97 66.7919 26.637 66.7919 26.0303V13.748Z" fill="white"/>
<path fill-rule="evenodd" clip-rule="evenodd" d="M126.891 6.28979C124.234 6.28979 123.149 7.29605 123.149 9.76731V19.645C123.149 22.1162 124.234 23.1225 126.891 23.1225C129.549 23.1225 130.641 22.1162 130.641 19.645V9.76731C130.641 7.29605 129.556 6.28979 126.891 6.28979ZM125.448 9.76731C125.448 8.77585 125.685 8.20613 126.891 8.20613C128.098 8.20613 128.342 8.77585 128.342 9.76731V19.645C128.342 20.6364 128.105 21.2062 126.891 21.2062C125.677 21.2062 125.448 20.6364 125.448 19.645V9.76731ZM117.537 21.0952H121.164C121.254 21.0862 121.345 21.0966 121.431 21.1256C121.516 21.1545 121.594 21.2014 121.659 21.2628C121.724 21.3242 121.774 21.3987 121.806 21.481C121.838 21.5633 121.851 21.6513 121.844 21.7389V22.3456C121.852 22.4341 121.84 22.5232 121.809 22.6067C121.777 22.6902 121.727 22.766 121.663 22.8288C121.598 22.8916 121.52 22.9399 121.433 22.9702C121.347 23.0005 121.255 23.0121 121.164 23.0041H115.925C115.834 23.0119 115.741 23.0003 115.655 22.97C115.568 22.9398 115.49 22.8917 115.424 22.829C115.359 22.7664 115.308 22.6907 115.276 22.6072C115.244 22.5237 115.231 22.4345 115.238 22.3456V7.0371C115.232 6.94942 115.246 6.86148 115.278 6.77953C115.311 6.69759 115.362 6.62364 115.428 6.56292C115.493 6.50221 115.572 6.45621 115.658 6.42819C115.744 6.40016 115.835 6.39081 115.925 6.40078H116.849C116.939 6.39081 117.031 6.40016 117.117 6.42819C117.203 6.45621 117.281 6.50221 117.347 6.56292C117.412 6.62364 117.463 6.69759 117.496 6.77953C117.529 6.86148 117.543 6.94942 117.537 7.0371V21.0952ZM90.6103 6.4082H89.7015C89.6114 6.39823 89.5201 6.40759 89.4342 6.43561C89.3482 6.46363 89.2696 6.50962 89.204 6.57034C89.1385 6.63106 89.0875 6.70501 89.0547 6.78695C89.0219 6.86889 89.0081 6.95683 89.0143 7.04451V13.748H86.12V7.04451C86.1262 6.95683 86.1124 6.86889 86.0796 6.78695C86.0468 6.70501 85.9958 6.63106 85.9302 6.57034C85.8647 6.50962 85.7861 6.46363 85.7001 6.43561C85.6142 6.40759 85.5229 6.39823 85.4327 6.4082H84.5087C84.4186 6.39823 84.3273 6.40759 84.2413 6.43561C84.1554 6.46363 84.0768 6.50962 84.0112 6.57034C83.9456 6.63106 83.8946 6.70501 83.8618 6.78695C83.8291 6.86889 83.8153 6.95683 83.8214 7.04451V22.3456C83.8144 22.4345 83.8275 22.5237 83.8597 22.6072C83.8918 22.6907 83.9424 22.7664 84.0078 22.829C84.0732 22.8917 84.1518 22.9398 84.2383 22.97C84.3248 23.0003 84.4171 23.0119 84.5087 23.0041H85.4327C85.5244 23.0119 85.6166 23.0003 85.7031 22.97C85.7896 22.9398 85.8683 22.8917 85.9337 22.829C85.9991 22.7664 86.0496 22.6907 86.0818 22.6072C86.114 22.5237 86.127 22.4345 86.12 22.3456V15.6865H89.0143V22.3456C89.0073 22.4345 89.0203 22.5237 89.0525 22.6072C89.0847 22.6907 89.1352 22.7664 89.2006 22.829C89.266 22.8917 89.3447 22.9398 89.4312 22.97C89.5177 23.0003 89.6099 23.0119 89.7015 23.0041H90.6256C90.7172 23.0119 90.8094 23.0003 90.896 22.97C90.9825 22.9398 91.0611 22.8917 91.1265 22.829C91.1919 22.7664 91.2425 22.6907 91.2746 22.6072C91.3068 22.5237 91.3199 22.4345 91.3129 22.3456V7.04451C91.3194 6.95542 91.3054 6.86604 91.2717 6.78289C91.238 6.69974 91.1856 6.62492 91.1183 6.56393C91.0509 6.50294 90.9704 6.45731 90.8825 6.43036C90.7946 6.40342 90.7016 6.39585 90.6103 6.4082ZM81.9352 6.40819H74.7034C74.6133 6.39822 74.522 6.40758 74.436 6.4356C74.3501 6.46362 74.2715 6.50961 74.2059 6.57033C74.1403 6.63105 74.0893 6.705 74.0565 6.78694C74.0238 6.86888 74.01 6.95682 74.0161 7.0445V7.62901C74.008 7.71845 74.0201 7.80854 74.0518 7.89293C74.0834 7.97732 74.1338 8.05396 74.1993 8.11746C74.2648 8.18095 74.3439 8.22974 74.431 8.2604C74.5181 8.29106 74.6111 8.30285 74.7034 8.29493H77.17V22.353C77.163 22.4419 77.1761 22.5311 77.2082 22.6146C77.2404 22.6981 77.2909 22.7738 77.3563 22.8364C77.4217 22.8991 77.5004 22.9472 77.5869 22.9774C77.6734 23.0077 77.7657 23.0193 77.8573 23.0115H78.7813C78.8729 23.0193 78.9652 23.0077 79.0517 22.9774C79.1382 22.9472 79.2169 22.8991 79.2823 22.8364C79.3477 22.7738 79.3982 22.6981 79.4304 22.6146C79.4626 22.5311 79.4756 22.4419 79.4686 22.353V8.29493H81.9352C82.0272 8.30156 82.1196 8.28888 82.2061 8.25776C82.2926 8.22664 82.3711 8.17781 82.4364 8.1146C82.5016 8.05139 82.552 7.97529 82.5841 7.89149C82.6162 7.80769 82.6293 7.71816 82.6225 7.62901V7.0445C82.6287 6.95682 82.6149 6.86888 82.5821 6.78694C82.5493 6.705 82.4983 6.63105 82.4327 6.57033C82.3671 6.50961 82.2885 6.46362 82.2026 6.4356C82.1166 6.40758 82.0253 6.39822 81.9352 6.40819ZM94.0925 6.40817H99.3312C99.4213 6.3982 99.5126 6.40756 99.5986 6.43559C99.6845 6.46361 99.7631 6.5096 99.8287 6.57031C99.8943 6.63103 99.9453 6.70498 99.9781 6.78693C100.011 6.86887 100.025 6.95681 100.018 7.04449V7.6512C100.027 7.74064 100.014 7.83072 99.9828 7.91511C99.9512 7.9995 99.9008 8.07615 99.8353 8.13964C99.7698 8.20313 99.6907 8.25192 99.6036 8.28259C99.5165 8.31325 99.4235 8.32502 99.3312 8.3171H95.7038V13.748H98.453C98.5435 13.7392 98.6349 13.7496 98.7209 13.7785C98.8068 13.8075 98.8852 13.8542 98.9507 13.9155C99.0161 13.9767 99.0669 14.0511 99.0997 14.1333C99.1324 14.2156 99.1463 14.3037 99.1403 14.3917V14.9984C99.1471 15.0876 99.134 15.1771 99.1019 15.2609C99.0698 15.3447 99.0194 15.4208 98.9542 15.484C98.8889 15.5472 98.8104 15.596 98.7239 15.6272C98.6374 15.6583 98.545 15.671 98.453 15.6643H95.7038V21.0952H99.3312C99.422 21.085 99.514 21.0945 99.6006 21.123C99.6871 21.1514 99.7661 21.1981 99.8318 21.2596C99.8976 21.3212 99.9484 21.3961 99.9806 21.479C100.013 21.5618 100.026 21.6506 100.018 21.7389V22.3456C100.025 22.4344 100.012 22.5237 99.9802 22.6072C99.9481 22.6906 99.8975 22.7663 99.8321 22.829C99.7668 22.8916 99.6881 22.9398 99.6016 22.97C99.515 23.0002 99.4228 23.0119 99.3312 23.0041H94.0925C94.0012 23.012 93.9092 23.0005 93.8231 22.9702C93.7369 22.9399 93.6586 22.8916 93.5938 22.8288C93.529 22.766 93.4792 22.6902 93.4479 22.6067C93.4167 22.5232 93.4047 22.4341 93.4129 22.3456V7.04449C93.4055 6.95718 93.4182 6.86936 93.4501 6.78738C93.482 6.70541 93.5322 6.63132 93.5972 6.57045C93.6623 6.50957 93.7404 6.46344 93.8261 6.43538C93.9117 6.40732 94.0027 6.39802 94.0925 6.40817ZM109.121 6.40817H106.593C106.504 6.39802 106.413 6.40732 106.327 6.43538C106.241 6.46344 106.163 6.50957 106.098 6.57045C106.033 6.63132 105.983 6.70541 105.951 6.78738C105.919 6.86936 105.906 6.95718 105.914 7.04449V22.3456C105.905 22.4341 105.917 22.5232 105.949 22.6067C105.98 22.6902 106.03 22.766 106.095 22.8288C106.159 22.8916 106.238 22.9399 106.324 22.9702C106.41 23.0005 106.502 23.012 106.593 23.0041H109.121C112 23.0041 113.168 21.9091 113.168 19.2232V18.0542C113.168 16.1601 112.611 15.0946 111.32 14.6063C112.611 14.1179 113.168 13.0673 113.168 11.1583V10.1669C113.168 7.49582 112 6.40817 109.121 6.40817ZM109.121 13.637H108.205V8.3171H109.121C110.587 8.3171 110.87 8.99781 110.87 10.1669V11.7873C110.87 12.9859 110.595 13.637 109.121 13.637ZM109.121 21.0952H108.205V15.5533H109.121C110.587 15.5533 110.87 16.234 110.87 17.4253V19.2232C110.87 20.4071 110.587 21.0952 109.121 21.0952ZM139.56 12.1572H138.629C138.537 12.1639 138.444 12.1512 138.358 12.1201C138.271 12.0889 138.193 12.0401 138.127 11.9769C138.062 11.9137 138.012 11.8376 137.98 11.7538C137.948 11.67 137.935 11.5805 137.941 11.4913V9.76731C137.941 8.77585 137.712 8.20613 136.498 8.20613C135.284 8.20613 135.047 8.77585 135.047 9.76731V19.645C135.047 20.6364 135.291 21.2062 136.498 21.2062C137.705 21.2062 137.941 20.6364 137.941 19.645V16.3154H136.865C136.776 16.3236 136.686 16.3125 136.602 16.2829C136.518 16.2533 136.442 16.2061 136.379 16.1444C136.316 16.0828 136.268 16.0085 136.238 15.9267C136.209 15.845 136.198 15.7579 136.208 15.6717V15.065C136.198 14.9777 136.207 14.8893 136.236 14.806C136.265 14.7226 136.313 14.6465 136.375 14.583C136.438 14.5194 136.514 14.47 136.599 14.4383C136.683 14.4065 136.774 14.3931 136.865 14.3991H139.56C139.652 14.3923 139.744 14.405 139.83 14.4361C139.916 14.4673 139.995 14.5163 140.059 14.5796C140.124 14.643 140.174 14.7192 140.205 14.803C140.236 14.8869 140.248 14.9763 140.24 15.065V19.645C140.24 22.1162 139.163 23.1225 136.498 23.1225C133.833 23.1225 132.749 22.1162 132.749 19.645V9.76731C132.749 7.29605 133.841 6.28979 136.498 6.28979C139.156 6.28979 140.24 7.29605 140.24 9.76731V11.4913C140.248 11.5801 140.236 11.6695 140.205 11.7533C140.174 11.8371 140.124 11.9133 140.059 11.9767C139.995 12.0401 139.916 12.089 139.83 12.1202C139.744 12.1514 139.652 12.164 139.56 12.1572Z" fill="white"/>
</g>
<defs>
<clipPath id="clip0_34_1243">
<rect width="142" height="26" fill="white" transform="translate(0 0.969971)"/>
</clipPath>
</defs>
</svg>
