<svg width="8" height="16" viewBox="0 0 8 16" fill="none" xmlns="http://www.w3.org/2000/svg">
<path d="M3.44517 0.043457H1.14952C0.871259 0.043457 0.593003 0.252153 0.523438 0.530413V0.599979V15C0.523438 15.3478 0.732135 15.6261 1.07996 15.6261H1.14952H3.44517C6.08865 15.6261 7.13213 14.5826 7.13213 12.0782V10.9652C7.13213 9.1565 6.64518 8.18259 5.46257 7.69563C6.64518 7.20867 7.13213 6.23476 7.13213 4.42607V3.52172C7.13213 1.08694 6.01909 0.043457 3.44517 0.043457ZM3.44517 6.86085H2.61039V1.85215H3.44517C4.76691 1.85215 5.04518 2.47824 5.04518 3.59128V5.12172C5.04518 6.23476 4.76691 6.86085 3.44517 6.86085ZM3.44517 13.8869H2.61039V8.66954H3.44517C4.76691 8.66954 5.04518 9.29563 5.04518 10.4087V12.0782C5.04518 13.2608 4.76691 13.8869 3.44517 13.8869Z" fill="#556860"/>
</svg>
