<svg width="25" height="24" viewBox="0 0 25 24" fill="none" xmlns="http://www.w3.org/2000/svg">
<g clip-path="url(#clip0_163_1687)">
<path d="M9.59524 17.9998L9.6165 17.9713C9.7943 18.1272 9.97796 18.2816 10.1673 18.4345C11.1036 19.1905 12.1115 19.8527 13.1193 20.4137C13.4453 20.5952 13.749 20.7535 14.0233 20.8881L14.4612 20.6514C14.6141 20.5664 14.7735 20.4753 14.9387 20.3782C15.1455 20.2567 15.3523 20.1311 15.5586 20.0015L18.9999 20.0018C18.0225 20.7925 16.9873 21.494 15.952 22.1025C15.6636 22.272 15.3901 22.4254 15.1353 22.5621L14.6764 22.8011L14.4634 22.9053L14.0561 23.0962L13.5137 22.8603C13.4348 22.8242 13.3349 22.7772 13.216 22.7195C12.8919 22.5623 12.5325 22.3761 12.1464 22.1612C11.0448 21.5479 9.94326 20.8242 8.91082 19.9905C8.12577 19.3566 7.42003 18.6931 6.80534 18L9.59524 17.9998ZM14.6188 10.1418C15.0778 9.91293 15.6283 10.0698 15.9019 10.489L15.96 10.5904L18.3817 15.4461C18.5321 15.7477 18.8226 15.9506 19.1516 15.992L19.2766 15.9998H24.0391C24.5914 15.9998 25.0391 16.4475 25.0391 16.9998C25.0391 17.5126 24.6531 17.9353 24.1557 17.9931L24.0391 17.9998H18.6578C17.9537 17.9998 17.3058 17.6301 16.9459 17.0339L16.8681 16.8924L15.3854 13.9196C15.3432 13.8349 15.2779 13.764 15.197 13.715C14.987 13.5879 14.7208 13.6334 14.5637 13.811L14.5103 13.8837L12.8715 16.5903C12.77 16.7579 12.6214 16.8921 12.4443 16.976C11.9808 17.1956 11.4335 17.0277 11.1684 16.603L11.1124 16.5005L10.3103 14.8077C10.2734 14.7298 10.2169 14.6628 10.1464 14.6131C9.94575 14.4717 9.67699 14.4987 9.50804 14.665L9.44969 14.7339L9.1553 15.1517C8.81188 15.6392 8.27082 15.9456 7.682 15.9933L7.52033 15.9998H4.03906C3.48678 15.9998 3.03906 15.5521 3.03906 14.9998C3.03906 14.487 3.4251 14.0643 3.92244 14.0065L4.03906 13.9998H7.00161C7.28619 13.9998 7.55522 13.8787 7.74353 13.6703L7.81909 13.5758L9.29555 11.4801C9.39489 11.3391 9.52899 11.2262 9.68485 11.1524C10.1483 10.9328 10.6956 11.1007 10.9607 11.5254L11.0167 11.6279L11.7256 13.1239C11.7675 13.2124 11.8346 13.2867 11.9184 13.3375C12.1284 13.4646 12.3947 13.4191 12.5517 13.2415L12.6052 13.1687L14.2097 10.5188C14.3077 10.3569 14.4496 10.2262 14.6188 10.1418ZM14.0892 6.20257C18.6551 3.38577 24.0397 5.87975 24.0391 11.3469C24.0391 12.2589 23.887 13.1435 23.5986 14.0001L21.4461 13.9999C21.8339 13.132 22.0391 12.2458 22.0391 11.3468C22.0395 7.4209 18.2047 5.75308 14.8171 8.1162L14.636 8.24667L13.9778 8.73645L13.3689 8.18652C10.5166 5.61066 6.03906 7.42509 6.03906 11.3469C6.03906 11.5661 6.04988 11.7837 6.07125 11.9997L4.06312 12C4.04714 11.7842 4.03906 11.5665 4.03906 11.3469C4.03906 5.92911 9.97355 3.25901 14.0892 6.20257Z" fill="#707070"/>
</g>
<defs>
<clipPath id="clip0_163_1687">
<rect width="24" height="24" fill="white" transform="translate(0.0390625)"/>
</clipPath>
</defs>
</svg>
