<svg width="25" height="24" viewBox="0 0 25 24" fill="none" xmlns="http://www.w3.org/2000/svg">
<g clip-path="url(#clip0_163_1694)">
<path d="M5.53906 8C5.53906 6.34315 6.88221 5 8.53906 5C10.1959 5 11.5391 6.34315 11.5391 8V11H13.5391V8C13.5391 6.34315 14.8822 5 16.5391 5C18.196 5 19.5391 6.34315 19.5391 8C21.196 8 22.5391 9.34315 22.5391 11V13C22.5391 14.6569 21.196 16 19.5391 16C19.5391 17.6569 18.196 19 16.5391 19C14.8822 19 13.5391 17.6569 13.5391 16V13H11.5391V16C11.5391 17.6569 10.1959 19 8.53906 19C6.88221 19 5.53906 17.6569 5.53906 16C3.88221 16 2.53906 14.6569 2.53906 13V11C2.53906 9.34315 3.88221 8 5.53906 8ZM5.53906 14V10C4.98678 10 4.53906 10.4477 4.53906 11V13C4.53906 13.5523 4.98678 14 5.53906 14ZM8.53906 7C7.98678 7 7.53906 7.44772 7.53906 8V16C7.53906 16.5523 7.98678 17 8.53906 17C9.09134 17 9.53906 16.5523 9.53906 16V8C9.53906 7.44772 9.09134 7 8.53906 7ZM17.5391 16V8C17.5391 7.44772 17.0914 7 16.5391 7C15.9868 7 15.5391 7.44772 15.5391 8V16C15.5391 16.5523 15.9868 17 16.5391 17C17.0914 17 17.5391 16.5523 17.5391 16ZM19.5391 14C20.0914 14 20.5391 13.5523 20.5391 13V11C20.5391 10.4477 20.0914 10 19.5391 10V14Z" fill="#707070"/>
</g>
<defs>
<clipPath id="clip0_163_1694">
<rect width="24" height="24" fill="white" transform="translate(0.539062)"/>
</clipPath>
</defs>
</svg>
