<svg width="20" height="21" viewBox="0 0 20 21" fill="none" xmlns="http://www.w3.org/2000/svg">
<path fill-rule="evenodd" clip-rule="evenodd" d="M6.9995 18.8293V13.0793C6.9995 11.3093 8.3145 9.82935 9.9995 9.82935C11.6845 9.82935 12.9995 11.3093 12.9995 13.0793V18.8293H14.9995C15.5515 18.8293 15.9995 18.3813 15.9995 17.8293V12.8293C15.9995 12.2773 16.4475 11.8293 16.9995 11.8293C17.5515 11.8293 17.9995 12.2773 17.9995 12.8293V17.8293C17.9995 19.4863 16.6565 20.8293 14.9995 20.8293H4.9995C3.3425 20.8293 1.9995 19.4863 1.9995 17.8293V12.8293C1.9995 12.2773 2.4475 11.8293 2.9995 11.8293C3.5515 11.8293 3.9995 12.2773 3.9995 12.8293V17.8293C3.9995 18.3813 4.4475 18.8293 4.9995 18.8293H6.9995ZM8.9995 18.8293H10.9995V13.0793C10.9995 12.3643 10.5235 11.8293 9.9995 11.8293C9.4755 11.8293 8.9995 12.3643 8.9995 13.0793V18.8293ZM9.9995 0.829346C10.2555 0.829346 10.5115 0.927346 10.7065 1.12235L19.7065 10.1223C20.0965 10.5123 20.0965 11.1463 19.7065 11.5363C19.3165 11.9263 18.6825 11.9263 18.2925 11.5363L9.9995 3.24335L1.7065 11.5363C1.3165 11.9263 0.6825 11.9263 0.2925 11.5363C-0.0975 11.1463 -0.0975 10.5123 0.2925 10.1223L9.2925 1.12235C9.4875 0.927346 9.7435 0.829346 9.9995 0.829346Z" fill="#999999"/>
</svg>
