<svg width="342" height="123" viewBox="0 0 342 123" fill="none" xmlns="http://www.w3.org/2000/svg">
<rect y="0.410156" width="342" height="115.7" rx="8" fill="#FFF5C2"/>
<path d="M32.68 22.3422L29.088 33.9102H27.144L24.616 26.0062C24.5467 25.8142 24.4827 25.5795 24.424 25.3022C24.392 25.4355 24.36 25.5608 24.328 25.6782C24.296 25.7955 24.2613 25.9048 24.224 26.0062L21.672 33.9102H19.72L16.136 22.3422H17.936C18.1227 22.3422 18.2773 22.3875 18.4 22.4782C18.528 22.5635 18.6133 22.6808 18.656 22.8302L20.624 29.7502C20.6667 29.9208 20.7067 30.1075 20.744 30.3102C20.7867 30.5075 20.8293 30.7155 20.872 30.9342C20.9147 30.7102 20.96 30.4995 21.008 30.3022C21.0613 30.1048 21.1173 29.9208 21.176 29.7502L23.448 22.8302C23.4907 22.7075 23.5733 22.5955 23.696 22.4942C23.824 22.3928 23.9787 22.3422 24.16 22.3422H24.792C24.9787 22.3422 25.1307 22.3875 25.248 22.4782C25.3653 22.5688 25.4533 22.6862 25.512 22.8302L27.776 29.7502C27.888 30.0808 27.9893 30.4622 28.08 30.8942C28.1493 30.4728 28.2267 30.0915 28.312 29.7502L30.28 22.8302C30.312 22.6968 30.392 22.5822 30.52 22.4862C30.6533 22.3902 30.8107 22.3422 30.992 22.3422H32.68ZM34.9181 27.1262C35.1741 26.6355 35.4781 26.2515 35.8301 25.9742C36.1821 25.6915 36.5981 25.5502 37.0781 25.5502C37.4568 25.5502 37.7608 25.6328 37.9901 25.7982L37.8621 27.2782C37.8355 27.3742 37.7955 27.4435 37.7421 27.4862C37.6941 27.5235 37.6275 27.5422 37.5421 27.5422C37.4621 27.5422 37.3421 27.5288 37.1821 27.5022C37.0275 27.4755 36.8755 27.4622 36.7261 27.4622C36.5075 27.4622 36.3128 27.4942 36.1421 27.5582C35.9715 27.6222 35.8168 27.7155 35.6781 27.8382C35.5448 27.9555 35.4248 28.0995 35.3181 28.2702C35.2168 28.4408 35.1208 28.6355 35.0301 28.8542V33.9102H33.0541V25.7022H34.2141C34.4168 25.7022 34.5581 25.7395 34.6381 25.8142C34.7181 25.8835 34.7715 26.0115 34.7981 26.1982L34.9181 27.1262ZM41.0709 25.7022V33.9102H39.0869V25.7022H41.0709ZM41.3429 23.3102C41.3429 23.4808 41.3082 23.6408 41.2389 23.7902C41.1695 23.9395 41.0762 24.0702 40.9589 24.1822C40.8469 24.2942 40.7135 24.3848 40.5589 24.4542C40.4042 24.5182 40.2389 24.5502 40.0629 24.5502C39.8922 24.5502 39.7295 24.5182 39.5749 24.4542C39.4255 24.3848 39.2949 24.2942 39.1829 24.1822C39.0709 24.0702 38.9802 23.9395 38.9109 23.7902C38.8469 23.6408 38.8149 23.4808 38.8149 23.3102C38.8149 23.1342 38.8469 22.9688 38.9109 22.8142C38.9802 22.6595 39.0709 22.5262 39.1829 22.4142C39.2949 22.3022 39.4255 22.2142 39.5749 22.1502C39.7295 22.0808 39.8922 22.0462 40.0629 22.0462C40.2389 22.0462 40.4042 22.0808 40.5589 22.1502C40.7135 22.2142 40.8469 22.3022 40.9589 22.4142C41.0762 22.5262 41.1695 22.6595 41.2389 22.8142C41.3082 22.9688 41.3429 23.1342 41.3429 23.3102ZM45.8214 34.0382C45.1067 34.0382 44.5574 33.8382 44.1734 33.4382C43.7947 33.0328 43.6054 32.4755 43.6054 31.7662V27.1822H42.7654C42.6587 27.1822 42.568 27.1475 42.4934 27.0782C42.4187 27.0088 42.3814 26.9048 42.3814 26.7662V25.9822L43.7014 25.7662L44.1174 23.5262C44.144 23.4195 44.1947 23.3368 44.2694 23.2782C44.344 23.2195 44.44 23.1902 44.5574 23.1902H45.5814V25.7742H47.7734V27.1822H45.5814V31.6302C45.5814 31.8862 45.6427 32.0862 45.7654 32.2302C45.8934 32.3742 46.0667 32.4462 46.2854 32.4462C46.408 32.4462 46.5094 32.4328 46.5894 32.4062C46.6747 32.3742 46.7467 32.3422 46.8054 32.3102C46.8694 32.2782 46.9254 32.2488 46.9734 32.2222C47.0214 32.1902 47.0694 32.1742 47.1174 32.1742C47.176 32.1742 47.224 32.1902 47.2614 32.2222C47.2987 32.2488 47.3387 32.2915 47.3814 32.3502L47.9734 33.3102C47.6854 33.5502 47.3547 33.7315 46.9814 33.8542C46.608 33.9768 46.2214 34.0382 45.8214 34.0382ZM54.264 28.8622C54.264 28.6062 54.2267 28.3662 54.152 28.1422C54.0827 27.9128 53.976 27.7128 53.832 27.5422C53.688 27.3715 53.504 27.2382 53.28 27.1422C53.0613 27.0408 52.8053 26.9902 52.512 26.9902C51.9413 26.9902 51.4907 27.1528 51.16 27.4782C50.8347 27.8035 50.6267 28.2648 50.536 28.8622H54.264ZM50.496 30.0542C50.528 30.4755 50.6027 30.8408 50.72 31.1502C50.8373 31.4542 50.992 31.7075 51.184 31.9102C51.376 32.1075 51.6027 32.2568 51.864 32.3582C52.1307 32.4542 52.424 32.5022 52.744 32.5022C53.064 32.5022 53.3387 32.4648 53.568 32.3902C53.8027 32.3155 54.0053 32.2328 54.176 32.1422C54.352 32.0515 54.504 31.9688 54.632 31.8942C54.7653 31.8195 54.8933 31.7822 55.016 31.7822C55.1813 31.7822 55.304 31.8435 55.384 31.9662L55.952 32.6862C55.7333 32.9422 55.488 33.1582 55.216 33.3342C54.944 33.5048 54.6587 33.6435 54.36 33.7502C54.0667 33.8515 53.7653 33.9235 53.456 33.9662C53.152 34.0088 52.856 34.0302 52.568 34.0302C51.9973 34.0302 51.4667 33.9368 50.976 33.7502C50.4853 33.5582 50.0587 33.2782 49.696 32.9102C49.3333 32.5368 49.048 32.0782 48.84 31.5342C48.632 30.9848 48.528 30.3502 48.528 29.6302C48.528 29.0702 48.6187 28.5448 48.8 28.0542C48.9813 27.5582 49.24 27.1288 49.576 26.7662C49.9173 26.3982 50.3307 26.1075 50.816 25.8942C51.3067 25.6808 51.8587 25.5742 52.472 25.5742C52.9893 25.5742 53.4667 25.6568 53.904 25.8222C54.3413 25.9875 54.7173 26.2302 55.032 26.5502C55.3467 26.8648 55.592 27.2542 55.768 27.7182C55.9493 28.1768 56.04 28.7022 56.04 29.2942C56.04 29.5928 56.008 29.7955 55.944 29.9022C55.88 30.0035 55.7573 30.0542 55.576 30.0542H50.496ZM65.7495 30.4062C65.1788 30.4328 64.6988 30.4835 64.3095 30.5582C63.9202 30.6275 63.6082 30.7182 63.3735 30.8302C63.1388 30.9422 62.9708 31.0728 62.8695 31.2222C62.7682 31.3715 62.7175 31.5342 62.7175 31.7102C62.7175 32.0568 62.8188 32.3048 63.0215 32.4542C63.2295 32.6035 63.4988 32.6782 63.8295 32.6782C64.2348 32.6782 64.5842 32.6062 64.8775 32.4622C65.1762 32.3128 65.4668 32.0888 65.7495 31.7902V30.4062ZM61.2215 26.8462C62.1655 25.9822 63.3015 25.5502 64.6295 25.5502C65.1095 25.5502 65.5388 25.6302 65.9175 25.7902C66.2962 25.9448 66.6162 26.1635 66.8775 26.4462C67.1388 26.7235 67.3362 27.0568 67.4695 27.4462C67.6082 27.8355 67.6775 28.2622 67.6775 28.7262V33.9102H66.7815C66.5948 33.9102 66.4508 33.8835 66.3495 33.8302C66.2482 33.7715 66.1682 33.6568 66.1095 33.4862L65.9335 32.8942C65.7255 33.0808 65.5228 33.2462 65.3255 33.3902C65.1282 33.5288 64.9228 33.6462 64.7095 33.7422C64.4962 33.8382 64.2668 33.9102 64.0215 33.9582C63.7815 34.0115 63.5148 34.0382 63.2215 34.0382C62.8748 34.0382 62.5548 33.9928 62.2615 33.9022C61.9682 33.8062 61.7148 33.6648 61.5015 33.4782C61.2882 33.2915 61.1228 33.0595 61.0055 32.7822C60.8882 32.5048 60.8295 32.1822 60.8295 31.8142C60.8295 31.6062 60.8642 31.4008 60.9335 31.1982C61.0028 30.9902 61.1148 30.7928 61.2695 30.6062C61.4295 30.4195 61.6348 30.2435 61.8855 30.0782C62.1362 29.9128 62.4428 29.7688 62.8055 29.6462C63.1735 29.5235 63.6002 29.4248 64.0855 29.3502C64.5708 29.2702 65.1255 29.2222 65.7495 29.2062V28.7262C65.7495 28.1768 65.6322 27.7715 65.3975 27.5102C65.1628 27.2435 64.8242 27.1102 64.3815 27.1102C64.0615 27.1102 63.7948 27.1475 63.5815 27.2222C63.3735 27.2968 63.1895 27.3822 63.0295 27.4782C62.8695 27.5688 62.7228 27.6515 62.5895 27.7262C62.4615 27.8008 62.3175 27.8382 62.1575 27.8382C62.0188 27.8382 61.9015 27.8035 61.8055 27.7342C61.7095 27.6595 61.6322 27.5742 61.5735 27.4782L61.2215 26.8462ZM75.2931 27.1262C75.5491 26.6355 75.8531 26.2515 76.2051 25.9742C76.5571 25.6915 76.9731 25.5502 77.4531 25.5502C77.8318 25.5502 78.1358 25.6328 78.3651 25.7982L78.2371 27.2782C78.2105 27.3742 78.1705 27.4435 78.1171 27.4862C78.0691 27.5235 78.0025 27.5422 77.9171 27.5422C77.8371 27.5422 77.7171 27.5288 77.5571 27.5022C77.4025 27.4755 77.2505 27.4622 77.1011 27.4622C76.8825 27.4622 76.6878 27.4942 76.5171 27.5582C76.3465 27.6222 76.1918 27.7155 76.0531 27.8382C75.9198 27.9555 75.7998 28.0995 75.6931 28.2702C75.5918 28.4408 75.4958 28.6355 75.4051 28.8542V33.9102H73.4291V25.7022H74.5891C74.7918 25.7022 74.9331 25.7395 75.0131 25.8142C75.0931 25.8835 75.1465 26.0115 75.1731 26.1982L75.2931 27.1262ZM84.4515 28.8622C84.4515 28.6062 84.4142 28.3662 84.3395 28.1422C84.2702 27.9128 84.1635 27.7128 84.0195 27.5422C83.8755 27.3715 83.6915 27.2382 83.4675 27.1422C83.2488 27.0408 82.9928 26.9902 82.6995 26.9902C82.1288 26.9902 81.6782 27.1528 81.3475 27.4782C81.0222 27.8035 80.8142 28.2648 80.7235 28.8622H84.4515ZM80.6835 30.0542C80.7155 30.4755 80.7902 30.8408 80.9075 31.1502C81.0248 31.4542 81.1795 31.7075 81.3715 31.9102C81.5635 32.1075 81.7902 32.2568 82.0515 32.3582C82.3182 32.4542 82.6115 32.5022 82.9315 32.5022C83.2515 32.5022 83.5262 32.4648 83.7555 32.3902C83.9902 32.3155 84.1928 32.2328 84.3635 32.1422C84.5395 32.0515 84.6915 31.9688 84.8195 31.8942C84.9528 31.8195 85.0808 31.7822 85.2035 31.7822C85.3688 31.7822 85.4915 31.8435 85.5715 31.9662L86.1395 32.6862C85.9208 32.9422 85.6755 33.1582 85.4035 33.3342C85.1315 33.5048 84.8462 33.6435 84.5475 33.7502C84.2542 33.8515 83.9528 33.9235 83.6435 33.9662C83.3395 34.0088 83.0435 34.0302 82.7555 34.0302C82.1848 34.0302 81.6542 33.9368 81.1635 33.7502C80.6728 33.5582 80.2462 33.2782 79.8835 32.9102C79.5208 32.5368 79.2355 32.0782 79.0275 31.5342C78.8195 30.9848 78.7155 30.3502 78.7155 29.6302C78.7155 29.0702 78.8062 28.5448 78.9875 28.0542C79.1688 27.5582 79.4275 27.1288 79.7635 26.7662C80.1048 26.3982 80.5182 26.1075 81.0035 25.8942C81.4942 25.6808 82.0462 25.5742 82.6595 25.5742C83.1768 25.5742 83.6542 25.6568 84.0915 25.8222C84.5288 25.9875 84.9048 26.2302 85.2195 26.5502C85.5342 26.8648 85.7795 27.2542 85.9555 27.7182C86.1368 28.1768 86.2275 28.7022 86.2275 29.2942C86.2275 29.5928 86.1955 29.7955 86.1315 29.9022C86.0675 30.0035 85.9448 30.0542 85.7635 30.0542H80.6835ZM94.9073 25.7022L91.6513 33.9102H89.8593L86.6033 25.7022H88.2353C88.3846 25.7022 88.5073 25.7368 88.6033 25.8062C88.7046 25.8755 88.7713 25.9635 88.8033 26.0702L90.3873 30.4542C90.4726 30.7102 90.5473 30.9608 90.6113 31.2062C90.6753 31.4515 90.7313 31.6968 90.7793 31.9422C90.8326 31.6968 90.8913 31.4515 90.9553 31.2062C91.0193 30.9608 91.0966 30.7102 91.1873 30.4542L92.8033 26.0702C92.8406 25.9635 92.9073 25.8755 93.0033 25.8062C93.0993 25.7368 93.2139 25.7022 93.3473 25.7022H94.9073ZM98.0084 25.7022V33.9102H96.0244V25.7022H98.0084ZM98.2804 23.3102C98.2804 23.4808 98.2457 23.6408 98.1764 23.7902C98.107 23.9395 98.0137 24.0702 97.8964 24.1822C97.7844 24.2942 97.651 24.3848 97.4964 24.4542C97.3417 24.5182 97.1764 24.5502 97.0004 24.5502C96.8297 24.5502 96.667 24.5182 96.5124 24.4542C96.363 24.3848 96.2324 24.2942 96.1204 24.1822C96.0084 24.0702 95.9177 23.9395 95.8484 23.7902C95.7844 23.6408 95.7524 23.4808 95.7524 23.3102C95.7524 23.1342 95.7844 22.9688 95.8484 22.8142C95.9177 22.6595 96.0084 22.5262 96.1204 22.4142C96.2324 22.3022 96.363 22.2142 96.5124 22.1502C96.667 22.0808 96.8297 22.0462 97.0004 22.0462C97.1764 22.0462 97.3417 22.0808 97.4964 22.1502C97.651 22.2142 97.7844 22.3022 97.8964 22.4142C98.0137 22.5262 98.107 22.6595 98.1764 22.8142C98.2457 22.9688 98.2804 23.1342 98.2804 23.3102ZM105.311 28.8622C105.311 28.6062 105.274 28.3662 105.199 28.1422C105.13 27.9128 105.023 27.7128 104.879 27.5422C104.735 27.3715 104.551 27.2382 104.327 27.1422C104.108 27.0408 103.852 26.9902 103.559 26.9902C102.988 26.9902 102.538 27.1528 102.207 27.4782C101.882 27.8035 101.674 28.2648 101.583 28.8622H105.311ZM101.543 30.0542C101.575 30.4755 101.65 30.8408 101.767 31.1502C101.884 31.4542 102.039 31.7075 102.231 31.9102C102.423 32.1075 102.65 32.2568 102.911 32.3582C103.178 32.4542 103.471 32.5022 103.791 32.5022C104.111 32.5022 104.386 32.4648 104.615 32.3902C104.85 32.3155 105.052 32.2328 105.223 32.1422C105.399 32.0515 105.551 31.9688 105.679 31.8942C105.812 31.8195 105.94 31.7822 106.063 31.7822C106.228 31.7822 106.351 31.8435 106.431 31.9662L106.999 32.6862C106.78 32.9422 106.535 33.1582 106.263 33.3342C105.991 33.5048 105.706 33.6435 105.407 33.7502C105.114 33.8515 104.812 33.9235 104.503 33.9662C104.199 34.0088 103.903 34.0302 103.615 34.0302C103.044 34.0302 102.514 33.9368 102.023 33.7502C101.532 33.5582 101.106 33.2782 100.743 32.9102C100.38 32.5368 100.095 32.0782 99.8869 31.5342C99.6789 30.9848 99.5749 30.3502 99.5749 29.6302C99.5749 29.0702 99.6655 28.5448 99.8469 28.0542C100.028 27.5582 100.287 27.1288 100.623 26.7662C100.964 26.3982 101.378 26.1075 101.863 25.8942C102.354 25.6808 102.906 25.5742 103.519 25.5742C104.036 25.5742 104.514 25.6568 104.951 25.8222C105.388 25.9875 105.764 26.2302 106.079 26.5502C106.394 26.8648 106.639 27.2542 106.815 27.7182C106.996 28.1768 107.087 28.7022 107.087 29.2942C107.087 29.5928 107.055 29.7955 106.991 29.9022C106.927 30.0035 106.804 30.0542 106.623 30.0542H101.543ZM120.18 25.7022L117.572 33.9102H115.988C115.807 33.9102 115.682 33.7928 115.612 33.5582L114.14 28.8142C114.092 28.6542 114.047 28.4968 114.004 28.3422C113.967 28.1822 113.935 28.0222 113.908 27.8622C113.876 28.0222 113.839 28.1848 113.796 28.3502C113.759 28.5102 113.716 28.6702 113.668 28.8302L112.172 33.5582C112.108 33.7928 111.967 33.9102 111.748 33.9102H110.228L107.628 25.7022H109.204C109.348 25.7022 109.471 25.7368 109.572 25.8062C109.674 25.8755 109.74 25.9635 109.772 26.0702L110.948 30.4542C111.007 30.6942 111.058 30.9288 111.1 31.1582C111.148 31.3875 111.188 31.6168 111.22 31.8462C111.279 31.6168 111.34 31.3875 111.404 31.1582C111.474 30.9288 111.546 30.6942 111.62 30.4542L112.98 26.0542C113.012 25.9475 113.074 25.8595 113.164 25.7902C113.26 25.7208 113.375 25.6862 113.508 25.6862H114.38C114.519 25.6862 114.636 25.7208 114.732 25.7902C114.834 25.8595 114.9 25.9475 114.932 26.0542L116.252 30.4542C116.322 30.6942 116.386 30.9315 116.444 31.1662C116.508 31.3955 116.57 31.6248 116.628 31.8542C116.698 31.4008 116.796 30.9342 116.924 30.4542L118.132 26.0702C118.17 25.9635 118.236 25.8755 118.332 25.8062C118.428 25.7368 118.543 25.7022 118.676 25.7022H120.18ZM129.203 30.4062C128.632 30.4328 128.152 30.4835 127.763 30.5582C127.373 30.6275 127.061 30.7182 126.827 30.8302C126.592 30.9422 126.424 31.0728 126.323 31.2222C126.221 31.3715 126.171 31.5342 126.171 31.7102C126.171 32.0568 126.272 32.3048 126.475 32.4542C126.683 32.6035 126.952 32.6782 127.283 32.6782C127.688 32.6782 128.037 32.6062 128.331 32.4622C128.629 32.3128 128.92 32.0888 129.203 31.7902V30.4062ZM124.675 26.8462C125.619 25.9822 126.755 25.5502 128.083 25.5502C128.563 25.5502 128.992 25.6302 129.371 25.7902C129.749 25.9448 130.069 26.1635 130.331 26.4462C130.592 26.7235 130.789 27.0568 130.923 27.4462C131.061 27.8355 131.131 28.2622 131.131 28.7262V33.9102H130.235C130.048 33.9102 129.904 33.8835 129.803 33.8302C129.701 33.7715 129.621 33.6568 129.563 33.4862L129.387 32.8942C129.179 33.0808 128.976 33.2462 128.779 33.3902C128.581 33.5288 128.376 33.6462 128.163 33.7422C127.949 33.8382 127.72 33.9102 127.475 33.9582C127.235 34.0115 126.968 34.0382 126.675 34.0382C126.328 34.0382 126.008 33.9928 125.715 33.9022C125.421 33.8062 125.168 33.6648 124.955 33.4782C124.741 33.2915 124.576 33.0595 124.459 32.7822C124.341 32.5048 124.283 32.1822 124.283 31.8142C124.283 31.6062 124.317 31.4008 124.387 31.1982C124.456 30.9902 124.568 30.7928 124.723 30.6062C124.883 30.4195 125.088 30.2435 125.339 30.0782C125.589 29.9128 125.896 29.7688 126.259 29.6462C126.627 29.5235 127.053 29.4248 127.539 29.3502C128.024 29.2702 128.579 29.2222 129.203 29.2062V28.7262C129.203 28.1768 129.085 27.7715 128.851 27.5102C128.616 27.2435 128.277 27.1102 127.835 27.1102C127.515 27.1102 127.248 27.1475 127.035 27.2222C126.827 27.2968 126.643 27.3822 126.483 27.4782C126.323 27.5688 126.176 27.6515 126.043 27.7262C125.915 27.8008 125.771 27.8382 125.611 27.8382C125.472 27.8382 125.355 27.8035 125.259 27.7342C125.163 27.6595 125.085 27.5742 125.027 27.4782L124.675 26.8462ZM134.84 26.7102C135.005 26.5448 135.178 26.3928 135.36 26.2542C135.546 26.1102 135.741 25.9902 135.944 25.8942C136.152 25.7928 136.373 25.7155 136.608 25.6622C136.842 25.6035 137.098 25.5742 137.376 25.5742C137.824 25.5742 138.221 25.6515 138.568 25.8062C138.914 25.9555 139.202 26.1688 139.432 26.4462C139.666 26.7182 139.842 27.0462 139.96 27.4302C140.082 27.8088 140.144 28.2275 140.144 28.6862V33.9102H138.168V28.6862C138.168 28.1848 138.053 27.7982 137.824 27.5262C137.594 27.2488 137.245 27.1102 136.776 27.1102C136.434 27.1102 136.114 27.1875 135.816 27.3422C135.517 27.4968 135.234 27.7075 134.968 27.9742V33.9102H132.992V25.7022H134.2C134.456 25.7022 134.624 25.8222 134.704 26.0622L134.84 26.7102ZM147.175 27.7982C146.951 27.5262 146.706 27.3342 146.439 27.2222C146.178 27.1102 145.895 27.0542 145.591 27.0542C145.292 27.0542 145.023 27.1102 144.783 27.2222C144.543 27.3342 144.338 27.5048 144.167 27.7342C143.996 27.9582 143.866 28.2462 143.775 28.5982C143.684 28.9448 143.639 29.3555 143.639 29.8302C143.639 30.3102 143.676 30.7182 143.751 31.0542C143.831 31.3848 143.943 31.6568 144.087 31.8702C144.231 32.0782 144.407 32.2302 144.615 32.3262C144.823 32.4168 145.055 32.4622 145.311 32.4622C145.722 32.4622 146.071 32.3768 146.359 32.2062C146.647 32.0355 146.919 31.7928 147.175 31.4782V27.7982ZM149.151 22.0222V33.9102H147.943C147.682 33.9102 147.516 33.7902 147.447 33.5502L147.279 32.7582C146.948 33.1368 146.567 33.4435 146.135 33.6782C145.708 33.9128 145.21 34.0302 144.639 34.0302C144.191 34.0302 143.78 33.9368 143.407 33.7502C143.034 33.5635 142.711 33.2942 142.439 32.9422C142.172 32.5848 141.964 32.1448 141.815 31.6222C141.671 31.0995 141.599 30.5022 141.599 29.8302C141.599 29.2222 141.682 28.6568 141.847 28.1342C142.012 27.6115 142.25 27.1582 142.559 26.7742C142.868 26.3902 143.239 26.0915 143.671 25.8782C144.103 25.6595 144.588 25.5502 145.127 25.5502C145.586 25.5502 145.978 25.6222 146.303 25.7662C146.628 25.9102 146.919 26.1048 147.175 26.3502V22.0222H149.151ZM160.28 28.8622C160.28 28.6062 160.242 28.3662 160.168 28.1422C160.098 27.9128 159.992 27.7128 159.848 27.5422C159.704 27.3715 159.52 27.2382 159.296 27.1422C159.077 27.0408 158.821 26.9902 158.528 26.9902C157.957 26.9902 157.506 27.1528 157.176 27.4782C156.85 27.8035 156.642 28.2648 156.552 28.8622H160.28ZM156.512 30.0542C156.544 30.4755 156.618 30.8408 156.736 31.1502C156.853 31.4542 157.008 31.7075 157.2 31.9102C157.392 32.1075 157.618 32.2568 157.88 32.3582C158.146 32.4542 158.44 32.5022 158.76 32.5022C159.08 32.5022 159.354 32.4648 159.584 32.3902C159.818 32.3155 160.021 32.2328 160.192 32.1422C160.368 32.0515 160.52 31.9688 160.648 31.8942C160.781 31.8195 160.909 31.7822 161.032 31.7822C161.197 31.7822 161.32 31.8435 161.4 31.9662L161.968 32.6862C161.749 32.9422 161.504 33.1582 161.232 33.3342C160.96 33.5048 160.674 33.6435 160.376 33.7502C160.082 33.8515 159.781 33.9235 159.472 33.9662C159.168 34.0088 158.872 34.0302 158.584 34.0302C158.013 34.0302 157.482 33.9368 156.992 33.7502C156.501 33.5582 156.074 33.2782 155.712 32.9102C155.349 32.5368 155.064 32.0782 154.856 31.5342C154.648 30.9848 154.544 30.3502 154.544 29.6302C154.544 29.0702 154.634 28.5448 154.816 28.0542C154.997 27.5582 155.256 27.1288 155.592 26.7662C155.933 26.3982 156.346 26.1075 156.832 25.8942C157.322 25.6808 157.874 25.5742 158.488 25.5742C159.005 25.5742 159.482 25.6568 159.92 25.8222C160.357 25.9875 160.733 26.2302 161.048 26.5502C161.362 26.8648 161.608 27.2542 161.784 27.7182C161.965 28.1768 162.056 28.7022 162.056 29.2942C162.056 29.5928 162.024 29.7955 161.96 29.9022C161.896 30.0035 161.773 30.0542 161.592 30.0542H156.512ZM167.875 30.4062C167.304 30.4328 166.824 30.4835 166.435 30.5582C166.045 30.6275 165.733 30.7182 165.499 30.8302C165.264 30.9422 165.096 31.0728 164.995 31.2222C164.893 31.3715 164.843 31.5342 164.843 31.7102C164.843 32.0568 164.944 32.3048 165.147 32.4542C165.355 32.6035 165.624 32.6782 165.955 32.6782C166.36 32.6782 166.709 32.6062 167.003 32.4622C167.301 32.3128 167.592 32.0888 167.875 31.7902V30.4062ZM163.347 26.8462C164.291 25.9822 165.427 25.5502 166.755 25.5502C167.235 25.5502 167.664 25.6302 168.043 25.7902C168.421 25.9448 168.741 26.1635 169.003 26.4462C169.264 26.7235 169.461 27.0568 169.595 27.4462C169.733 27.8355 169.803 28.2622 169.803 28.7262V33.9102H168.907C168.72 33.9102 168.576 33.8835 168.475 33.8302C168.373 33.7715 168.293 33.6568 168.235 33.4862L168.059 32.8942C167.851 33.0808 167.648 33.2462 167.451 33.3902C167.253 33.5288 167.048 33.6462 166.835 33.7422C166.621 33.8382 166.392 33.9102 166.147 33.9582C165.907 34.0115 165.64 34.0382 165.347 34.0382C165 34.0382 164.68 33.9928 164.387 33.9022C164.093 33.8062 163.84 33.6648 163.627 33.4782C163.413 33.2915 163.248 33.0595 163.131 32.7822C163.013 32.5048 162.955 32.1822 162.955 31.8142C162.955 31.6062 162.989 31.4008 163.059 31.1982C163.128 30.9902 163.24 30.7928 163.395 30.6062C163.555 30.4195 163.76 30.2435 164.011 30.0782C164.261 29.9128 164.568 29.7688 164.931 29.6462C165.299 29.5235 165.725 29.4248 166.211 29.3502C166.696 29.2702 167.251 29.2222 167.875 29.2062V28.7262C167.875 28.1768 167.757 27.7715 167.523 27.5102C167.288 27.2435 166.949 27.1102 166.507 27.1102C166.187 27.1102 165.92 27.1475 165.707 27.2222C165.499 27.2968 165.315 27.3822 165.155 27.4782C164.995 27.5688 164.848 27.6515 164.715 27.7262C164.587 27.8008 164.443 27.8382 164.283 27.8382C164.144 27.8382 164.027 27.8035 163.931 27.7342C163.835 27.6595 163.757 27.5742 163.699 27.4782L163.347 26.8462ZM173.528 27.1262C173.784 26.6355 174.088 26.2515 174.44 25.9742C174.792 25.6915 175.208 25.5502 175.688 25.5502C176.066 25.5502 176.37 25.6328 176.6 25.7982L176.472 27.2782C176.445 27.3742 176.405 27.4435 176.352 27.4862C176.304 27.5235 176.237 27.5422 176.152 27.5422C176.072 27.5422 175.952 27.5288 175.792 27.5022C175.637 27.4755 175.485 27.4622 175.336 27.4622C175.117 27.4622 174.922 27.4942 174.752 27.5582C174.581 27.6222 174.426 27.7155 174.288 27.8382C174.154 27.9555 174.034 28.0995 173.928 28.2702C173.826 28.4408 173.73 28.6355 173.64 28.8542V33.9102H171.664V25.7022H172.824C173.026 25.7022 173.168 25.7395 173.248 25.8142C173.328 25.8835 173.381 26.0115 173.408 26.1982L173.528 27.1262ZM179.48 26.7102C179.646 26.5448 179.819 26.3928 180 26.2542C180.187 26.1102 180.382 25.9902 180.584 25.8942C180.792 25.7928 181.014 25.7155 181.248 25.6622C181.483 25.6035 181.739 25.5742 182.016 25.5742C182.464 25.5742 182.862 25.6515 183.208 25.8062C183.555 25.9555 183.843 26.1688 184.072 26.4462C184.307 26.7182 184.483 27.0462 184.6 27.4302C184.723 27.8088 184.784 28.2275 184.784 28.6862V33.9102H182.808V28.6862C182.808 28.1848 182.694 27.7982 182.464 27.5262C182.235 27.2488 181.886 27.1102 181.416 27.1102C181.075 27.1102 180.755 27.1875 180.456 27.3422C180.158 27.4968 179.875 27.7075 179.608 27.9742V33.9102H177.632V25.7022H178.84C179.096 25.7022 179.264 25.8222 179.344 26.0622L179.48 26.7102ZM194.626 32.3662C195.191 32.2915 195.618 32.1022 195.906 31.7982C196.199 31.4888 196.346 31.0862 196.346 30.5902C196.346 30.3875 196.309 30.2115 196.234 30.0622C196.165 29.9075 196.063 29.7715 195.93 29.6542C195.802 29.5368 195.65 29.4355 195.474 29.3502C195.298 29.2648 195.106 29.1848 194.898 29.1102L194.626 32.3662ZM194.114 23.9102C193.815 23.9475 193.562 24.0115 193.354 24.1022C193.146 24.1875 192.975 24.2942 192.842 24.4222C192.709 24.5502 192.61 24.6942 192.546 24.8542C192.487 25.0142 192.458 25.1822 192.458 25.3582C192.458 25.5608 192.493 25.7395 192.562 25.8942C192.637 26.0435 192.735 26.1795 192.858 26.3022C192.986 26.4195 193.135 26.5262 193.306 26.6222C193.477 26.7128 193.663 26.7982 193.866 26.8782L194.114 23.9102ZM195.05 27.2622C195.434 27.3795 195.815 27.5102 196.194 27.6542C196.573 27.7928 196.911 27.9742 197.21 28.1982C197.514 28.4222 197.759 28.7022 197.946 29.0382C198.133 29.3688 198.226 29.7848 198.226 30.2862C198.226 30.7822 198.143 31.2488 197.978 31.6862C197.813 32.1182 197.57 32.5022 197.25 32.8382C196.93 33.1688 196.538 33.4408 196.074 33.6542C195.61 33.8622 195.079 33.9848 194.482 34.0222L194.386 35.1982C194.381 35.3208 194.327 35.4328 194.226 35.5342C194.13 35.6408 194.007 35.6942 193.858 35.6942H193.13L193.274 33.9822C192.65 33.8968 192.063 33.7262 191.514 33.4702C190.965 33.2142 190.498 32.8968 190.114 32.5182L190.722 31.6142C190.775 31.5342 190.845 31.4702 190.93 31.4222C191.021 31.3688 191.117 31.3422 191.218 31.3422C191.335 31.3422 191.461 31.3848 191.594 31.4702C191.727 31.5502 191.879 31.6462 192.05 31.7582C192.221 31.8648 192.415 31.9742 192.634 32.0862C192.853 32.1982 193.111 32.2808 193.41 32.3342L193.706 28.7582C193.327 28.6515 192.951 28.5262 192.578 28.3822C192.21 28.2382 191.877 28.0488 191.578 27.8142C191.285 27.5742 191.047 27.2728 190.866 26.9102C190.685 26.5475 190.594 26.0942 190.594 25.5502C190.594 25.1448 190.674 24.7502 190.834 24.3662C190.994 23.9768 191.229 23.6302 191.538 23.3262C191.853 23.0222 192.237 22.7715 192.69 22.5742C193.143 22.3768 193.663 22.2648 194.25 22.2382L194.338 21.2302C194.349 21.1022 194.402 20.9875 194.498 20.8862C194.594 20.7848 194.719 20.7342 194.874 20.7342H195.602L195.474 22.3022C196.039 22.3928 196.527 22.5555 196.938 22.7902C197.349 23.0195 197.703 23.2782 198.002 23.5662L197.522 24.2942C197.453 24.4008 197.381 24.4808 197.306 24.5342C197.231 24.5875 197.141 24.6142 197.034 24.6142C196.954 24.6142 196.858 24.5902 196.746 24.5422C196.634 24.4888 196.509 24.4275 196.37 24.3582C196.231 24.2835 196.074 24.2088 195.898 24.1342C195.727 24.0595 195.538 23.9982 195.33 23.9502L195.05 27.2622ZM207.139 32.4302V33.9102H200.739V32.4302H203.083V25.6862C203.083 25.4195 203.091 25.1448 203.107 24.8622L201.443 26.2542C201.347 26.3288 201.251 26.3768 201.155 26.3982C201.065 26.4142 200.977 26.4142 200.891 26.3982C200.811 26.3822 200.739 26.3555 200.675 26.3182C200.611 26.2755 200.563 26.2302 200.531 26.1822L199.907 25.3262L203.435 22.3262H205.059V32.4302H207.139ZM215.055 25.7022V33.9102H213.071V25.7022H215.055ZM215.327 23.3102C215.327 23.4808 215.293 23.6408 215.223 23.7902C215.154 23.9395 215.061 24.0702 214.943 24.1822C214.831 24.2942 214.698 24.3848 214.543 24.4542C214.389 24.5182 214.223 24.5502 214.047 24.5502C213.877 24.5502 213.714 24.5182 213.559 24.4542C213.41 24.3848 213.279 24.2942 213.167 24.1822C213.055 24.0702 212.965 23.9395 212.895 23.7902C212.831 23.6408 212.799 23.4808 212.799 23.3102C212.799 23.1342 212.831 22.9688 212.895 22.8142C212.965 22.6595 213.055 22.5262 213.167 22.4142C213.279 22.3022 213.41 22.2142 213.559 22.1502C213.714 22.0808 213.877 22.0462 214.047 22.0462C214.223 22.0462 214.389 22.0808 214.543 22.1502C214.698 22.2142 214.831 22.3022 214.943 22.4142C215.061 22.5262 215.154 22.6595 215.223 22.8142C215.293 22.9688 215.327 23.1342 215.327 23.3102ZM218.918 26.7102C219.083 26.5448 219.256 26.3928 219.438 26.2542C219.624 26.1102 219.819 25.9902 220.022 25.8942C220.23 25.7928 220.451 25.7155 220.686 25.6622C220.92 25.6035 221.176 25.5742 221.454 25.5742C221.902 25.5742 222.299 25.6515 222.646 25.8062C222.992 25.9555 223.28 26.1688 223.51 26.4462C223.744 26.7182 223.92 27.0462 224.038 27.4302C224.16 27.8088 224.222 28.2275 224.222 28.6862V33.9102H222.246V28.6862C222.246 28.1848 222.131 27.7982 221.902 27.5262C221.672 27.2488 221.323 27.1102 220.854 27.1102C220.512 27.1102 220.192 27.1875 219.894 27.3422C219.595 27.4968 219.312 27.7075 219.046 27.9742V33.9102H217.07V25.7022H218.278C218.534 25.7022 218.702 25.8222 218.782 26.0622L218.918 26.7102ZM20.784 49.8462C21.1893 49.8462 21.5413 49.7955 21.84 49.6942C22.144 49.5928 22.392 49.4542 22.584 49.2782C22.7813 49.0968 22.928 48.8835 23.024 48.6382C23.12 48.3928 23.168 48.1235 23.168 47.8302C23.168 47.2435 22.9733 46.7928 22.584 46.4782C22.2 46.1635 21.6107 46.0062 20.816 46.0062H19.44V49.8462H20.784ZM26.32 55.9102H24.376C24.008 55.9102 23.7413 55.7662 23.576 55.4782L21.144 51.7742C21.0533 51.6355 20.952 51.5368 20.84 51.4782C20.7333 51.4195 20.5733 51.3902 20.36 51.3902H19.44V55.9102H17.288V44.3422H20.816C21.6 44.3422 22.272 44.4248 22.832 44.5902C23.3973 44.7502 23.8587 44.9768 24.216 45.2702C24.5787 45.5635 24.8453 45.9155 25.016 46.3262C25.1867 46.7315 25.272 47.1795 25.272 47.6702C25.272 48.0595 25.2133 48.4275 25.096 48.7742C24.984 49.1208 24.8187 49.4355 24.6 49.7182C24.3867 50.0008 24.12 50.2488 23.8 50.4622C23.4853 50.6755 23.1253 50.8435 22.72 50.9662C22.8587 51.0462 22.9867 51.1422 23.104 51.2542C23.2213 51.3608 23.328 51.4888 23.424 51.6382L26.32 55.9102ZM32.014 50.8622C32.014 50.6062 31.9767 50.3662 31.902 50.1422C31.8327 49.9128 31.726 49.7128 31.582 49.5422C31.438 49.3715 31.254 49.2382 31.03 49.1422C30.8113 49.0408 30.5553 48.9902 30.262 48.9902C29.6913 48.9902 29.2407 49.1528 28.91 49.4782C28.5847 49.8035 28.3767 50.2648 28.286 50.8622H32.014ZM28.246 52.0542C28.278 52.4755 28.3527 52.8408 28.47 53.1502C28.5873 53.4542 28.742 53.7075 28.934 53.9102C29.126 54.1075 29.3527 54.2568 29.614 54.3582C29.8807 54.4542 30.174 54.5022 30.494 54.5022C30.814 54.5022 31.0887 54.4648 31.318 54.3902C31.5527 54.3155 31.7553 54.2328 31.926 54.1422C32.102 54.0515 32.254 53.9688 32.382 53.8942C32.5153 53.8195 32.6433 53.7822 32.766 53.7822C32.9313 53.7822 33.054 53.8435 33.134 53.9662L33.702 54.6862C33.4833 54.9422 33.238 55.1582 32.966 55.3342C32.694 55.5048 32.4087 55.6435 32.11 55.7502C31.8167 55.8515 31.5153 55.9235 31.206 55.9662C30.902 56.0088 30.606 56.0302 30.318 56.0302C29.7473 56.0302 29.2167 55.9368 28.726 55.7502C28.2353 55.5582 27.8087 55.2782 27.446 54.9102C27.0833 54.5368 26.798 54.0782 26.59 53.5342C26.382 52.9848 26.278 52.3502 26.278 51.6302C26.278 51.0702 26.3687 50.5448 26.55 50.0542C26.7313 49.5582 26.99 49.1288 27.326 48.7662C27.6673 48.3982 28.0807 48.1075 28.566 47.8942C29.0567 47.6808 29.6087 47.5742 30.222 47.5742C30.7393 47.5742 31.2167 47.6568 31.654 47.8222C32.0913 47.9875 32.4673 48.2302 32.782 48.5502C33.0967 48.8648 33.342 49.2542 33.518 49.7182C33.6993 50.1768 33.79 50.7022 33.79 51.2942C33.79 51.5928 33.758 51.7955 33.694 51.9022C33.63 52.0035 33.5073 52.0542 33.326 52.0542H28.246ZM46.8835 47.7022L44.2755 55.9102H42.6915C42.5102 55.9102 42.3848 55.7928 42.3155 55.5582L40.8435 50.8142C40.7955 50.6542 40.7502 50.4968 40.7075 50.3422C40.6702 50.1822 40.6382 50.0222 40.6115 49.8622C40.5795 50.0222 40.5422 50.1848 40.4995 50.3502C40.4622 50.5102 40.4195 50.6702 40.3715 50.8302L38.8755 55.5582C38.8115 55.7928 38.6702 55.9102 38.4515 55.9102H36.9315L34.3315 47.7022H35.9075C36.0515 47.7022 36.1742 47.7368 36.2755 47.8062C36.3768 47.8755 36.4435 47.9635 36.4755 48.0702L37.6515 52.4542C37.7102 52.6942 37.7608 52.9288 37.8035 53.1582C37.8515 53.3875 37.8915 53.6168 37.9235 53.8462C37.9822 53.6168 38.0435 53.3875 38.1075 53.1582C38.1768 52.9288 38.2488 52.6942 38.3235 52.4542L39.6835 48.0542C39.7155 47.9475 39.7768 47.8595 39.8675 47.7902C39.9635 47.7208 40.0782 47.6862 40.2115 47.6862H41.0835C41.2222 47.6862 41.3395 47.7208 41.4355 47.7902C41.5368 47.8595 41.6035 47.9475 41.6355 48.0542L42.9555 52.4542C43.0248 52.6942 43.0888 52.9315 43.1475 53.1662C43.2115 53.3955 43.2728 53.6248 43.3315 53.8542C43.4008 53.4008 43.4995 52.9342 43.6275 52.4542L44.8355 48.0702C44.8728 47.9635 44.9395 47.8755 45.0355 47.8062C45.1315 47.7368 45.2462 47.7022 45.3795 47.7022H46.8835ZM52.2339 52.4062C51.6632 52.4328 51.1832 52.4835 50.7939 52.5582C50.4045 52.6275 50.0925 52.7182 49.8579 52.8302C49.6232 52.9422 49.4552 53.0728 49.3539 53.2222C49.2525 53.3715 49.2019 53.5342 49.2019 53.7102C49.2019 54.0568 49.3032 54.3048 49.5059 54.4542C49.7139 54.6035 49.9832 54.6782 50.3139 54.6782C50.7192 54.6782 51.0685 54.6062 51.3619 54.4622C51.6605 54.3128 51.9512 54.0888 52.2339 53.7902V52.4062ZM47.7059 48.8462C48.6499 47.9822 49.7859 47.5502 51.1139 47.5502C51.5939 47.5502 52.0232 47.6302 52.4019 47.7902C52.7805 47.9448 53.1005 48.1635 53.3619 48.4462C53.6232 48.7235 53.8205 49.0568 53.9539 49.4462C54.0925 49.8355 54.1619 50.2622 54.1619 50.7262V55.9102H53.2659C53.0792 55.9102 52.9352 55.8835 52.8339 55.8302C52.7325 55.7715 52.6525 55.6568 52.5939 55.4862L52.4179 54.8942C52.2099 55.0808 52.0072 55.2462 51.8099 55.3902C51.6125 55.5288 51.4072 55.6462 51.1939 55.7422C50.9805 55.8382 50.7512 55.9102 50.5059 55.9582C50.2659 56.0115 49.9992 56.0382 49.7059 56.0382C49.3592 56.0382 49.0392 55.9928 48.7459 55.9022C48.4525 55.8062 48.1992 55.6648 47.9859 55.4782C47.7725 55.2915 47.6072 55.0595 47.4899 54.7822C47.3725 54.5048 47.3139 54.1822 47.3139 53.8142C47.3139 53.6062 47.3485 53.4008 47.4179 53.1982C47.4872 52.9902 47.5992 52.7928 47.7539 52.6062C47.9139 52.4195 48.1192 52.2435 48.3699 52.0782C48.6205 51.9128 48.9272 51.7688 49.2899 51.6462C49.6579 51.5235 50.0845 51.4248 50.5699 51.3502C51.0552 51.2702 51.6099 51.2222 52.2339 51.2062V50.7262C52.2339 50.1768 52.1165 49.7715 51.8819 49.5102C51.6472 49.2435 51.3085 49.1102 50.8659 49.1102C50.5459 49.1102 50.2792 49.1475 50.0659 49.2222C49.8579 49.2968 49.6739 49.3822 49.5139 49.4782C49.3539 49.5688 49.2072 49.6515 49.0739 49.7262C48.9459 49.8008 48.8019 49.8382 48.6419 49.8382C48.5032 49.8382 48.3859 49.8035 48.2899 49.7342C48.1939 49.6595 48.1165 49.5742 48.0579 49.4782L47.7059 48.8462ZM57.8869 49.1262C58.1429 48.6355 58.4469 48.2515 58.7989 47.9742C59.1509 47.6915 59.5669 47.5502 60.0469 47.5502C60.4255 47.5502 60.7295 47.6328 60.9589 47.7982L60.8309 49.2782C60.8042 49.3742 60.7642 49.4435 60.7109 49.4862C60.6629 49.5235 60.5962 49.5422 60.5109 49.5422C60.4309 49.5422 60.3109 49.5288 60.1509 49.5022C59.9962 49.4755 59.8442 49.4622 59.6949 49.4622C59.4762 49.4622 59.2815 49.4942 59.1109 49.5582C58.9402 49.6222 58.7855 49.7155 58.6469 49.8382C58.5135 49.9555 58.3935 50.0995 58.2869 50.2702C58.1855 50.4408 58.0895 50.6355 57.9989 50.8542V55.9102H56.0229V47.7022H57.1829C57.3855 47.7022 57.5269 47.7395 57.6069 47.8142C57.6869 47.8835 57.7402 48.0115 57.7669 48.1982L57.8869 49.1262ZM66.9249 49.7982C66.7009 49.5262 66.4555 49.3342 66.1889 49.2222C65.9275 49.1102 65.6449 49.0542 65.3409 49.0542C65.0422 49.0542 64.7729 49.1102 64.5329 49.2222C64.2929 49.3342 64.0875 49.5048 63.9169 49.7342C63.7462 49.9582 63.6155 50.2462 63.5249 50.5982C63.4342 50.9448 63.3889 51.3555 63.3889 51.8302C63.3889 52.3102 63.4262 52.7182 63.5009 53.0542C63.5809 53.3848 63.6929 53.6568 63.8369 53.8702C63.9809 54.0782 64.1569 54.2302 64.3649 54.3262C64.5729 54.4168 64.8049 54.4622 65.0609 54.4622C65.4715 54.4622 65.8209 54.3768 66.1089 54.2062C66.3969 54.0355 66.6689 53.7928 66.9249 53.4782V49.7982ZM68.9009 44.0222V55.9102H67.6929C67.4315 55.9102 67.2662 55.7902 67.1969 55.5502L67.0289 54.7582C66.6982 55.1368 66.3169 55.4435 65.8849 55.6782C65.4582 55.9128 64.9595 56.0302 64.3889 56.0302C63.9409 56.0302 63.5302 55.9368 63.1569 55.7502C62.7835 55.5635 62.4609 55.2942 62.1889 54.9422C61.9222 54.5848 61.7142 54.1448 61.5649 53.6222C61.4209 53.0995 61.3489 52.5022 61.3489 51.8302C61.3489 51.2222 61.4315 50.6568 61.5969 50.1342C61.7622 49.6115 61.9995 49.1582 62.3089 48.7742C62.6182 48.3902 62.9889 48.0915 63.4209 47.8782C63.8529 47.6595 64.3382 47.5502 64.8769 47.5502C65.3355 47.5502 65.7275 47.6222 66.0529 47.7662C66.3782 47.9102 66.6689 48.1048 66.9249 48.3502V44.0222H68.9009ZM75.859 49.3022C75.8057 49.3875 75.7497 49.4488 75.691 49.4862C75.6323 49.5182 75.5577 49.5342 75.467 49.5342C75.371 49.5342 75.267 49.5075 75.155 49.4542C75.0483 49.4008 74.923 49.3422 74.779 49.2782C74.635 49.2088 74.4697 49.1475 74.283 49.0942C74.1017 49.0408 73.8857 49.0142 73.635 49.0142C73.2457 49.0142 72.939 49.0968 72.715 49.2622C72.4963 49.4275 72.387 49.6435 72.387 49.9102C72.387 50.0862 72.443 50.2355 72.555 50.3582C72.6723 50.4755 72.8243 50.5795 73.011 50.6702C73.203 50.7608 73.419 50.8435 73.659 50.9182C73.899 50.9875 74.1417 51.0648 74.387 51.1502C74.6377 51.2355 74.883 51.3342 75.123 51.4462C75.363 51.5528 75.5763 51.6915 75.763 51.8622C75.955 52.0275 76.107 52.2275 76.219 52.4622C76.3363 52.6968 76.395 52.9795 76.395 53.3102C76.395 53.7048 76.323 54.0702 76.179 54.4062C76.0403 54.7368 75.8323 55.0248 75.555 55.2702C75.2777 55.5102 74.9337 55.6995 74.523 55.8382C74.1177 55.9715 73.6483 56.0382 73.115 56.0382C72.8323 56.0382 72.555 56.0115 72.283 55.9582C72.0163 55.9102 71.7577 55.8408 71.507 55.7502C71.2617 55.6595 71.0323 55.5528 70.819 55.4302C70.611 55.3075 70.427 55.1742 70.267 55.0302L70.723 54.2782C70.7817 54.1875 70.851 54.1182 70.931 54.0702C71.011 54.0222 71.1123 53.9982 71.235 53.9982C71.3577 53.9982 71.4723 54.0328 71.579 54.1022C71.691 54.1715 71.819 54.2462 71.963 54.3262C72.107 54.4062 72.275 54.4808 72.467 54.5502C72.6643 54.6195 72.9123 54.6542 73.211 54.6542C73.4457 54.6542 73.6457 54.6275 73.811 54.5742C73.9817 54.5155 74.1203 54.4408 74.227 54.3502C74.339 54.2595 74.419 54.1555 74.467 54.0382C74.5203 53.9155 74.547 53.7902 74.547 53.6622C74.547 53.4702 74.4883 53.3128 74.371 53.1902C74.259 53.0675 74.107 52.9608 73.915 52.8702C73.7283 52.7795 73.5123 52.6995 73.267 52.6302C73.027 52.5555 72.779 52.4755 72.523 52.3902C72.2723 52.3048 72.0243 52.2062 71.779 52.0942C71.539 51.9768 71.323 51.8302 71.131 51.6542C70.9443 51.4782 70.7923 51.2622 70.675 51.0062C70.563 50.7502 70.507 50.4408 70.507 50.0782C70.507 49.7422 70.5737 49.4222 70.707 49.1182C70.8403 48.8142 71.035 48.5502 71.291 48.3262C71.5523 48.0968 71.875 47.9155 72.259 47.7822C72.6483 47.6435 73.0963 47.5742 73.603 47.5742C74.1683 47.5742 74.683 47.6675 75.147 47.8542C75.611 48.0408 75.9977 48.2862 76.307 48.5902L75.859 49.3022ZM83.8209 47.7022V55.9102H81.8369V47.7022H83.8209ZM84.0929 45.3102C84.0929 45.4808 84.0582 45.6408 83.9889 45.7902C83.9195 45.9395 83.8262 46.0702 83.7089 46.1822C83.5969 46.2942 83.4635 46.3848 83.3089 46.4542C83.1542 46.5182 82.9889 46.5502 82.8129 46.5502C82.6422 46.5502 82.4795 46.5182 82.3249 46.4542C82.1755 46.3848 82.0449 46.2942 81.9329 46.1822C81.8209 46.0702 81.7302 45.9395 81.6609 45.7902C81.5969 45.6408 81.5649 45.4808 81.5649 45.3102C81.5649 45.1342 81.5969 44.9688 81.6609 44.8142C81.7302 44.6595 81.8209 44.5262 81.9329 44.4142C82.0449 44.3022 82.1755 44.2142 82.3249 44.1502C82.4795 44.0808 82.6422 44.0462 82.8129 44.0462C82.9889 44.0462 83.1542 44.0808 83.3089 44.1502C83.4635 44.2142 83.5969 44.3022 83.7089 44.4142C83.8262 44.5262 83.9195 44.6595 83.9889 44.8142C84.0582 44.9688 84.0929 45.1342 84.0929 45.3102ZM87.6834 48.7102C87.8487 48.5448 88.022 48.3928 88.2034 48.2542C88.39 48.1102 88.5847 47.9902 88.7874 47.8942C88.9954 47.7928 89.2167 47.7155 89.4514 47.6622C89.686 47.6035 89.942 47.5742 90.2194 47.5742C90.6674 47.5742 91.0647 47.6515 91.4114 47.8062C91.758 47.9555 92.046 48.1688 92.2754 48.4462C92.51 48.7182 92.686 49.0462 92.8034 49.4302C92.926 49.8088 92.9874 50.2275 92.9874 50.6862V55.9102H91.0114V50.6862C91.0114 50.1848 90.8967 49.7982 90.6674 49.5262C90.438 49.2488 90.0887 49.1102 89.6194 49.1102C89.278 49.1102 88.958 49.1875 88.6594 49.3422C88.3607 49.4968 88.078 49.7075 87.8114 49.9742V55.9102H85.8354V47.7022H87.0434C87.2994 47.7022 87.4674 47.8222 87.5474 48.0622L87.6834 48.7102ZM99.8746 49.3022C99.8213 49.3875 99.7653 49.4488 99.7066 49.4862C99.648 49.5182 99.5733 49.5342 99.4826 49.5342C99.3866 49.5342 99.2826 49.5075 99.1706 49.4542C99.064 49.4008 98.9386 49.3422 98.7946 49.2782C98.6506 49.2088 98.4853 49.1475 98.2986 49.0942C98.1173 49.0408 97.9013 49.0142 97.6506 49.0142C97.2613 49.0142 96.9546 49.0968 96.7306 49.2622C96.512 49.4275 96.4026 49.6435 96.4026 49.9102C96.4026 50.0862 96.4586 50.2355 96.5706 50.3582C96.688 50.4755 96.84 50.5795 97.0266 50.6702C97.2186 50.7608 97.4346 50.8435 97.6746 50.9182C97.9146 50.9875 98.1573 51.0648 98.4026 51.1502C98.6533 51.2355 98.8986 51.3342 99.1386 51.4462C99.3786 51.5528 99.592 51.6915 99.7786 51.8622C99.9706 52.0275 100.123 52.2275 100.235 52.4622C100.352 52.6968 100.411 52.9795 100.411 53.3102C100.411 53.7048 100.339 54.0702 100.195 54.4062C100.056 54.7368 99.848 55.0248 99.5706 55.2702C99.2933 55.5102 98.9493 55.6995 98.5386 55.8382C98.1333 55.9715 97.664 56.0382 97.1306 56.0382C96.848 56.0382 96.5706 56.0115 96.2986 55.9582C96.032 55.9102 95.7733 55.8408 95.5226 55.7502C95.2773 55.6595 95.048 55.5528 94.8346 55.4302C94.6266 55.3075 94.4426 55.1742 94.2826 55.0302L94.7386 54.2782C94.7973 54.1875 94.8666 54.1182 94.9466 54.0702C95.0266 54.0222 95.128 53.9982 95.2506 53.9982C95.3733 53.9982 95.488 54.0328 95.5946 54.1022C95.7066 54.1715 95.8346 54.2462 95.9786 54.3262C96.1226 54.4062 96.2906 54.4808 96.4826 54.5502C96.68 54.6195 96.928 54.6542 97.2266 54.6542C97.4613 54.6542 97.6613 54.6275 97.8266 54.5742C97.9973 54.5155 98.136 54.4408 98.2426 54.3502C98.3546 54.2595 98.4346 54.1555 98.4826 54.0382C98.536 53.9155 98.5626 53.7902 98.5626 53.6622C98.5626 53.4702 98.504 53.3128 98.3866 53.1902C98.2746 53.0675 98.1226 52.9608 97.9306 52.8702C97.744 52.7795 97.528 52.6995 97.2826 52.6302C97.0426 52.5555 96.7946 52.4755 96.5386 52.3902C96.288 52.3048 96.04 52.2062 95.7946 52.0942C95.5546 51.9768 95.3386 51.8302 95.1466 51.6542C94.96 51.4782 94.808 51.2622 94.6906 51.0062C94.5786 50.7502 94.5226 50.4408 94.5226 50.0782C94.5226 49.7422 94.5893 49.4222 94.7226 49.1182C94.856 48.8142 95.0506 48.5502 95.3066 48.3262C95.568 48.0968 95.8906 47.9155 96.2746 47.7822C96.664 47.6435 97.112 47.5742 97.6186 47.5742C98.184 47.5742 98.6986 47.6675 99.1626 47.8542C99.6266 48.0408 100.013 48.2862 100.323 48.5902L99.8746 49.3022ZM104.634 56.0382C103.919 56.0382 103.37 55.8382 102.986 55.4382C102.607 55.0328 102.418 54.4755 102.418 53.7662V49.1822H101.578C101.471 49.1822 101.381 49.1475 101.306 49.0782C101.231 49.0088 101.194 48.9048 101.194 48.7662V47.9822L102.514 47.7662L102.93 45.5262C102.957 45.4195 103.007 45.3368 103.082 45.2782C103.157 45.2195 103.253 45.1902 103.37 45.1902H104.394V47.7742H106.586V49.1822H104.394V53.6302C104.394 53.8862 104.455 54.0862 104.578 54.2302C104.706 54.3742 104.879 54.4462 105.098 54.4462C105.221 54.4462 105.322 54.4328 105.402 54.4062C105.487 54.3742 105.559 54.3422 105.618 54.3102C105.682 54.2782 105.738 54.2488 105.786 54.2222C105.834 54.1902 105.882 54.1742 105.93 54.1742C105.989 54.1742 106.037 54.1902 106.074 54.2222C106.111 54.2488 106.151 54.2915 106.194 54.3502L106.786 55.3102C106.498 55.5502 106.167 55.7315 105.794 55.8542C105.421 55.9768 105.034 56.0382 104.634 56.0382ZM112.187 52.4062C111.616 52.4328 111.136 52.4835 110.747 52.5582C110.358 52.6275 110.046 52.7182 109.811 52.8302C109.576 52.9422 109.408 53.0728 109.307 53.2222C109.206 53.3715 109.155 53.5342 109.155 53.7102C109.155 54.0568 109.256 54.3048 109.459 54.4542C109.667 54.6035 109.936 54.6782 110.267 54.6782C110.672 54.6782 111.022 54.6062 111.315 54.4622C111.614 54.3128 111.904 54.0888 112.187 53.7902V52.4062ZM107.659 48.8462C108.603 47.9822 109.739 47.5502 111.067 47.5502C111.547 47.5502 111.976 47.6302 112.355 47.7902C112.734 47.9448 113.054 48.1635 113.315 48.4462C113.576 48.7235 113.774 49.0568 113.907 49.4462C114.046 49.8355 114.115 50.2622 114.115 50.7262V55.9102H113.219C113.032 55.9102 112.888 55.8835 112.787 55.8302C112.686 55.7715 112.606 55.6568 112.547 55.4862L112.371 54.8942C112.163 55.0808 111.96 55.2462 111.763 55.3902C111.566 55.5288 111.36 55.6462 111.147 55.7422C110.934 55.8382 110.704 55.9102 110.459 55.9582C110.219 56.0115 109.952 56.0382 109.659 56.0382C109.312 56.0382 108.992 55.9928 108.699 55.9022C108.406 55.8062 108.152 55.6648 107.939 55.4782C107.726 55.2915 107.56 55.0595 107.443 54.7822C107.326 54.5048 107.267 54.1822 107.267 53.8142C107.267 53.6062 107.302 53.4008 107.371 53.1982C107.44 52.9902 107.552 52.7928 107.707 52.6062C107.867 52.4195 108.072 52.2435 108.323 52.0782C108.574 51.9128 108.88 51.7688 109.243 51.6462C109.611 51.5235 110.038 51.4248 110.523 51.3502C111.008 51.2702 111.563 51.2222 112.187 51.2062V50.7262C112.187 50.1768 112.07 49.7715 111.835 49.5102C111.6 49.2435 111.262 49.1102 110.819 49.1102C110.499 49.1102 110.232 49.1475 110.019 49.2222C109.811 49.2968 109.627 49.3822 109.467 49.4782C109.307 49.5688 109.16 49.6515 109.027 49.7262C108.899 49.8008 108.755 49.8382 108.595 49.8382C108.456 49.8382 108.339 49.8035 108.243 49.7342C108.147 49.6595 108.07 49.5742 108.011 49.4782L107.659 48.8462ZM117.824 48.7102C117.989 48.5448 118.163 48.3928 118.344 48.2542C118.531 48.1102 118.725 47.9902 118.928 47.8942C119.136 47.7928 119.357 47.7155 119.592 47.6622C119.827 47.6035 120.083 47.5742 120.36 47.5742C120.808 47.5742 121.205 47.6515 121.552 47.8062C121.899 47.9555 122.187 48.1688 122.416 48.4462C122.651 48.7182 122.827 49.0462 122.944 49.4302C123.067 49.8088 123.128 50.2275 123.128 50.6862V55.9102H121.152V50.6862C121.152 50.1848 121.037 49.7982 120.808 49.5262C120.579 49.2488 120.229 49.1102 119.76 49.1102C119.419 49.1102 119.099 49.1875 118.8 49.3422C118.501 49.4968 118.219 49.7075 117.952 49.9742V55.9102H115.976V47.7022H117.184C117.44 47.7022 117.608 47.8222 117.688 48.0622L117.824 48.7102ZM127.634 56.0382C126.919 56.0382 126.37 55.8382 125.986 55.4382C125.607 55.0328 125.418 54.4755 125.418 53.7662V49.1822H124.578C124.471 49.1822 124.381 49.1475 124.306 49.0782C124.231 49.0088 124.194 48.9048 124.194 48.7662V47.9822L125.514 47.7662L125.93 45.5262C125.957 45.4195 126.007 45.3368 126.082 45.2782C126.157 45.2195 126.253 45.1902 126.37 45.1902H127.394V47.7742H129.586V49.1822H127.394V53.6302C127.394 53.8862 127.455 54.0862 127.578 54.2302C127.706 54.3742 127.879 54.4462 128.098 54.4462C128.221 54.4462 128.322 54.4328 128.402 54.4062C128.487 54.3742 128.559 54.3422 128.618 54.3102C128.682 54.2782 128.738 54.2488 128.786 54.2222C128.834 54.1902 128.882 54.1742 128.93 54.1742C128.989 54.1742 129.037 54.1902 129.074 54.2222C129.111 54.2488 129.151 54.2915 129.194 54.3502L129.786 55.3102C129.498 55.5502 129.167 55.7315 128.794 55.8542C128.421 55.9768 128.034 56.0382 127.634 56.0382ZM132.851 44.0222V55.9102H130.875V44.0222H132.851ZM142.276 47.7022L137.804 58.1662C137.745 58.3048 137.668 58.4088 137.572 58.4782C137.481 58.5528 137.34 58.5902 137.148 58.5902H135.676L137.212 55.2942L133.892 47.7022H135.628C135.782 47.7022 135.902 47.7395 135.988 47.8142C136.078 47.8888 136.145 47.9742 136.188 48.0702L137.932 52.3262C137.99 52.4702 138.038 52.6142 138.076 52.7582C138.118 52.9022 138.158 53.0488 138.196 53.1982C138.244 53.0488 138.292 52.9022 138.34 52.7582C138.388 52.6088 138.441 52.4622 138.5 52.3182L140.148 48.0702C140.19 47.9635 140.26 47.8755 140.356 47.8062C140.457 47.7368 140.569 47.7022 140.692 47.7022H142.276ZM145.465 44.3422V48.9182C145.465 49.4035 145.441 49.8808 145.393 50.3502C145.345 50.8142 145.284 51.3075 145.209 51.8302H143.865C143.791 51.3075 143.729 50.8142 143.681 50.3502C143.633 49.8808 143.609 49.4035 143.609 48.9182V44.3422H145.465ZM143.297 54.8222C143.297 54.6568 143.327 54.4995 143.385 54.3502C143.449 54.2008 143.535 54.0728 143.641 53.9662C143.753 53.8595 143.884 53.7742 144.033 53.7102C144.183 53.6462 144.343 53.6142 144.513 53.6142C144.679 53.6142 144.836 53.6462 144.985 53.7102C145.135 53.7742 145.263 53.8595 145.369 53.9662C145.481 54.0728 145.569 54.2008 145.633 54.3502C145.697 54.4995 145.729 54.6568 145.729 54.8222C145.729 54.9928 145.697 55.1528 145.633 55.3022C145.569 55.4462 145.481 55.5715 145.369 55.6782C145.263 55.7848 145.135 55.8675 144.985 55.9262C144.836 55.9902 144.679 56.0222 144.513 56.0222C144.343 56.0222 144.183 55.9902 144.033 55.9262C143.884 55.8675 143.753 55.7848 143.641 55.6782C143.535 55.5715 143.449 55.4462 143.385 55.3022C143.327 55.1528 143.297 54.9928 143.297 54.8222Z" fill="#333333"/>
<path d="M31.2396 92.9694V94.1104H25.5486V84.0794H26.8996V92.9694H31.2396ZM36.6861 89.7914C36.6861 89.502 36.6441 89.2384 36.5601 89.0004C36.4808 88.7577 36.3618 88.55 36.2031 88.3774C36.0491 88.2 35.8601 88.0647 35.6361 87.9714C35.4121 87.8734 35.1578 87.8244 34.8731 87.8244C34.2758 87.8244 33.8021 87.9994 33.4521 88.3494C33.1068 88.6947 32.8921 89.1754 32.8081 89.7914H36.6861ZM37.6941 93.1164C37.5401 93.303 37.3558 93.4664 37.1411 93.6064C36.9265 93.7417 36.6955 93.8537 36.4481 93.9424C36.2055 94.031 35.9535 94.0964 35.6921 94.1384C35.4308 94.185 35.1718 94.2084 34.9151 94.2084C34.4251 94.2084 33.9725 94.1267 33.5571 93.9634C33.1465 93.7954 32.7895 93.5527 32.4861 93.2354C32.1875 92.9134 31.9541 92.5167 31.7861 92.0454C31.6181 91.574 31.5341 91.0327 31.5341 90.4214C31.5341 89.9267 31.6088 89.4647 31.7581 89.0354C31.9121 88.606 32.1315 88.235 32.4161 87.9224C32.7008 87.605 33.0485 87.3577 33.4591 87.1804C33.8698 86.9984 34.3318 86.9074 34.8451 86.9074C35.2698 86.9074 35.6618 86.9797 36.0211 87.1244C36.3851 87.2644 36.6978 87.4697 36.9591 87.7404C37.2251 88.0064 37.4328 88.3377 37.5821 88.7344C37.7315 89.1264 37.8061 89.5744 37.8061 90.0784C37.8061 90.2744 37.7851 90.405 37.7431 90.4704C37.7011 90.5357 37.6218 90.5684 37.5051 90.5684H32.7661C32.7801 91.0164 32.8408 91.406 32.9481 91.7374C33.0601 92.0687 33.2141 92.3464 33.4101 92.5704C33.6061 92.7897 33.8395 92.9554 34.1101 93.0674C34.3808 93.1747 34.6841 93.2284 35.0201 93.2284C35.3328 93.2284 35.6011 93.1934 35.8251 93.1234C36.0538 93.0487 36.2498 92.9694 36.4131 92.8854C36.5765 92.8014 36.7118 92.7244 36.8191 92.6544C36.9311 92.5797 37.0268 92.5424 37.1061 92.5424C37.2088 92.5424 37.2881 92.582 37.3441 92.6614L37.6941 93.1164ZM43.1796 90.9184C42.6056 90.937 42.1156 90.9837 41.7096 91.0584C41.3083 91.1284 40.9793 91.2217 40.7226 91.3384C40.4706 91.455 40.2863 91.5927 40.1696 91.7514C40.0576 91.91 40.0016 92.0874 40.0016 92.2834C40.0016 92.47 40.0319 92.631 40.0926 92.7664C40.1533 92.9017 40.2349 93.0137 40.3376 93.1024C40.4449 93.1864 40.5686 93.2494 40.7086 93.2914C40.8533 93.3287 41.0073 93.3474 41.1706 93.3474C41.3899 93.3474 41.5906 93.3264 41.7726 93.2844C41.9546 93.2377 42.1249 93.1724 42.2836 93.0884C42.4469 93.0044 42.6009 92.904 42.7456 92.7874C42.8949 92.6707 43.0396 92.5377 43.1796 92.3884V90.9184ZM39.1546 88.0204C39.5466 87.6424 39.9689 87.36 40.4216 87.1734C40.8743 86.9867 41.3759 86.8934 41.9266 86.8934C42.3233 86.8934 42.6756 86.9587 42.9836 87.0894C43.2916 87.22 43.5506 87.402 43.7606 87.6354C43.9706 87.8687 44.1293 88.151 44.2366 88.4824C44.3439 88.8137 44.3976 89.1777 44.3976 89.5744V94.1104H43.8446C43.7233 94.1104 43.6299 94.0917 43.5646 94.0544C43.4993 94.0124 43.4479 93.933 43.4106 93.8164L43.2706 93.1444C43.0839 93.317 42.9019 93.471 42.7246 93.6064C42.5473 93.737 42.3606 93.849 42.1646 93.9424C41.9686 94.031 41.7586 94.0987 41.5346 94.1454C41.3153 94.1967 41.0703 94.2224 40.7996 94.2224C40.5243 94.2224 40.2653 94.185 40.0226 94.1104C39.7799 94.031 39.5676 93.9144 39.3856 93.7604C39.2083 93.6064 39.0659 93.4127 38.9586 93.1794C38.8559 92.9414 38.8046 92.6614 38.8046 92.3394C38.8046 92.0594 38.8816 91.791 39.0356 91.5344C39.1896 91.273 39.4393 91.042 39.7846 90.8414C40.1299 90.6407 40.5803 90.4774 41.1356 90.3514C41.6909 90.2207 42.3723 90.146 43.1796 90.1274V89.5744C43.1796 89.0237 43.0606 88.6084 42.8226 88.3284C42.5846 88.0437 42.2369 87.9014 41.7796 87.9014C41.4716 87.9014 41.2126 87.941 41.0026 88.0204C40.7973 88.095 40.6176 88.1814 40.4636 88.2794C40.3143 88.3727 40.1836 88.459 40.0716 88.5384C39.9643 88.613 39.8569 88.6504 39.7496 88.6504C39.6656 88.6504 39.5933 88.6294 39.5326 88.5874C39.4719 88.5407 39.4206 88.4847 39.3786 88.4194L39.1546 88.0204ZM47.4786 88.4404C47.7026 87.955 47.9779 87.577 48.3046 87.3064C48.6313 87.031 49.0303 86.8934 49.5016 86.8934C49.6509 86.8934 49.7933 86.9097 49.9286 86.9424C50.0686 86.975 50.1923 87.0264 50.2996 87.0964L50.2086 88.0274C50.1806 88.144 50.1106 88.2024 49.9986 88.2024C49.9333 88.2024 49.8376 88.1884 49.7116 88.1604C49.5856 88.1324 49.4433 88.1184 49.2846 88.1184C49.0606 88.1184 48.8599 88.151 48.6826 88.2164C48.5099 88.2817 48.3536 88.3797 48.2136 88.5104C48.0783 88.6364 47.9546 88.795 47.8426 88.9864C47.7353 89.173 47.6373 89.3877 47.5486 89.6304V94.1104H46.2956V87.0194H47.0096C47.1449 87.0194 47.2383 87.045 47.2896 87.0964C47.3409 87.1477 47.3759 87.2364 47.3946 87.3624L47.4786 88.4404ZM52.5712 88.0484C52.7252 87.8757 52.8885 87.7194 53.0612 87.5794C53.2339 87.4394 53.4159 87.3204 53.6072 87.2224C53.8032 87.1197 54.0085 87.0427 54.2232 86.9914C54.4425 86.9354 54.6782 86.9074 54.9302 86.9074C55.3175 86.9074 55.6582 86.9727 55.9522 87.1034C56.2509 87.2294 56.4982 87.4114 56.6942 87.6494C56.8949 87.8827 57.0465 88.165 57.1492 88.4964C57.2519 88.8277 57.3032 89.194 57.3032 89.5954V94.1104H56.0502V89.5954C56.0502 89.0587 55.9265 88.6434 55.6792 88.3494C55.4365 88.0507 55.0655 87.9014 54.5662 87.9014C54.1975 87.9014 53.8522 87.99 53.5302 88.1674C53.2129 88.3447 52.9189 88.585 52.6482 88.8884V94.1104H51.3952V87.0194H52.1442C52.3215 87.0194 52.4312 87.1057 52.4732 87.2784L52.5712 88.0484ZM73.5149 84.0794V94.1104H72.3249V86.7394C72.3249 86.6414 72.3272 86.5364 72.3319 86.4244C72.3412 86.3124 72.3505 86.198 72.3599 86.0814L68.9159 92.3534C68.8085 92.5634 68.6452 92.6684 68.4259 92.6684H68.2299C68.0105 92.6684 67.8472 92.5634 67.7399 92.3534L64.2259 86.0534C64.2539 86.3007 64.2679 86.5294 64.2679 86.7394V94.1104H63.0779V84.0794H64.0789C64.2002 84.0794 64.2935 84.091 64.3589 84.1144C64.4242 84.1377 64.4872 84.203 64.5479 84.3104L68.0129 90.4844C68.0689 90.5964 68.1225 90.713 68.1739 90.8344C68.2299 90.9557 68.2812 91.0794 68.3279 91.2054C68.3745 91.0794 68.4235 90.9557 68.4749 90.8344C68.5262 90.7084 68.5822 90.5894 68.6429 90.4774L72.0449 84.3104C72.1009 84.203 72.1615 84.1377 72.2269 84.1144C72.2969 84.091 72.3925 84.0794 72.5139 84.0794H73.5149ZM78.5561 86.9074C79.0741 86.9074 79.5407 86.9937 79.9561 87.1664C80.3714 87.339 80.7261 87.584 81.0201 87.9014C81.3141 88.2187 81.5381 88.6037 81.6921 89.0564C81.8507 89.5044 81.9301 90.006 81.9301 90.5614C81.9301 91.1214 81.8507 91.6254 81.6921 92.0734C81.5381 92.5214 81.3141 92.904 81.0201 93.2214C80.7261 93.5387 80.3714 93.7837 79.9561 93.9564C79.5407 94.1244 79.0741 94.2084 78.5561 94.2084C78.0334 94.2084 77.5621 94.1244 77.1421 93.9564C76.7267 93.7837 76.3721 93.5387 76.0781 93.2214C75.7841 92.904 75.5577 92.5214 75.3991 92.0734C75.2451 91.6254 75.1681 91.1214 75.1681 90.5614C75.1681 90.006 75.2451 89.5044 75.3991 89.0564C75.5577 88.6037 75.7841 88.2187 76.0781 87.9014C76.3721 87.584 76.7267 87.339 77.1421 87.1664C77.5621 86.9937 78.0334 86.9074 78.5561 86.9074ZM78.5561 93.2354C79.2561 93.2354 79.7787 93.002 80.1241 92.5354C80.4694 92.064 80.6421 91.4084 80.6421 90.5684C80.6421 89.7237 80.4694 89.0657 80.1241 88.5944C79.7787 88.123 79.2561 87.8874 78.5561 87.8874C78.2014 87.8874 77.8911 87.948 77.6251 88.0694C77.3637 88.1907 77.1444 88.3657 76.9671 88.5944C76.7944 88.823 76.6637 89.1054 76.5751 89.4414C76.4911 89.7727 76.4491 90.1484 76.4491 90.5684C76.4491 91.4084 76.6217 92.064 76.9671 92.5354C77.3171 93.002 77.8467 93.2354 78.5561 93.2354ZM84.6934 88.4404C84.9174 87.955 85.1928 87.577 85.5194 87.3064C85.8461 87.031 86.2451 86.8934 86.7164 86.8934C86.8658 86.8934 87.0081 86.9097 87.1434 86.9424C87.2834 86.975 87.4071 87.0264 87.5144 87.0964L87.4234 88.0274C87.3954 88.144 87.3254 88.2024 87.2134 88.2024C87.1481 88.2024 87.0524 88.1884 86.9264 88.1604C86.8004 88.1324 86.6581 88.1184 86.4994 88.1184C86.2754 88.1184 86.0748 88.151 85.8974 88.2164C85.7248 88.2817 85.5684 88.3797 85.4284 88.5104C85.2931 88.6364 85.1694 88.795 85.0574 88.9864C84.9501 89.173 84.8521 89.3877 84.7634 89.6304V94.1104H83.5104V87.0194H84.2244C84.3598 87.0194 84.4531 87.045 84.5044 87.0964C84.5558 87.1477 84.5908 87.2364 84.6094 87.3624L84.6934 88.4404ZM93.0689 89.7914C93.0689 89.502 93.0269 89.2384 92.9429 89.0004C92.8636 88.7577 92.7446 88.55 92.5859 88.3774C92.4319 88.2 92.2429 88.0647 92.0189 87.9714C91.7949 87.8734 91.5406 87.8244 91.2559 87.8244C90.6586 87.8244 90.1849 87.9994 89.8349 88.3494C89.4896 88.6947 89.2749 89.1754 89.1909 89.7914H93.0689ZM94.0769 93.1164C93.9229 93.303 93.7386 93.4664 93.5239 93.6064C93.3093 93.7417 93.0783 93.8537 92.8309 93.9424C92.5883 94.031 92.3363 94.0964 92.0749 94.1384C91.8136 94.185 91.5546 94.2084 91.2979 94.2084C90.8079 94.2084 90.3553 94.1267 89.9399 93.9634C89.5293 93.7954 89.1723 93.5527 88.8689 93.2354C88.5703 92.9134 88.3369 92.5167 88.1689 92.0454C88.0009 91.574 87.9169 91.0327 87.9169 90.4214C87.9169 89.9267 87.9916 89.4647 88.1409 89.0354C88.2949 88.606 88.5143 88.235 88.7989 87.9224C89.0836 87.605 89.4313 87.3577 89.8419 87.1804C90.2526 86.9984 90.7146 86.9074 91.2279 86.9074C91.6526 86.9074 92.0446 86.9797 92.4039 87.1244C92.7679 87.2644 93.0806 87.4697 93.3419 87.7404C93.6079 88.0064 93.8156 88.3377 93.9649 88.7344C94.1143 89.1264 94.1889 89.5744 94.1889 90.0784C94.1889 90.2744 94.1679 90.405 94.1259 90.4704C94.0839 90.5357 94.0046 90.5684 93.8879 90.5684H89.1489C89.1629 91.0164 89.2236 91.406 89.3309 91.7374C89.4429 92.0687 89.5969 92.3464 89.7929 92.5704C89.9889 92.7897 90.2223 92.9554 90.4929 93.0674C90.7636 93.1747 91.0669 93.2284 91.4029 93.2284C91.7156 93.2284 91.9839 93.1934 92.2079 93.1234C92.4366 93.0487 92.6326 92.9694 92.7959 92.8854C92.9593 92.8014 93.0946 92.7244 93.2019 92.6544C93.3139 92.5797 93.4096 92.5424 93.4889 92.5424C93.5916 92.5424 93.6709 92.582 93.7269 92.6614L94.0769 93.1164Z" fill="#126CC5"/>
<g clip-path="url(#clip0_34_5088)">
<path d="M309.979 87.4342C309.979 86.2376 310.949 85.2676 312.146 85.2676H315.396C316.593 85.2676 317.563 86.2376 317.563 87.4342C317.563 88.6308 316.593 89.6009 315.396 89.6009H312.146C310.949 89.6009 309.979 88.6308 309.979 87.4342Z" fill="#333333"/>
<path d="M309.979 95.0173C309.979 93.8206 310.949 92.8506 312.146 92.8506H315.396C316.593 92.8506 317.563 93.8206 317.563 95.0173C317.563 96.2139 316.593 97.1839 315.396 97.1839H312.146C310.949 97.1839 309.979 96.2139 309.979 95.0173Z" fill="#333333"/>
<path d="M309.979 102.6C309.979 101.404 310.949 100.434 312.146 100.434H315.396C316.593 100.434 317.563 101.404 317.563 102.6C317.563 103.797 316.593 104.767 315.396 104.767H312.146C310.949 104.767 309.979 103.797 309.979 102.6Z" fill="#333333"/>
<path d="M325.688 111.267V80.2256C325.688 79.121 324.793 78.2256 323.688 78.2256H290.48C289.881 78.2256 289.396 78.7106 289.396 79.3089V114.517C289.396 115.116 289.881 115.601 290.48 115.601H321.355C323.748 115.601 325.688 113.66 325.688 111.267Z" fill="#FFEF9A"/>
<path d="M319.187 85.2676H286.146C285.547 85.2676 285.062 85.7526 285.062 86.3509V88.5176C285.062 89.1159 285.547 89.6009 286.146 89.6009H319.187C320.384 89.6009 321.354 88.6308 321.354 87.4342C321.354 86.2376 320.384 85.2676 319.187 85.2676Z" fill="#FFD644"/>
<path d="M319.187 93.9336H286.146C285.547 93.9336 285.062 94.4187 285.062 95.017V97.1836C285.062 97.7819 285.547 98.267 286.146 98.267H319.187C320.384 98.267 321.354 97.2969 321.354 96.1003C321.354 94.9037 320.384 93.9336 319.187 93.9336Z" fill="#FFD644"/>
<path d="M319.187 102.601H286.146C285.547 102.601 285.062 103.086 285.062 103.684V105.851C285.062 106.449 285.547 106.934 286.146 106.934H319.187C320.384 106.934 321.354 105.964 321.354 104.767C321.354 103.571 320.384 102.601 319.187 102.601Z" fill="#FFD644"/>
<path d="M324.396 72.2676H298.812C296.603 72.2676 294.812 74.0584 294.812 76.2676V76.9342C294.812 79.1434 296.603 80.9342 298.812 80.9342H324.396C326.605 80.9342 328.396 79.1434 328.396 76.9342V76.2676C328.396 74.0584 326.605 72.2676 324.396 72.2676Z" fill="#8A6702"/>
<path d="M251.479 51.1426C251.479 43.9629 257.299 38.1426 264.479 38.1426H295.895C303.074 38.1426 308.895 43.9629 308.895 51.1426V104.768C308.895 110.751 304.045 115.601 298.061 115.601H262.312C256.329 115.601 251.479 110.751 251.479 104.768V51.1426Z" fill="#2196F3"/>
<path d="M251.479 57.6426H308.895V97.7259H251.479V57.6426Z" fill="#126CC5"/>
<path d="M251.479 89.0586H308.895V93.392H251.479V89.0586Z" fill="#2196F3"/>
<path d="M260.688 63.0586H243.354V69.2758C237.369 71.306 233.062 76.971 233.062 83.642V111.267C233.062 113.66 235.003 115.6 237.396 115.6H266.646C269.039 115.6 270.979 113.66 270.979 111.267V83.642C270.979 76.971 266.672 71.306 260.688 69.2758V63.0586Z" fill="#1DD1A1"/>
<path d="M291.563 72.8089C291.563 76.9971 288.168 80.3923 283.98 80.3923C279.792 80.3923 276.396 76.9971 276.396 72.8089C276.396 68.6208 279.792 65.2256 283.98 65.2256C288.168 65.2256 291.563 68.6208 291.563 72.8089Z" fill="#BBDEFB"/>
<path d="M300.229 72.8092C300.229 74.0059 299.259 74.9759 298.062 74.9759C296.866 74.9759 295.896 74.0059 295.896 72.8092C295.896 71.6126 296.866 70.6426 298.062 70.6426C299.259 70.6426 300.229 71.6126 300.229 72.8092Z" fill="#BBDEFB"/>
<path d="M296.98 40.3089V31.1006H263.396V40.3089H296.98Z" fill="#2196F3"/>
<path d="M253.105 108.559H270.98V82.5586H253.105C250.712 82.5586 248.771 84.4987 248.771 86.892V104.225C248.771 106.618 250.712 108.559 253.105 108.559Z" fill="#B3EBD6"/>
<path d="M257.437 89.0592C257.437 90.2558 256.467 91.2259 255.27 91.2259C254.074 91.2259 253.104 90.2558 253.104 89.0592C253.104 87.8626 254.074 86.8926 255.27 86.8926C256.467 86.8926 257.437 87.8626 257.437 89.0592Z" fill="#10AC84"/>
<path d="M257.437 95.5592C257.437 96.7558 256.467 97.7259 255.27 97.7259C254.074 97.7259 253.104 96.7558 253.104 95.5592C253.104 94.3626 254.074 93.3926 255.27 93.3926C256.467 93.3926 257.437 94.3626 257.437 95.5592Z" fill="#10AC84"/>
<path d="M257.437 102.059C257.437 103.256 256.467 104.226 255.27 104.226C254.074 104.226 253.104 103.256 253.104 102.059C253.104 100.863 254.074 99.8926 255.27 99.8926C256.467 99.8926 257.437 100.863 257.437 102.059Z" fill="#10AC84"/>
<path d="M241.188 60.3503C241.188 59.1537 242.157 58.1836 243.354 58.1836H260.688C261.884 58.1836 262.854 59.1537 262.854 60.3503V64.6836C262.854 65.8803 261.884 66.8503 260.688 66.8503H243.354C242.158 66.8503 241.188 65.8803 241.188 64.6836V60.3503Z" fill="#1DD1A1"/>
<path d="M241.188 62.5176H262.854V64.6842C262.854 65.8809 261.884 66.8509 260.688 66.8509H243.354C242.158 66.8509 241.188 65.8809 241.188 64.6842V62.5176Z" fill="#10AC84"/>
<path d="M261.771 26.7673C261.771 25.5706 262.741 24.6006 263.938 24.6006H296.439C297.635 24.6006 298.605 25.5706 298.605 26.7673V33.2673C298.605 34.4639 297.635 35.4339 296.439 35.4339H263.938C262.741 35.4339 261.771 34.4639 261.771 33.2673V26.7673Z" fill="#2196F3"/>
<path d="M261.771 30.0176H298.605V33.2676C298.605 34.4642 297.635 35.4342 296.439 35.4342H263.938C262.741 35.4342 261.771 34.4642 261.771 33.2676V30.0176Z" fill="#B4EFFE"/>
<path d="M333.061 45.3714C333.061 52.1484 326.332 57.6422 318.031 57.6422C316.097 57.6422 314.249 57.3441 312.551 56.8011C311.19 56.3661 306.326 58.9855 305.192 58.2635C304.117 57.579 306.761 53.5663 305.948 52.6717C304.096 50.6316 303 48.106 303 45.3714C303 38.5944 309.729 33.1006 318.031 33.1006C326.332 33.1006 333.061 38.5944 333.061 45.3714Z" fill="white"/>
<path fill-rule="evenodd" clip-rule="evenodd" d="M315.35 50.6264C314.805 50.9145 314.13 50.7038 313.844 50.1558C313.729 49.9376 313.69 49.6876 313.732 49.4446L314.289 46.1756L311.927 43.8606C311.486 43.4284 311.477 42.7186 311.906 42.2753C312.078 42.0987 312.302 41.9838 312.545 41.9484L315.81 41.4714L317.27 38.4972C317.543 37.942 318.211 37.7141 318.764 37.9881C318.984 38.0972 319.162 38.2761 319.27 38.4972L320.73 41.4714L323.995 41.9484C324.605 42.0374 325.027 42.6063 324.939 43.219C324.903 43.463 324.789 43.6885 324.613 43.8606L322.251 46.1756L322.809 49.4446C322.913 50.0548 322.505 50.6344 321.898 50.739C321.656 50.7807 321.408 50.7411 321.19 50.6264L318.27 49.083L315.35 50.6264Z" fill="#F38A00"/>
<path d="M199 88.6546C199 98.7134 208.988 106.868 221.309 106.868C224.18 106.868 226.923 106.425 229.443 105.619C231.462 104.974 238.683 108.862 240.365 107.79C241.961 106.774 238.037 100.818 239.243 99.4903C241.993 96.4622 243.619 92.7134 243.619 88.6546C243.619 78.5957 233.631 70.4414 221.309 70.4414C208.988 70.4414 199 78.5957 199 88.6546Z" fill="white"/>
<path d="M234.572 87.8225L226.995 81.1739C226.838 81.0365 226.595 81.0748 226.481 81.2493C225.304 83.0487 222.74 85.7483 219.926 85.5879C214.817 85.2967 211.04 83.4267 207.445 91.3396C207.23 91.8136 207.329 92.3687 207.681 92.7523L214.488 100.171C214.663 100.362 214.987 100.295 215.083 100.055C215.792 98.2966 218.5 92.9716 224.948 94.1308C229.527 94.9538 233.767 91.2706 234.76 88.4798C234.843 88.244 234.76 87.9876 234.572 87.8225Z" fill="#2E7D32"/>
<path d="M225.419 89.4216C225.435 90.48 223.881 91.3615 221.948 91.3903C220.015 91.4192 218.436 90.5846 218.42 89.5262C218.404 88.4677 219.958 87.5863 221.891 87.5574C223.824 87.5286 225.403 88.3632 225.419 89.4216Z" fill="#C8E6C9"/>
<path d="M236.079 85.6819L229.893 77.7225C229.765 77.5579 229.52 77.5497 229.375 77.6994C227.879 79.2443 224.852 81.4113 222.119 80.7226C217.156 79.472 213.8 76.9226 208.776 84.0146C208.475 84.4394 208.468 85.0032 208.741 85.4464L214.025 94.0171C214.16 94.237 214.491 94.2326 214.631 94.0155C215.66 92.4223 219.324 87.7043 225.437 90.0599C229.778 91.7325 234.638 88.9161 236.139 86.3629C236.266 86.1472 236.232 85.8795 236.079 85.6819Z" fill="#47A84A"/>
<path d="M221.422 86.505C223.296 86.9774 225.026 86.5282 225.284 85.5017C225.543 84.4753 224.233 83.2602 222.359 82.7879C220.484 82.3155 218.755 82.7647 218.496 83.7912C218.238 84.8176 219.548 86.0327 221.422 86.505Z" fill="#FFD644"/>
<path d="M211.501 85.9567C212.104 86.3862 213.044 86.1006 213.602 85.3188C214.159 84.537 214.123 83.5549 213.52 83.1254C212.918 82.6959 211.978 82.9815 211.42 83.7633C210.863 84.5451 210.899 85.5272 211.501 85.9567Z" fill="#FFEF9A"/>
<path d="M230.765 87.0871C231.426 87.5588 232.369 87.3712 232.871 86.668C233.372 85.9649 233.242 85.0124 232.581 84.5407C231.919 84.0689 230.976 84.2565 230.475 84.9597C229.974 85.6629 230.103 86.6153 230.765 87.0871Z" fill="#FFEF9A"/>
</g>
<defs>
<clipPath id="clip0_34_5088">
<rect width="151" height="104" fill="white" transform="translate(191 18.1006)"/>
</clipPath>
</defs>
</svg>
