<svg width="24" height="24" viewBox="0 0 24 24" fill="none" xmlns="http://www.w3.org/2000/svg">
<g clip-path="url(#clip0_188_7863)">
<mask id="mask0_188_7863" style="mask-type:luminance" maskUnits="userSpaceOnUse" x="2" y="2" width="20" height="20">
<path d="M12 2C6.486 2 2 6.486 2 12C2 17.514 6.486 22 12 22C17.514 22 22 17.514 22 12C22 6.486 17.514 2 12 2ZM12 3.538C12.26 3.538 12.515 3.554 12.77 3.578V4.308H14.308V3.866C16.198 4.404 17.82 5.58 18.923 7.15V9.692L19.693 11.231V12H20.461C20.461 12.281 20.446 12.56 20.42 12.835C20.412 12.909 20.397 12.98 20.388 13.053C20.362 13.255 20.336 13.456 20.296 13.654C20.282 13.728 20.262 13.8 20.246 13.874C20.201 14.069 20.153 14.264 20.095 14.454C20.075 14.519 20.052 14.583 20.03 14.647C19.966 14.843 19.897 15.037 19.818 15.226C19.795 15.281 19.77 15.335 19.746 15.389C19.66 15.586 19.57 15.779 19.47 15.966C19.446 16.012 19.42 16.056 19.395 16.1C19.287 16.294 19.173 16.482 19.051 16.666L18.977 16.776C18.847 16.965 18.711 17.148 18.567 17.325C18.543 17.354 18.522 17.382 18.497 17.41C18.349 17.59 18.191 17.76 18.027 17.927L17.957 18.001C17.79 18.166 17.616 18.325 17.436 18.475C17.41 18.497 17.388 18.519 17.362 18.54C17.182 18.688 16.993 18.825 16.802 18.958C16.772 18.978 16.744 19.002 16.715 19.022C16.531 19.146 16.339 19.259 16.145 19.368C15.242 19.875 14.238 20.224 13.167 20.37L16.253 18.044L17.099 17.198L18.154 15.077V14.307L16.615 13.539H15.846L14.308 12H12.769L12 12.77V13.539L11.23 14.308V15.846L12.77 17.076L11.249 20.424C6.934 20.041 3.539 16.412 3.539 12C3.539 9.378 4.738 7.032 6.615 5.478V5.846L5.846 6.616V8.307L6.616 11.231L10.461 12.769H11.231V12L8.923 11.23V9.693H11.231L12 7.77L13.539 6.616V5.847L11.23 4.308L10.124 3.755C10.728 3.618 11.354 3.538 11.999 3.538H12ZM11.23 10.461V11.231H12.77V10.461H11.23Z" fill="white"/>
</mask>
<g mask="url(#mask0_188_7863)">
<path d="M12 2C6.486 2 2 6.486 2 12C2 17.514 6.486 22 12 22C17.514 22 22 17.514 22 12C22 6.486 17.514 2 12 2ZM12 3.538C12.26 3.538 12.515 3.554 12.77 3.578V4.308H14.308V3.866C16.198 4.404 17.82 5.58 18.923 7.15V9.692L19.693 11.231V12H20.461C20.461 12.281 20.446 12.56 20.42 12.835C20.412 12.909 20.397 12.98 20.388 13.053C20.362 13.255 20.336 13.456 20.296 13.654C20.282 13.728 20.262 13.8 20.246 13.874C20.201 14.069 20.153 14.264 20.095 14.454C20.075 14.519 20.052 14.583 20.03 14.647C19.966 14.843 19.897 15.037 19.818 15.226C19.795 15.281 19.77 15.335 19.746 15.389C19.66 15.586 19.57 15.779 19.47 15.966C19.446 16.012 19.42 16.056 19.395 16.1C19.287 16.294 19.173 16.482 19.051 16.666L18.977 16.776C18.847 16.965 18.711 17.148 18.567 17.325C18.543 17.354 18.522 17.382 18.497 17.41C18.349 17.59 18.191 17.76 18.027 17.927L17.957 18.001C17.79 18.166 17.616 18.325 17.436 18.475C17.41 18.497 17.388 18.519 17.362 18.54C17.182 18.688 16.993 18.825 16.802 18.958C16.772 18.978 16.744 19.002 16.715 19.022C16.531 19.146 16.339 19.259 16.145 19.368C15.242 19.875 14.238 20.224 13.167 20.37L16.253 18.044L17.099 17.198L18.154 15.077V14.307L16.615 13.539H15.846L14.308 12H12.769L12 12.77V13.539L11.23 14.308V15.846L12.77 17.076L11.249 20.424C6.934 20.041 3.539 16.412 3.539 12C3.539 9.378 4.738 7.032 6.615 5.478V5.846L5.846 6.616V8.307L6.616 11.231L10.461 12.769H11.231V12L8.923 11.23V9.693H11.231L12 7.77L13.539 6.616V5.847L11.23 4.308L10.124 3.755C10.728 3.618 11.354 3.538 11.999 3.538H12ZM11.23 10.461V11.231H12.77V10.461H11.23Z" fill="#666666"/>
</g>
</g>
<defs>
<clipPath id="clip0_188_7863">
<rect width="24" height="24" fill="white"/>
</clipPath>
</defs>
</svg>
