<svg width="24" height="24" viewBox="0 0 24 24" fill="none" xmlns="http://www.w3.org/2000/svg">
<path d="M5 20.674L5.003 17.432C3.104 15.76 2 13.463 2 11C2 6.002 6.502 2 12 2C17.498 2 22 6.002 22 11C22 15.999 17.498 20 12 20C10.9 20 9.12 20.578 6.73 21.752C6.564 21.832 6.383 21.875 6.2 21.875C5.536 21.875 5 21.336 5 20.674ZM7.001 19.414C9.09 18.474 10.742 18 12 18C16.443 18 20 14.838 20 11C20 7.162 16.443 4 12 4C7.557 4 4 7.162 4 11C4 12.993 4.96 14.859 6.625 16.183L7.004 16.483V16.967L7 19.413L7.001 19.414ZM7.5 12.5C6.672 12.5 6 11.83 6 11C6 10.172 6.672 9.5 7.5 9.5C8.328 9.5 9 10.172 9 11C9 11.829 8.328 12.5 7.5 12.5ZM12 12.5C11.172 12.5 10.5 11.829 10.5 11C10.5 10.172 11.172 9.5 12 9.5C12.828 9.5 13.5 10.172 13.5 11C13.5 11.829 12.828 12.5 12 12.5ZM16.5 12.5C15.672 12.5 15 11.829 15 11C15 10.172 15.672 9.5 16.5 9.5C17.328 9.5 18 10.172 18 11C18 11.829 17.328 12.5 16.5 12.5Z" fill="#666666"/>
</svg>
