<svg width="24" height="24" viewBox="0 0 24 24" fill="none" xmlns="http://www.w3.org/2000/svg">
<g clip-path="url(#clip0_188_7878)">
<path d="M12 2.5C15.239 2.5 17.878 5.066 17.996 8.275L18 8.5L18.001 9.671C19.166 10.083 20.001 11.194 20.001 12.501V19.501C20.001 21.157 18.657 22.501 17.001 22.501H7C5.342 22.501 4 21.157 4 19.501V12.501C4 10.843 5.342 9.501 7 9.501H16V8.501C16 6.358 14.315 4.609 12.199 4.505L12 4.5C10.726 4.5 9.553 5.099 8.8 6.099C8.469 6.539 7.842 6.629 7.4 6.297C6.96 5.965 6.87 5.337 7.202 4.897C8.328 3.4 10.09 2.5 12 2.5ZM17 11.5H7C6.448 11.5 6 11.948 6 12.5V19.5C6 20.052 6.448 20.5 7 20.5H17C17.552 20.5 18 20.052 18 19.5V12.5C18 11.948 17.552 11.5 17 11.5ZM12 14C13.105 14 14 14.895 14 16C14 17.105 13.105 18 12 18C10.896 18 10 17.105 10 16C10 14.895 10.896 14 12 14Z" fill="#666666"/>
</g>
<defs>
<clipPath id="clip0_188_7878">
<rect width="24" height="24" fill="white"/>
</clipPath>
</defs>
</svg>
