<svg width="16" height="19" viewBox="0 0 16 19" fill="none" xmlns="http://www.w3.org/2000/svg">
<path d="M13 3C12.7348 3 12.4804 2.89464 12.2929 2.70711C12.1054 2.51957 12 2.26522 12 2C12 1.73478 12.1054 1.48043 12.2929 1.29289C12.4804 1.10536 12.7348 1 13 1C13.7956 1 14.5587 1.31607 15.1213 1.87868C15.6839 2.44129 16 3.20435 16 4V16C16 16.7956 15.6839 17.5587 15.1213 18.1213C14.5587 18.6839 13.7956 19 13 19H3C2.20435 19 1.44129 18.6839 0.87868 18.1213C0.316071 17.5587 0 16.7956 0 16V4C0 3.20435 0.316071 2.44129 0.87868 1.87868C1.44129 1.31607 2.20435 1 3 1C3.26522 1 3.51957 1.10536 3.70711 1.29289C3.89464 1.48043 4 1.73478 4 2C4 2.26522 3.89464 2.51957 3.70711 2.70711C3.51957 2.89464 3.26522 3 3 3C2.73478 3 2.48043 3.10536 2.29289 3.29289C2.10536 3.48043 2 3.73478 2 4V16C2 16.2652 2.10536 16.5196 2.29289 16.7071C2.48043 16.8946 2.73478 17 3 17H13C13.2652 17 13.5196 16.8946 13.7071 16.7071C13.8946 16.5196 14 16.2652 14 16V4C14 3.73478 13.8946 3.48043 13.7071 3.29289C13.5196 3.10536 13.2652 3 13 3ZM6 0H10C10.2652 0 10.5196 0.105357 10.7071 0.292893C10.8946 0.48043 11 0.734784 11 1C11 1.26522 10.8946 1.51957 10.7071 1.70711C10.5196 1.89464 10.2652 2 10 2H6C5.73478 2 5.48043 1.89464 5.29289 1.70711C5.10536 1.51957 5 1.26522 5 1C5 0.734784 5.10536 0.48043 5.29289 0.292893C5.48043 0.105357 5.73478 0 6 0ZM5 7H11C11.2652 7 11.5196 7.10536 11.7071 7.29289C11.8946 7.48043 12 7.73478 12 8C12 8.26522 11.8946 8.51957 11.7071 8.70711C11.5196 8.89464 11.2652 9 11 9H5C4.73478 9 4.48043 8.89464 4.29289 8.70711C4.10536 8.51957 4 8.26522 4 8C4 7.73478 4.10536 7.48043 4.29289 7.29289C4.48043 7.10536 4.73478 7 5 7ZM5 11H8C8.26522 11 8.51957 11.1054 8.70711 11.2929C8.89464 11.4804 9 11.7348 9 12C9 12.2652 8.89464 12.5196 8.70711 12.7071C8.51957 12.8946 8.26522 13 8 13H5C4.73478 13 4.48043 12.8946 4.29289 12.7071C4.10536 12.5196 4 12.2652 4 12C4 11.7348 4.10536 11.4804 4.29289 11.2929C4.48043 11.1054 4.73478 11 5 11Z" fill="#666666"/>
</svg>
