<svg width="24" height="25" viewBox="0 0 24 25" fill="none" xmlns="http://www.w3.org/2000/svg">
<g clip-path="url(#clip0_188_7886)">
<path d="M7.5 16C8.88 16 10 17.12 10 18.5C10 19.88 8.88 21 7.5 21C6.475 21 5.594 20.383 5.208 19.5H3C2.448 19.5 2 19.052 2 18.5C2 17.987 2.386 17.565 2.883 17.507L3 17.5H5.208C5.594 16.617 6.475 16 7.5 16ZM21 17.5C21.552 17.5 22 17.948 22 18.5C22 19.013 21.614 19.436 21.117 19.493L21 19.5H13C12.448 19.5 12 19.052 12 18.5C12 17.987 12.386 17.565 12.883 17.507L13 17.5H21ZM7.5 18C7.224 18 7 18.224 7 18.5C7 18.776 7.224 19 7.5 19C7.776 19 8 18.776 8 18.5C8 18.224 7.776 18 7.5 18ZM14.5 10C15.88 10 17 11.12 17 12.5C17 13.88 15.88 15 14.5 15C13.475 15 12.594 14.383 12.208 13.5H3C2.448 13.5 2 13.052 2 12.5C2 11.987 2.386 11.565 2.883 11.507L3 11.5H12.208C12.594 10.617 13.475 10 14.5 10ZM21 11.5C21.552 11.5 22 11.948 22 12.5C22 13.013 21.614 13.436 21.116 13.493L21 13.5H20C19.448 13.5 19 13.052 19 12.5C19 11.987 19.386 11.565 19.883 11.507L20 11.5H21ZM14.5 12C14.224 12 14 12.224 14 12.5C14 12.776 14.224 13 14.5 13C14.776 13 15 12.776 15 12.5C15 12.224 14.776 12 14.5 12ZM7.5 4C8.88 4 10 5.12 10 6.5C10 7.88 8.88 9 7.5 9C6.475 9 5.594 8.383 5.208 7.5H3C2.448 7.5 2 7.052 2 6.5C2 5.987 2.386 5.565 2.883 5.507L3 5.5H5.208C5.594 4.617 6.475 4 7.5 4ZM21 5.5C21.552 5.5 22 5.948 22 6.5C22 7.013 21.614 7.436 21.117 7.493L21 7.5H13C12.448 7.5 12 7.052 12 6.5C12 5.987 12.386 5.565 12.883 5.507L13 5.5H21ZM7.5 6C7.224 6 7 6.224 7 6.5C7 6.776 7.224 7 7.5 7C7.776 7 8 6.776 8 6.5C8 6.224 7.776 6 7.5 6Z" fill="#666666"/>
</g>
<defs>
<clipPath id="clip0_188_7886">
<rect width="24" height="24" fill="white" transform="translate(0 0.5)"/>
</clipPath>
</defs>
</svg>
