<svg width="115" height="113" viewBox="0 0 115 113" fill="none" xmlns="http://www.w3.org/2000/svg">
<path fill-rule="evenodd" clip-rule="evenodd" d="M51.4069 28.4136L66.7043 33.2206C69.3366 34.0297 71.1178 36.4791 71.0767 39.2325L70.9658 49.7759C70.9421 52.0417 69.0975 53.8673 66.8317 53.8665C66.3251 53.8673 65.824 53.7738 65.3513 53.591L51.418 48.2314V52.1691L52.2025 52.4446C59.1858 54.9851 59.1328 60.3217 59.1011 63.5066V63.5137L58.9151 94.475C58.8929 96.7051 57.7798 98.7833 55.9352 100.037C54.0907 101.291 51.7489 101.563 49.666 100.762L7.36649 84.4889C3.22212 82.8771 0.486911 78.895 0.467911 74.4498L0.201911 34.8538C0.197953 34.7327 0.209828 34.6116 0.239119 34.4936C0.413286 32.5991 2.13912 30.901 5.38574 29.4151C9.57841 27.5008 42.4555 13.6672 43.856 13.0846C45.5343 12.3776 47.4565 12.5573 48.9749 13.5643C50.4925 14.5713 51.4053 16.2718 51.4069 18.0934V28.4136ZM45.0926 16.0185C44.7474 16.161 10.857 30.4031 6.70783 32.3133C3.95916 33.5863 3.39154 34.5577 3.40737 34.834C3.4232 35.1095 4.08108 35.879 6.0072 36.5266H6.03412L45.4694 19.3229C46.2753 18.9714 47.2135 19.3395 47.565 20.1462C47.9172 20.9513 47.5491 21.8895 46.7432 22.2418L10.507 38.049L18.62 40.8404C18.6406 40.8325 18.6596 40.8214 18.6786 40.8087L45.475 29.3786C45.9998 29.1467 46.6086 29.2148 47.0694 29.5583C47.5293 29.9011 47.77 30.4648 47.698 31.034C47.6259 31.604 47.253 32.0909 46.7218 32.3086L23.0985 42.3897C32.262 45.5468 42.6732 49.1497 48.2228 51.0972V46.0139C48.2149 45.9395 48.2149 45.8651 48.2228 45.7907V29.7452C48.207 29.6328 48.207 29.518 48.2228 29.4056V18.0926C48.2205 16.8497 47.2166 15.8411 45.9737 15.8324C45.6705 15.834 45.3705 15.8973 45.0926 16.0185ZM55.917 63.4868L55.7318 94.4481C55.7152 95.6285 55.1254 96.7265 54.1508 97.3915C53.1763 98.0565 51.9389 98.2061 50.8337 97.7913L8.50649 81.517C5.58762 80.3826 3.66149 77.5761 3.6512 74.4443L3.41291 38.8929C3.92749 39.1454 4.45949 39.3616 5.00416 39.5405C9.71616 41.1317 50.7387 55.3105 51.1259 55.4585C55.9804 57.2097 55.9487 60.3985 55.917 63.4868ZM67.355 50.5185C67.6115 50.3443 67.7667 50.0546 67.7707 49.7443L67.8562 39.2008C67.8783 37.8574 67.0146 36.6596 65.7337 36.2558L51.4069 31.7513V44.8201L66.4818 50.6198C66.7716 50.7307 67.0977 50.6927 67.355 50.5185Z" fill="#CCCCCC"/>
<path fill-rule="evenodd" clip-rule="evenodd" d="M59.4774 38.213C60.429 37.8013 61.5143 37.8298 62.443 38.2922C63.3486 38.7355 64.0675 39.486 64.4696 40.4099C65.3721 42.4421 64.6026 44.7656 62.7565 45.5834C62.3226 45.7774 61.8524 45.8771 61.3766 45.8747C60.8256 45.8747 60.2809 45.7489 59.7853 45.509C58.8828 45.0609 58.1664 44.3096 57.7634 43.3865C56.8609 41.3543 57.6249 39.03 59.4774 38.213ZM61.1541 42.6384C61.2412 42.6907 61.3473 42.7041 61.4455 42.6756C61.6315 42.6067 61.759 42.1713 61.5405 41.7153C61.4455 41.4865 61.2729 41.2989 61.0528 41.1849C60.9879 41.1548 60.9182 41.1374 60.8462 41.1311C60.8161 41.1255 60.786 41.1255 60.7559 41.1311C60.581 41.2102 60.4535 41.6354 60.6609 42.108C60.7599 42.3352 60.934 42.522 61.1541 42.6384ZM39.1909 76.285C38.2892 74.252 39.054 71.9332 40.9009 71.1115C42.7518 70.2882 44.997 71.2595 45.8987 73.3076C46.312 74.2251 46.3895 75.2582 46.1164 76.2265C45.837 77.2263 45.13 78.0512 44.1847 78.4811C43.7509 78.6759 43.2807 78.7756 42.8049 78.7732C42.2539 78.7724 41.71 78.6466 41.2136 78.4067C40.3111 77.9594 39.5939 77.2081 39.1909 76.285ZM42.8848 75.5733C42.9719 75.5179 43.0329 75.4308 43.0542 75.3295C43.1097 75.0944 43.0843 74.8466 42.9798 74.6289C42.8745 74.3177 42.6077 74.089 42.2847 74.0296C42.2555 74.0232 42.2246 74.0232 42.1953 74.0296C42.0195 74.1087 41.8921 74.5339 42.0995 75.0057C42.1992 75.2337 42.3734 75.4205 42.5927 75.5361C42.6806 75.5884 42.7867 75.6018 42.8848 75.5733Z" fill="#CCCCCC"/>
<path d="M56.182 23.9819C56.5303 23.9819 56.8675 23.8663 57.1422 23.6525C57.8999 23.0881 58.7161 22.6075 59.5782 22.2196C60.3184 21.8238 60.6232 20.9213 60.2765 20.1573C59.9281 19.3926 59.047 19.03 58.2617 19.3285C57.185 19.8114 56.1653 20.413 55.2217 21.1216C54.6762 21.5356 54.4569 22.2513 54.6754 22.8989C54.8947 23.548 55.5027 23.9835 56.1875 23.9819H56.182ZM76.8334 23.2551C77.7058 23.8956 78.4887 24.6485 79.1632 25.4947C79.7111 26.1914 80.2059 26.93 80.6437 27.7019C80.8954 28.241 81.4274 28.5949 82.0227 28.6187C82.6181 28.6424 83.1762 28.3313 83.4699 27.8127C83.7636 27.295 83.7438 26.6569 83.4185 26.1582C82.9039 25.2272 82.3141 24.3405 81.657 23.5045C80.8075 22.4365 79.8187 21.4873 78.7175 20.6814C78.2576 20.345 77.6535 20.2792 77.1318 20.5096C76.6109 20.7392 76.2515 21.23 76.1897 21.7961C76.1288 22.3621 76.3742 22.9187 76.8334 23.2551ZM77.709 52.322C78.1594 52.3196 78.5877 52.1272 78.887 51.7915C79.1838 51.4622 79.4973 51.1495 79.8156 50.8526C81.1788 49.5899 82.3655 48.1499 83.344 46.5697C83.804 45.82 83.5689 44.8391 82.8192 44.3792C82.0687 43.9184 81.0878 44.1535 80.6278 44.904C79.8013 46.2396 78.7991 47.4572 77.6456 48.5227C77.2632 48.879 76.892 49.255 76.5365 49.6374C76.1193 50.1029 76.014 50.7695 76.2673 51.3419C76.5199 51.9142 77.0835 52.2847 77.709 52.2903V52.322ZM83.6465 68.1711C81.8106 68.3477 79.9723 67.8624 78.4626 66.8023C78.0035 66.4342 77.378 66.3495 76.8365 66.583C76.2958 66.8166 75.9277 67.3296 75.881 67.917C75.8335 68.5044 76.1145 69.0697 76.6109 69.3863C78.4697 70.7068 80.6983 71.4051 82.9783 71.3813C83.2807 71.3813 83.5887 71.3813 83.8911 71.3497C84.7698 71.2855 85.4301 70.52 85.366 69.6412C85.3018 68.7625 84.5363 68.1015 83.6575 68.1664L83.6465 68.1711ZM74.8281 54.8102C74.4299 54.6677 73.9913 54.689 73.6089 54.8703C73.2265 55.0516 72.932 55.377 72.7903 55.776C72.2623 57.2295 71.986 58.7614 71.9733 60.3075C71.9733 61.2781 72.096 62.2439 72.3391 63.1836C72.5227 63.8835 73.1545 64.3711 73.8781 64.3719C74.0166 64.3727 74.1536 64.3545 74.2866 64.3189C75.136 64.0956 75.6443 63.2264 75.4226 62.3769C75.2453 61.7016 75.1558 61.0057 75.1566 60.3075C75.1685 59.1247 75.3838 57.9523 75.7939 56.8424C76.0876 56.0151 75.6554 55.1055 74.8281 54.8102ZM73.3532 19.6839C73.4411 19.2707 73.3611 18.84 73.1315 18.4853C72.902 18.1315 72.5402 17.8829 72.1269 17.795C69.8073 17.3137 67.4244 17.2084 65.07 17.4823C64.5016 17.5456 64.0092 17.9074 63.7804 18.4323C63.5508 18.9564 63.6189 19.5628 63.9585 20.0235C64.2973 20.4843 64.857 20.7289 65.4255 20.6656C67.4395 20.4305 69.478 20.5175 71.4643 20.9252C71.5735 20.9514 71.686 20.9632 71.7984 20.9625C72.5544 20.9601 73.2044 20.4257 73.3532 19.6839ZM83.9702 31.5217C83.5515 31.593 83.1786 31.8289 82.934 32.1764C82.6901 32.5247 82.5951 32.9554 82.6703 33.3734C82.8603 34.4137 82.9561 35.4682 82.9569 36.5258C82.9577 37.4758 82.8777 38.4227 82.7186 39.3592C82.5674 40.2253 83.1469 41.0494 84.013 41.2006C84.104 41.2165 84.1967 41.226 84.2893 41.2267C85.0627 41.2252 85.723 40.6678 85.8544 39.9055C86.046 38.7892 86.1418 37.6587 86.141 36.525C86.1394 35.2797 86.0278 34.0368 85.8061 32.8113C85.6525 31.95 84.8332 31.3745 83.9702 31.5217ZM91.4784 64.5421C90.7461 65.1834 89.9616 65.7645 89.1335 66.2767C88.4115 66.7485 88.197 67.7088 88.6482 68.4427C89.0995 69.1773 90.0526 69.4188 90.7992 68.9889C91.7785 68.3825 92.7071 67.6977 93.5747 66.9401C94.003 66.5609 94.1962 65.9822 94.0822 65.4217C93.9682 64.8612 93.5637 64.4044 93.0214 64.2223C92.4783 64.041 91.8806 64.1629 91.4523 64.5421H91.4784Z" fill="#CCCCCC"/>
<path fill-rule="evenodd" clip-rule="evenodd" d="M113.871 53.0705C112.916 50.9472 110.188 50.0455 107.78 51.1174C107.428 51.275 107.096 51.4705 106.787 51.7009C105.335 50.0439 103.222 49.1161 101.02 49.1699C97.2149 49.1699 94.1211 51.6692 94.1211 54.7417C94.1211 57.5007 96.6101 59.7878 99.8678 60.2279C98.3502 63.4112 99.0405 66.9611 101.55 68.4098C102.275 68.8247 103.097 69.0408 103.932 69.036C104.707 69.0305 105.472 68.8682 106.182 68.5587C107.722 67.8652 108.998 66.6951 109.822 65.221C110.933 63.3938 111.208 61.1787 110.581 59.1347C110.803 59.0682 111.021 58.9882 111.234 58.8964C113.643 57.8244 114.826 55.2199 113.871 53.0705ZM97.3052 54.7409C97.3052 53.4734 99.0405 52.354 101.02 52.354C102.999 52.354 104.733 53.4734 104.733 54.7417C104.665 55.4439 104.251 56.0669 103.63 56.4018C103.423 56.5032 103.211 56.6092 103.009 56.7312C102.379 56.9956 101.702 57.1309 101.02 57.1294C99.0405 57.1294 97.3052 56.0139 97.3052 54.7409ZM104.957 65.6295C105.858 65.2036 106.6 64.5029 107.079 63.6289C108.055 61.915 107.955 59.8567 106.861 59.2194C106.621 59.0832 106.348 59.0135 106.071 59.0183C105.729 59.0262 105.391 59.1022 105.079 59.2407C104.908 59.3421 104.733 59.4371 104.548 59.5218C103.889 59.9619 103.344 60.5509 102.956 61.2413C101.964 62.9552 102.065 65.0191 103.168 65.6564C103.737 65.92 104.395 65.9097 104.957 65.6295Z" fill="#CCCCCC"/>
</svg>
