<svg width="640" height="98" viewBox="0 0 640 98" fill="none" xmlns="http://www.w3.org/2000/svg">
<path d="M207.629 25.459V35.49H206.271V30.926H200.86V35.49H199.502V25.459H200.86V29.932H206.271V25.459H207.629ZM213.537 32.298C212.963 32.3167 212.473 32.3633 212.067 32.438C211.666 32.508 211.337 32.6013 211.08 32.718C210.828 32.8347 210.644 32.9723 210.527 33.131C210.415 33.2897 210.359 33.467 210.359 33.663C210.359 33.8497 210.389 34.0107 210.45 34.146C210.511 34.2813 210.592 34.3933 210.695 34.482C210.802 34.566 210.926 34.629 211.066 34.671C211.211 34.7083 211.365 34.727 211.528 34.727C211.747 34.727 211.948 34.706 212.13 34.664C212.312 34.6173 212.482 34.552 212.641 34.468C212.804 34.384 212.958 34.2837 213.103 34.167C213.252 34.0503 213.397 33.9173 213.537 33.768V32.298ZM209.512 29.4C209.904 29.022 210.326 28.7397 210.779 28.553C211.232 28.3663 211.733 28.273 212.284 28.273C212.681 28.273 213.033 28.3383 213.341 28.469C213.649 28.5997 213.908 28.7817 214.118 29.015C214.328 29.2483 214.487 29.5307 214.594 29.862C214.701 30.1933 214.755 30.5573 214.755 30.954V35.49H214.202C214.081 35.49 213.987 35.4713 213.922 35.434C213.857 35.392 213.805 35.3127 213.768 35.196L213.628 34.524C213.441 34.6967 213.259 34.8507 213.082 34.986C212.905 35.1167 212.718 35.2287 212.522 35.322C212.326 35.4107 212.116 35.4783 211.892 35.525C211.673 35.5763 211.428 35.602 211.157 35.602C210.882 35.602 210.623 35.5647 210.38 35.49C210.137 35.4107 209.925 35.294 209.743 35.14C209.566 34.986 209.423 34.7923 209.316 34.559C209.213 34.321 209.162 34.041 209.162 33.719C209.162 33.439 209.239 33.1707 209.393 32.914C209.547 32.6527 209.797 32.4217 210.142 32.221C210.487 32.0203 210.938 31.857 211.493 31.731C212.048 31.6003 212.73 31.5257 213.537 31.507V30.954C213.537 30.4033 213.418 29.988 213.18 29.708C212.942 29.4233 212.594 29.281 212.137 29.281C211.829 29.281 211.57 29.3207 211.36 29.4C211.155 29.4747 210.975 29.561 210.821 29.659C210.672 29.7523 210.541 29.8387 210.429 29.918C210.322 29.9927 210.214 30.03 210.107 30.03C210.023 30.03 209.951 30.009 209.89 29.967C209.829 29.9203 209.778 29.8643 209.736 29.799L209.512 29.4ZM222.579 28.399L219.688 35.49H218.568L215.677 28.399H216.692C216.794 28.399 216.878 28.4247 216.944 28.476C217.009 28.5273 217.053 28.588 217.077 28.658L218.876 33.222C218.932 33.3947 218.981 33.5627 219.023 33.726C219.065 33.8893 219.104 34.0527 219.142 34.216C219.179 34.0527 219.219 33.8893 219.261 33.726C219.303 33.5627 219.354 33.3947 219.415 33.222L221.235 28.658C221.263 28.5833 221.309 28.5227 221.375 28.476C221.44 28.4247 221.517 28.399 221.606 28.399H222.579ZM228.276 31.171C228.276 30.8817 228.234 30.618 228.15 30.38C228.071 30.1373 227.952 29.9297 227.793 29.757C227.639 29.5797 227.45 29.4443 227.226 29.351C227.002 29.253 226.748 29.204 226.463 29.204C225.866 29.204 225.392 29.379 225.042 29.729C224.697 30.0743 224.482 30.555 224.398 31.171H228.276ZM229.284 34.496C229.13 34.6827 228.946 34.846 228.731 34.986C228.516 35.1213 228.285 35.2333 228.038 35.322C227.795 35.4107 227.543 35.476 227.282 35.518C227.021 35.5647 226.762 35.588 226.505 35.588C226.015 35.588 225.562 35.5063 225.147 35.343C224.736 35.175 224.379 34.9323 224.076 34.615C223.777 34.293 223.544 33.8963 223.376 33.425C223.208 32.9537 223.124 32.4123 223.124 31.801C223.124 31.3063 223.199 30.8443 223.348 30.415C223.502 29.9857 223.721 29.6147 224.006 29.302C224.291 28.9847 224.638 28.7373 225.049 28.56C225.46 28.378 225.922 28.287 226.435 28.287C226.86 28.287 227.252 28.3593 227.611 28.504C227.975 28.644 228.288 28.8493 228.549 29.12C228.815 29.386 229.023 29.7173 229.172 30.114C229.321 30.506 229.396 30.954 229.396 31.458C229.396 31.654 229.375 31.7847 229.333 31.85C229.291 31.9153 229.212 31.948 229.095 31.948H224.356C224.37 32.396 224.431 32.7857 224.538 33.117C224.65 33.4483 224.804 33.726 225 33.95C225.196 34.1693 225.429 34.335 225.7 34.447C225.971 34.5543 226.274 34.608 226.61 34.608C226.923 34.608 227.191 34.573 227.415 34.503C227.644 34.4283 227.84 34.349 228.003 34.265C228.166 34.181 228.302 34.104 228.409 34.034C228.521 33.9593 228.617 33.922 228.696 33.922C228.799 33.922 228.878 33.9617 228.934 34.041L229.284 34.496ZM239.128 30.079C238.904 29.7803 238.655 29.568 238.379 29.442C238.104 29.3113 237.798 29.246 237.462 29.246C236.804 29.246 236.298 29.4817 235.943 29.953C235.589 30.4243 235.411 31.0963 235.411 31.969C235.411 32.431 235.451 32.8277 235.53 33.159C235.61 33.4857 235.726 33.7563 235.88 33.971C236.034 34.181 236.223 34.335 236.447 34.433C236.671 34.531 236.926 34.58 237.21 34.58C237.621 34.58 237.978 34.4867 238.281 34.3C238.589 34.1133 238.872 33.8497 239.128 33.509V30.079ZM240.374 28.399V37.891H239.128V34.433C238.834 34.7783 238.496 35.0583 238.113 35.273C237.731 35.483 237.294 35.588 236.804 35.588C236.398 35.588 236.03 35.511 235.698 35.357C235.367 35.1983 235.085 34.9673 234.851 34.664C234.618 34.3607 234.438 33.9827 234.312 33.53C234.186 33.0773 234.123 32.557 234.123 31.969C234.123 31.4463 234.193 30.961 234.333 30.513C234.473 30.0603 234.674 29.6683 234.935 29.337C235.197 29.0057 235.516 28.7467 235.894 28.56C236.277 28.3687 236.706 28.273 237.182 28.273C237.644 28.273 238.036 28.3547 238.358 28.518C238.68 28.6813 238.965 28.91 239.212 29.204L239.296 28.658C239.343 28.4853 239.455 28.399 239.632 28.399H240.374ZM248.173 28.399V35.49H247.431C247.254 35.49 247.142 35.4037 247.095 35.231L246.997 34.468C246.689 34.8087 246.344 35.084 245.961 35.294C245.579 35.4993 245.14 35.602 244.645 35.602C244.258 35.602 243.915 35.539 243.616 35.413C243.322 35.2823 243.075 35.1003 242.874 34.867C242.674 34.6337 242.522 34.3513 242.419 34.02C242.321 33.6887 242.272 33.3223 242.272 32.921V28.399H243.518V32.921C243.518 33.4577 243.64 33.873 243.882 34.167C244.13 34.461 244.505 34.608 245.009 34.608C245.378 34.608 245.721 34.5217 246.038 34.349C246.36 34.1717 246.657 33.929 246.927 33.621V28.399H248.173ZM254.895 31.171C254.895 30.8817 254.853 30.618 254.769 30.38C254.69 30.1373 254.571 29.9297 254.412 29.757C254.258 29.5797 254.069 29.4443 253.845 29.351C253.621 29.253 253.367 29.204 253.082 29.204C252.485 29.204 252.011 29.379 251.661 29.729C251.316 30.0743 251.101 30.555 251.017 31.171H254.895ZM255.903 34.496C255.749 34.6827 255.565 34.846 255.35 34.986C255.135 35.1213 254.904 35.2333 254.657 35.322C254.414 35.4107 254.162 35.476 253.901 35.518C253.64 35.5647 253.381 35.588 253.124 35.588C252.634 35.588 252.181 35.5063 251.766 35.343C251.355 35.175 250.998 34.9323 250.695 34.615C250.396 34.293 250.163 33.8963 249.995 33.425C249.827 32.9537 249.743 32.4123 249.743 31.801C249.743 31.3063 249.818 30.8443 249.967 30.415C250.121 29.9857 250.34 29.6147 250.625 29.302C250.91 28.9847 251.257 28.7373 251.668 28.56C252.079 28.378 252.541 28.287 253.054 28.287C253.479 28.287 253.871 28.3593 254.23 28.504C254.594 28.644 254.907 28.8493 255.168 29.12C255.434 29.386 255.642 29.7173 255.791 30.114C255.94 30.506 256.015 30.954 256.015 31.458C256.015 31.654 255.994 31.7847 255.952 31.85C255.91 31.9153 255.831 31.948 255.714 31.948H250.975C250.989 32.396 251.05 32.7857 251.157 33.117C251.269 33.4483 251.423 33.726 251.619 33.95C251.815 34.1693 252.048 34.335 252.319 34.447C252.59 34.5543 252.893 34.608 253.229 34.608C253.542 34.608 253.81 34.573 254.034 34.503C254.263 34.4283 254.459 34.349 254.622 34.265C254.785 34.181 254.921 34.104 255.028 34.034C255.14 33.9593 255.236 33.922 255.315 33.922C255.418 33.922 255.497 33.9617 255.553 34.041L255.903 34.496ZM261.676 29.568C261.62 29.6707 261.533 29.722 261.417 29.722C261.347 29.722 261.267 29.6963 261.179 29.645C261.09 29.5937 260.98 29.5377 260.85 29.477C260.724 29.4117 260.572 29.3533 260.395 29.302C260.217 29.246 260.007 29.218 259.765 29.218C259.555 29.218 259.366 29.246 259.198 29.302C259.03 29.3533 258.885 29.4257 258.764 29.519C258.647 29.6123 258.556 29.722 258.491 29.848C258.43 29.9693 258.4 30.1023 258.4 30.247C258.4 30.429 258.451 30.5807 258.554 30.702C258.661 30.8233 258.801 30.9283 258.974 31.017C259.146 31.1057 259.342 31.185 259.562 31.255C259.781 31.3203 260.005 31.3927 260.234 31.472C260.467 31.5467 260.693 31.6307 260.913 31.724C261.132 31.8173 261.328 31.934 261.501 32.074C261.673 32.214 261.811 32.3867 261.914 32.592C262.021 32.7927 262.075 33.0353 262.075 33.32C262.075 33.6467 262.016 33.95 261.9 34.23C261.783 34.5053 261.61 34.7457 261.382 34.951C261.153 35.1517 260.873 35.3103 260.542 35.427C260.21 35.5437 259.828 35.602 259.394 35.602C258.899 35.602 258.451 35.5227 258.05 35.364C257.648 35.2007 257.308 34.993 257.028 34.741L257.322 34.265C257.359 34.2043 257.403 34.1577 257.455 34.125C257.506 34.0923 257.571 34.076 257.651 34.076C257.735 34.076 257.823 34.1087 257.917 34.174C258.01 34.2393 258.122 34.3117 258.253 34.391C258.388 34.4703 258.551 34.5427 258.743 34.608C258.934 34.6733 259.172 34.706 259.457 34.706C259.699 34.706 259.912 34.6757 260.094 34.615C260.276 34.5497 260.427 34.4633 260.549 34.356C260.67 34.2487 260.759 34.125 260.815 33.985C260.875 33.845 260.906 33.6957 260.906 33.537C260.906 33.341 260.852 33.18 260.745 33.054C260.642 32.9233 260.504 32.8137 260.332 32.725C260.159 32.6317 259.961 32.5523 259.737 32.487C259.517 32.417 259.291 32.3447 259.058 32.27C258.829 32.1953 258.603 32.1113 258.379 32.018C258.159 31.92 257.963 31.7987 257.791 31.654C257.618 31.5093 257.478 31.332 257.371 31.122C257.268 30.9073 257.217 30.6483 257.217 30.345C257.217 30.0743 257.273 29.8153 257.385 29.568C257.497 29.316 257.66 29.0967 257.875 28.91C258.089 28.7187 258.353 28.567 258.666 28.455C258.978 28.343 259.335 28.287 259.737 28.287C260.203 28.287 260.621 28.3617 260.99 28.511C261.363 28.6557 261.685 28.8563 261.956 29.113L261.676 29.568ZM270.182 35.49H268.936V29.442H265.282V33.698C265.282 33.9967 265.355 34.2183 265.499 34.363C265.644 34.5077 265.831 34.58 266.059 34.58C266.19 34.58 266.302 34.5637 266.395 34.531C266.493 34.4937 266.577 34.454 266.647 34.412C266.717 34.37 266.776 34.3327 266.822 34.3C266.874 34.2627 266.918 34.244 266.955 34.244C267.021 34.244 267.079 34.2837 267.13 34.363L267.494 34.958C267.28 35.1587 267.021 35.3173 266.717 35.434C266.414 35.546 266.101 35.602 265.779 35.602C265.219 35.602 264.788 35.4457 264.484 35.133C264.186 34.8203 264.036 34.37 264.036 33.782V29.442H263.182C263.108 29.442 263.045 29.421 262.993 29.379C262.942 29.3323 262.916 29.2623 262.916 29.169V28.672L264.078 28.518L264.365 26.334C264.379 26.264 264.41 26.208 264.456 26.166C264.508 26.1193 264.573 26.096 264.652 26.096H265.282V28.539H270.182V35.49ZM270.49 26.124C270.49 26.2453 270.465 26.3597 270.413 26.467C270.367 26.5697 270.301 26.6607 270.217 26.74C270.138 26.8193 270.045 26.8823 269.937 26.929C269.83 26.9757 269.716 26.999 269.594 26.999C269.473 26.999 269.359 26.9757 269.251 26.929C269.149 26.8823 269.058 26.8193 268.978 26.74C268.899 26.6607 268.836 26.5697 268.789 26.467C268.743 26.3597 268.719 26.2453 268.719 26.124C268.719 26.0027 268.743 25.8883 268.789 25.781C268.836 25.669 268.899 25.5733 268.978 25.494C269.058 25.41 269.149 25.3447 269.251 25.298C269.359 25.2513 269.473 25.228 269.594 25.228C269.716 25.228 269.83 25.2513 269.937 25.298C270.045 25.3447 270.138 25.41 270.217 25.494C270.301 25.5733 270.367 25.669 270.413 25.781C270.465 25.8883 270.49 26.0027 270.49 26.124ZM275.218 28.287C275.736 28.287 276.203 28.3733 276.618 28.546C277.034 28.7187 277.388 28.9637 277.682 29.281C277.976 29.5983 278.2 29.9833 278.354 30.436C278.513 30.884 278.592 31.3857 278.592 31.941C278.592 32.501 278.513 33.005 278.354 33.453C278.2 33.901 277.976 34.2837 277.682 34.601C277.388 34.9183 277.034 35.1633 276.618 35.336C276.203 35.504 275.736 35.588 275.218 35.588C274.696 35.588 274.224 35.504 273.804 35.336C273.389 35.1633 273.034 34.9183 272.74 34.601C272.446 34.2837 272.22 33.901 272.061 33.453C271.907 33.005 271.83 32.501 271.83 31.941C271.83 31.3857 271.907 30.884 272.061 30.436C272.22 29.9833 272.446 29.5983 272.74 29.281C273.034 28.9637 273.389 28.7187 273.804 28.546C274.224 28.3733 274.696 28.287 275.218 28.287ZM275.218 34.615C275.918 34.615 276.441 34.3817 276.786 33.915C277.132 33.4437 277.304 32.788 277.304 31.948C277.304 31.1033 277.132 30.4453 276.786 29.974C276.441 29.5027 275.918 29.267 275.218 29.267C274.864 29.267 274.553 29.3277 274.287 29.449C274.026 29.5703 273.807 29.7453 273.629 29.974C273.457 30.2027 273.326 30.485 273.237 30.821C273.153 31.1523 273.111 31.528 273.111 31.948C273.111 32.788 273.284 33.4437 273.629 33.915C273.979 34.3817 274.509 34.615 275.218 34.615ZM281.349 29.428C281.503 29.2553 281.666 29.099 281.839 28.959C282.011 28.819 282.193 28.7 282.385 28.602C282.581 28.4993 282.786 28.4223 283.001 28.371C283.22 28.315 283.456 28.287 283.708 28.287C284.095 28.287 284.436 28.3523 284.73 28.483C285.028 28.609 285.276 28.791 285.472 29.029C285.672 29.2623 285.824 29.5447 285.927 29.876C286.029 30.2073 286.081 30.5737 286.081 30.975V35.49H284.828V30.975C284.828 30.4383 284.704 30.023 284.457 29.729C284.214 29.4303 283.843 29.281 283.344 29.281C282.975 29.281 282.63 29.3697 282.308 29.547C281.99 29.7243 281.696 29.9647 281.426 30.268V35.49H280.173V28.399H280.922C281.099 28.399 281.209 28.4853 281.251 28.658L281.349 29.428ZM292.109 29.568C292.053 29.6707 291.967 29.722 291.85 29.722C291.78 29.722 291.701 29.6963 291.612 29.645C291.524 29.5937 291.414 29.5377 291.283 29.477C291.157 29.4117 291.006 29.3533 290.828 29.302C290.651 29.246 290.441 29.218 290.198 29.218C289.988 29.218 289.799 29.246 289.631 29.302C289.463 29.3533 289.319 29.4257 289.197 29.519C289.081 29.6123 288.99 29.722 288.924 29.848C288.864 29.9693 288.833 30.1023 288.833 30.247C288.833 30.429 288.885 30.5807 288.987 30.702C289.095 30.8233 289.235 30.9283 289.407 31.017C289.58 31.1057 289.776 31.185 289.995 31.255C290.215 31.3203 290.439 31.3927 290.667 31.472C290.901 31.5467 291.127 31.6307 291.346 31.724C291.566 31.8173 291.762 31.934 291.934 32.074C292.107 32.214 292.245 32.3867 292.347 32.592C292.455 32.7927 292.508 33.0353 292.508 33.32C292.508 33.6467 292.45 33.95 292.333 34.23C292.217 34.5053 292.044 34.7457 291.815 34.951C291.587 35.1517 291.307 35.3103 290.975 35.427C290.644 35.5437 290.261 35.602 289.827 35.602C289.333 35.602 288.885 35.5227 288.483 35.364C288.082 35.2007 287.741 34.993 287.461 34.741L287.755 34.265C287.793 34.2043 287.837 34.1577 287.888 34.125C287.94 34.0923 288.005 34.076 288.084 34.076C288.168 34.076 288.257 34.1087 288.35 34.174C288.444 34.2393 288.556 34.3117 288.686 34.391C288.822 34.4703 288.985 34.5427 289.176 34.608C289.368 34.6733 289.606 34.706 289.89 34.706C290.133 34.706 290.345 34.6757 290.527 34.615C290.709 34.5497 290.861 34.4633 290.982 34.356C291.104 34.2487 291.192 34.125 291.248 33.985C291.309 33.845 291.339 33.6957 291.339 33.537C291.339 33.341 291.286 33.18 291.178 33.054C291.076 32.9233 290.938 32.8137 290.765 32.725C290.593 32.6317 290.394 32.5523 290.17 32.487C289.951 32.417 289.725 32.3447 289.491 32.27C289.263 32.1953 289.036 32.1113 288.812 32.018C288.593 31.92 288.397 31.7987 288.224 31.654C288.052 31.5093 287.912 31.332 287.804 31.122C287.702 30.9073 287.65 30.6483 287.65 30.345C287.65 30.0743 287.706 29.8153 287.818 29.568C287.93 29.316 288.094 29.0967 288.308 28.91C288.523 28.7187 288.787 28.567 289.099 28.455C289.412 28.343 289.769 28.287 290.17 28.287C290.637 28.287 291.055 28.3617 291.423 28.511C291.797 28.6557 292.119 28.8563 292.389 29.113L292.109 29.568ZM293.452 26.355C293.596 26.2197 293.755 26.0913 293.928 25.97C294.105 25.8487 294.296 25.7413 294.502 25.648C294.712 25.5547 294.936 25.4823 295.174 25.431C295.416 25.375 295.678 25.347 295.958 25.347C296.326 25.347 296.667 25.4007 296.98 25.508C297.297 25.6153 297.57 25.767 297.799 25.963C298.027 26.159 298.207 26.397 298.338 26.677C298.468 26.957 298.534 27.272 298.534 27.622C298.534 27.9767 298.48 28.2823 298.373 28.539C298.27 28.7957 298.137 29.022 297.974 29.218C297.815 29.4093 297.64 29.5773 297.449 29.722C297.262 29.862 297.085 29.995 296.917 30.121C296.749 30.247 296.604 30.373 296.483 30.499C296.366 30.625 296.298 30.765 296.28 30.919L296.154 31.99H295.3L295.216 30.828C295.197 30.618 295.237 30.436 295.335 30.282C295.433 30.1233 295.561 29.9763 295.72 29.841C295.878 29.701 296.053 29.5657 296.245 29.435C296.436 29.2997 296.613 29.1503 296.777 28.987C296.945 28.8237 297.085 28.6393 297.197 28.434C297.309 28.224 297.365 27.9743 297.365 27.685C297.365 27.4843 297.325 27.3023 297.246 27.139C297.166 26.9757 297.059 26.838 296.924 26.726C296.788 26.6093 296.627 26.5207 296.441 26.46C296.259 26.3993 296.063 26.369 295.853 26.369C295.568 26.369 295.323 26.404 295.118 26.474C294.917 26.544 294.747 26.621 294.607 26.705C294.467 26.789 294.352 26.866 294.264 26.936C294.18 27.006 294.11 27.041 294.054 27.041C293.937 27.041 293.846 26.9873 293.781 26.88L293.452 26.355ZM294.817 34.72C294.817 34.5987 294.838 34.4843 294.88 34.377C294.926 34.2697 294.987 34.1763 295.062 34.097C295.141 34.0177 295.234 33.9547 295.342 33.908C295.449 33.8613 295.563 33.838 295.685 33.838C295.806 33.838 295.92 33.8613 296.028 33.908C296.135 33.9547 296.228 34.0177 296.308 34.097C296.387 34.1763 296.45 34.2697 296.497 34.377C296.543 34.4843 296.567 34.5987 296.567 34.72C296.567 34.846 296.543 34.9627 296.497 35.07C296.45 35.1727 296.387 35.2637 296.308 35.343C296.228 35.4223 296.135 35.483 296.028 35.525C295.92 35.5717 295.806 35.595 295.685 35.595C295.563 35.595 295.449 35.5717 295.342 35.525C295.234 35.483 295.141 35.4223 295.062 35.343C294.987 35.2637 294.926 35.1727 294.88 35.07C294.838 34.9627 294.817 34.846 294.817 34.72ZM306.789 30.317C307.181 30.317 307.526 30.2703 307.825 30.177C308.128 30.079 308.38 29.9437 308.581 29.771C308.786 29.5937 308.94 29.3837 309.043 29.141C309.145 28.8983 309.197 28.63 309.197 28.336C309.197 27.7387 309.001 27.2883 308.609 26.985C308.217 26.6817 307.629 26.53 306.845 26.53H305.361V30.317H306.789ZM311.423 35.49H310.219C309.971 35.49 309.789 35.3943 309.673 35.203L307.069 31.619C306.989 31.507 306.903 31.4277 306.81 31.381C306.721 31.3297 306.581 31.304 306.39 31.304H305.361V35.49H304.01V25.459H306.845C307.479 25.459 308.028 25.5243 308.49 25.655C308.952 25.781 309.332 25.9653 309.631 26.208C309.934 26.4507 310.158 26.7447 310.303 27.09C310.447 27.4307 310.52 27.8133 310.52 28.238C310.52 28.5927 310.464 28.924 310.352 29.232C310.24 29.54 310.076 29.8177 309.862 30.065C309.652 30.3077 309.393 30.5153 309.085 30.688C308.781 30.8607 308.436 30.9913 308.049 31.08C308.221 31.178 308.371 31.3203 308.497 31.507L311.423 35.49ZM316.788 31.171C316.788 30.8817 316.746 30.618 316.662 30.38C316.582 30.1373 316.463 29.9297 316.305 29.757C316.151 29.5797 315.962 29.4443 315.738 29.351C315.514 29.253 315.259 29.204 314.975 29.204C314.377 29.204 313.904 29.379 313.554 29.729C313.208 30.0743 312.994 30.555 312.91 31.171H316.788ZM317.796 34.496C317.642 34.6827 317.457 34.846 317.243 34.986C317.028 35.1213 316.797 35.2333 316.55 35.322C316.307 35.4107 316.055 35.476 315.794 35.518C315.532 35.5647 315.273 35.588 315.017 35.588C314.527 35.588 314.074 35.5063 313.659 35.343C313.248 35.175 312.891 34.9323 312.588 34.615C312.289 34.293 312.056 33.8963 311.888 33.425C311.72 32.9537 311.636 32.4123 311.636 31.801C311.636 31.3063 311.71 30.8443 311.86 30.415C312.014 29.9857 312.233 29.6147 312.518 29.302C312.802 28.9847 313.15 28.7373 313.561 28.56C313.971 28.378 314.433 28.287 314.947 28.287C315.371 28.287 315.763 28.3593 316.123 28.504C316.487 28.644 316.799 28.8493 317.061 29.12C317.327 29.386 317.534 29.7173 317.684 30.114C317.833 30.506 317.908 30.954 317.908 31.458C317.908 31.654 317.887 31.7847 317.845 31.85C317.803 31.9153 317.723 31.948 317.607 31.948H312.868C312.882 32.396 312.942 32.7857 313.05 33.117C313.162 33.4483 313.316 33.726 313.512 33.95C313.708 34.1693 313.941 34.335 314.212 34.447C314.482 34.5543 314.786 34.608 315.122 34.608C315.434 34.608 315.703 34.573 315.927 34.503C316.155 34.4283 316.351 34.349 316.515 34.265C316.678 34.181 316.813 34.104 316.921 34.034C317.033 33.9593 317.128 33.922 317.208 33.922C317.31 33.922 317.39 33.9617 317.446 34.041L317.796 34.496ZM323.281 32.298C322.707 32.3167 322.217 32.3633 321.811 32.438C321.41 32.508 321.081 32.6013 320.824 32.718C320.572 32.8347 320.388 32.9723 320.271 33.131C320.159 33.2897 320.103 33.467 320.103 33.663C320.103 33.8497 320.134 34.0107 320.194 34.146C320.255 34.2813 320.337 34.3933 320.439 34.482C320.547 34.566 320.67 34.629 320.81 34.671C320.955 34.7083 321.109 34.727 321.272 34.727C321.492 34.727 321.692 34.706 321.874 34.664C322.056 34.6173 322.227 34.552 322.385 34.468C322.549 34.384 322.703 34.2837 322.847 34.167C322.997 34.0503 323.141 33.9173 323.281 33.768V32.298ZM319.256 29.4C319.648 29.022 320.071 28.7397 320.523 28.553C320.976 28.3663 321.478 28.273 322.028 28.273C322.425 28.273 322.777 28.3383 323.085 28.469C323.393 28.5997 323.652 28.7817 323.862 29.015C324.072 29.2483 324.231 29.5307 324.338 29.862C324.446 30.1933 324.499 30.5573 324.499 30.954V35.49H323.946C323.825 35.49 323.732 35.4713 323.666 35.434C323.601 35.392 323.55 35.3127 323.512 35.196L323.372 34.524C323.186 34.6967 323.004 34.8507 322.826 34.986C322.649 35.1167 322.462 35.2287 322.266 35.322C322.07 35.4107 321.86 35.4783 321.636 35.525C321.417 35.5763 321.172 35.602 320.901 35.602C320.626 35.602 320.367 35.5647 320.124 35.49C319.882 35.4107 319.669 35.294 319.487 35.14C319.31 34.986 319.168 34.7923 319.06 34.559C318.958 34.321 318.906 34.041 318.906 33.719C318.906 33.439 318.983 33.1707 319.137 32.914C319.291 32.6527 319.541 32.4217 319.886 32.221C320.232 32.0203 320.682 31.857 321.237 31.731C321.793 31.6003 322.474 31.5257 323.281 31.507V30.954C323.281 30.4033 323.162 29.988 322.924 29.708C322.686 29.4233 322.339 29.281 321.881 29.281C321.573 29.281 321.314 29.3207 321.104 29.4C320.899 29.4747 320.719 29.561 320.565 29.659C320.416 29.7523 320.285 29.8387 320.173 29.918C320.066 29.9927 319.959 30.03 319.851 30.03C319.767 30.03 319.695 30.009 319.634 29.967C319.574 29.9203 319.522 29.8643 319.48 29.799L319.256 29.4ZM331.017 30.086C330.784 29.7733 330.532 29.5563 330.261 29.435C329.99 29.309 329.687 29.246 329.351 29.246C328.693 29.246 328.187 29.4817 327.832 29.953C327.477 30.4243 327.3 31.0963 327.3 31.969C327.3 32.431 327.34 32.8277 327.419 33.159C327.498 33.4857 327.615 33.7563 327.769 33.971C327.923 34.181 328.112 34.335 328.336 34.433C328.56 34.531 328.814 34.58 329.099 34.58C329.51 34.58 329.867 34.4867 330.17 34.3C330.478 34.1133 330.76 33.8497 331.017 33.509V30.086ZM332.263 25.179V35.49H331.521C331.344 35.49 331.232 35.4037 331.185 35.231L331.073 34.37C330.77 34.734 330.424 35.028 330.037 35.252C329.65 35.476 329.202 35.588 328.693 35.588C328.287 35.588 327.918 35.511 327.587 35.357C327.256 35.1983 326.973 34.9673 326.74 34.664C326.507 34.3607 326.327 33.9827 326.201 33.53C326.075 33.0773 326.012 32.557 326.012 31.969C326.012 31.4463 326.082 30.961 326.222 30.513C326.362 30.0603 326.563 29.6683 326.824 29.337C327.085 29.0057 327.405 28.7467 327.783 28.56C328.166 28.3687 328.595 28.273 329.071 28.273C329.505 28.273 329.876 28.3477 330.184 28.497C330.497 28.6417 330.774 28.8447 331.017 29.106V25.179H332.263ZM340.802 28.287C341.32 28.287 341.787 28.3733 342.202 28.546C342.618 28.7187 342.972 28.9637 343.266 29.281C343.56 29.5983 343.784 29.9833 343.938 30.436C344.097 30.884 344.176 31.3857 344.176 31.941C344.176 32.501 344.097 33.005 343.938 33.453C343.784 33.901 343.56 34.2837 343.266 34.601C342.972 34.9183 342.618 35.1633 342.202 35.336C341.787 35.504 341.32 35.588 340.802 35.588C340.28 35.588 339.808 35.504 339.388 35.336C338.973 35.1633 338.618 34.9183 338.324 34.601C338.03 34.2837 337.804 33.901 337.645 33.453C337.491 33.005 337.414 32.501 337.414 31.941C337.414 31.3857 337.491 30.884 337.645 30.436C337.804 29.9833 338.03 29.5983 338.324 29.281C338.618 28.9637 338.973 28.7187 339.388 28.546C339.808 28.3733 340.28 28.287 340.802 28.287ZM340.802 34.615C341.502 34.615 342.025 34.3817 342.37 33.915C342.716 33.4437 342.888 32.788 342.888 31.948C342.888 31.1033 342.716 30.4453 342.37 29.974C342.025 29.5027 341.502 29.267 340.802 29.267C340.448 29.267 340.137 29.3277 339.871 29.449C339.61 29.5703 339.391 29.7453 339.213 29.974C339.041 30.2027 338.91 30.485 338.821 30.821C338.737 31.1523 338.695 31.528 338.695 31.948C338.695 32.788 338.868 33.4437 339.213 33.915C339.563 34.3817 340.093 34.615 340.802 34.615ZM351.588 28.399V35.49H350.846C350.668 35.49 350.556 35.4037 350.51 35.231L350.412 34.468C350.104 34.8087 349.758 35.084 349.376 35.294C348.993 35.4993 348.554 35.602 348.06 35.602C347.672 35.602 347.329 35.539 347.031 35.413C346.737 35.2823 346.489 35.1003 346.289 34.867C346.088 34.6337 345.936 34.3513 345.834 34.02C345.736 33.6887 345.687 33.3223 345.687 32.921V28.399H346.933V32.921C346.933 33.4577 347.054 33.873 347.297 34.167C347.544 34.461 347.92 34.608 348.424 34.608C348.792 34.608 349.135 34.5217 349.453 34.349C349.775 34.1717 350.071 33.929 350.342 33.621V28.399H351.588ZM354.746 29.82C354.97 29.3347 355.246 28.9567 355.572 28.686C355.899 28.4107 356.298 28.273 356.769 28.273C356.919 28.273 357.061 28.2893 357.196 28.322C357.336 28.3547 357.46 28.406 357.567 28.476L357.476 29.407C357.448 29.5237 357.378 29.582 357.266 29.582C357.201 29.582 357.105 29.568 356.979 29.54C356.853 29.512 356.711 29.498 356.552 29.498C356.328 29.498 356.128 29.5307 355.95 29.596C355.778 29.6613 355.621 29.7593 355.481 29.89C355.346 30.016 355.222 30.1747 355.11 30.366C355.003 30.5527 354.905 30.7673 354.816 31.01V35.49H353.563V28.399H354.277C354.413 28.399 354.506 28.4247 354.557 28.476C354.609 28.5273 354.644 28.616 354.662 28.742L354.746 29.82Z" fill="#333333"/>
<path d="M365.017 30.317C365.409 30.317 365.754 30.2703 366.053 30.177C366.356 30.079 366.608 29.9437 366.809 29.771C367.014 29.5937 367.168 29.3837 367.271 29.141C367.374 28.8983 367.425 28.63 367.425 28.336C367.425 27.7387 367.229 27.2883 366.837 26.985C366.445 26.6817 365.857 26.53 365.073 26.53H363.589V30.317H365.017ZM369.651 35.49H368.447C368.2 35.49 368.018 35.3943 367.901 35.203L365.297 31.619C365.218 31.507 365.131 31.4277 365.038 31.381C364.949 31.3297 364.809 31.304 364.618 31.304H363.589V35.49H362.238V25.459H365.073C365.708 25.459 366.256 25.5243 366.718 25.655C367.18 25.781 367.56 25.9653 367.859 26.208C368.162 26.4507 368.386 26.7447 368.531 27.09C368.676 27.4307 368.748 27.8133 368.748 28.238C368.748 28.5927 368.692 28.924 368.58 29.232C368.468 29.54 368.305 29.8177 368.09 30.065C367.88 30.3077 367.621 30.5153 367.313 30.688C367.01 30.8607 366.664 30.9913 366.277 31.08C366.45 31.178 366.599 31.3203 366.725 31.507L369.651 35.49ZM375.016 31.171C375.016 30.8817 374.974 30.618 374.89 30.38C374.811 30.1373 374.692 29.9297 374.533 29.757C374.379 29.5797 374.19 29.4443 373.966 29.351C373.742 29.253 373.488 29.204 373.203 29.204C372.606 29.204 372.132 29.379 371.782 29.729C371.437 30.0743 371.222 30.555 371.138 31.171H375.016ZM376.024 34.496C375.87 34.6827 375.686 34.846 375.471 34.986C375.257 35.1213 375.026 35.2333 374.778 35.322C374.536 35.4107 374.284 35.476 374.022 35.518C373.761 35.5647 373.502 35.588 373.245 35.588C372.755 35.588 372.303 35.5063 371.887 35.343C371.477 35.175 371.12 34.9323 370.816 34.615C370.518 34.293 370.284 33.8963 370.116 33.425C369.948 32.9537 369.864 32.4123 369.864 31.801C369.864 31.3063 369.939 30.8443 370.088 30.415C370.242 29.9857 370.462 29.6147 370.746 29.302C371.031 28.9847 371.379 28.7373 371.789 28.56C372.2 28.378 372.662 28.287 373.175 28.287C373.6 28.287 373.992 28.3593 374.351 28.504C374.715 28.644 375.028 28.8493 375.289 29.12C375.555 29.386 375.763 29.7173 375.912 30.114C376.062 30.506 376.136 30.954 376.136 31.458C376.136 31.654 376.115 31.7847 376.073 31.85C376.031 31.9153 375.952 31.948 375.835 31.948H371.096C371.11 32.396 371.171 32.7857 371.278 33.117C371.39 33.4483 371.544 33.726 371.74 33.95C371.936 34.1693 372.17 34.335 372.44 34.447C372.711 34.5543 373.014 34.608 373.35 34.608C373.663 34.608 373.931 34.573 374.155 34.503C374.384 34.4283 374.58 34.349 374.743 34.265C374.907 34.181 375.042 34.104 375.149 34.034C375.261 33.9593 375.357 33.922 375.436 33.922C375.539 33.922 375.618 33.9617 375.674 34.041L376.024 34.496ZM387.377 28.399L385.081 35.49H384.094C383.973 35.49 383.889 35.4107 383.842 35.252L382.274 30.443C382.237 30.3357 382.207 30.2283 382.183 30.121C382.16 30.009 382.137 29.8993 382.113 29.792C382.09 29.8993 382.067 30.009 382.043 30.121C382.02 30.2283 381.99 30.338 381.952 30.45L380.356 35.252C380.314 35.4107 380.221 35.49 380.076 35.49H379.138L376.842 28.399H377.822C377.92 28.399 378.002 28.4247 378.067 28.476C378.137 28.5273 378.184 28.588 378.207 28.658L379.565 33.222C379.645 33.558 379.708 33.8753 379.754 34.174C379.796 34.02 379.838 33.8637 379.88 33.705C379.927 33.5463 379.976 33.3853 380.027 33.222L381.525 28.63C381.549 28.56 381.588 28.5017 381.644 28.455C381.705 28.4083 381.777 28.385 381.861 28.385H382.407C382.501 28.385 382.578 28.4083 382.638 28.455C382.699 28.5017 382.741 28.56 382.764 28.63L384.227 33.222C384.279 33.3853 384.325 33.5463 384.367 33.705C384.409 33.8637 384.449 34.02 384.486 34.174C384.51 34.02 384.538 33.866 384.57 33.712C384.608 33.5533 384.647 33.39 384.689 33.222L386.075 28.658C386.099 28.5833 386.143 28.5227 386.208 28.476C386.274 28.4247 386.351 28.399 386.439 28.399H387.377ZM392.351 32.298C391.777 32.3167 391.287 32.3633 390.881 32.438C390.48 32.508 390.151 32.6013 389.894 32.718C389.642 32.8347 389.458 32.9723 389.341 33.131C389.229 33.2897 389.173 33.467 389.173 33.663C389.173 33.8497 389.204 34.0107 389.264 34.146C389.325 34.2813 389.407 34.3933 389.509 34.482C389.617 34.566 389.74 34.629 389.88 34.671C390.025 34.7083 390.179 34.727 390.342 34.727C390.562 34.727 390.762 34.706 390.944 34.664C391.126 34.6173 391.297 34.552 391.455 34.468C391.619 34.384 391.773 34.2837 391.917 34.167C392.067 34.0503 392.211 33.9173 392.351 33.768V32.298ZM388.326 29.4C388.718 29.022 389.141 28.7397 389.593 28.553C390.046 28.3663 390.548 28.273 391.098 28.273C391.495 28.273 391.847 28.3383 392.155 28.469C392.463 28.5997 392.722 28.7817 392.932 29.015C393.142 29.2483 393.301 29.5307 393.408 29.862C393.516 30.1933 393.569 30.5573 393.569 30.954V35.49H393.016C392.895 35.49 392.802 35.4713 392.736 35.434C392.671 35.392 392.62 35.3127 392.582 35.196L392.442 34.524C392.256 34.6967 392.074 34.8507 391.896 34.986C391.719 35.1167 391.532 35.2287 391.336 35.322C391.14 35.4107 390.93 35.4783 390.706 35.525C390.487 35.5763 390.242 35.602 389.971 35.602C389.696 35.602 389.437 35.5647 389.194 35.49C388.952 35.4107 388.739 35.294 388.557 35.14C388.38 34.986 388.238 34.7923 388.13 34.559C388.028 34.321 387.976 34.041 387.976 33.719C387.976 33.439 388.053 33.1707 388.207 32.914C388.361 32.6527 388.611 32.4217 388.956 32.221C389.302 32.0203 389.752 31.857 390.307 31.731C390.863 31.6003 391.544 31.5257 392.351 31.507V30.954C392.351 30.4033 392.232 29.988 391.994 29.708C391.756 29.4233 391.409 29.281 390.951 29.281C390.643 29.281 390.384 29.3207 390.174 29.4C389.969 29.4747 389.789 29.561 389.635 29.659C389.486 29.7523 389.355 29.8387 389.243 29.918C389.136 29.9927 389.029 30.03 388.921 30.03C388.837 30.03 388.765 30.009 388.704 29.967C388.644 29.9203 388.592 29.8643 388.55 29.799L388.326 29.4ZM396.65 29.82C396.874 29.3347 397.15 28.9567 397.476 28.686C397.803 28.4107 398.202 28.273 398.673 28.273C398.823 28.273 398.965 28.2893 399.1 28.322C399.24 28.3547 399.364 28.406 399.471 28.476L399.38 29.407C399.352 29.5237 399.282 29.582 399.17 29.582C399.105 29.582 399.009 29.568 398.883 29.54C398.757 29.512 398.615 29.498 398.456 29.498C398.232 29.498 398.032 29.5307 397.854 29.596C397.682 29.6613 397.525 29.7593 397.385 29.89C397.25 30.016 397.126 30.1747 397.014 30.366C396.907 30.5527 396.809 30.7673 396.72 31.01V35.49H395.467V28.399H396.181C396.317 28.399 396.41 28.4247 396.461 28.476C396.513 28.5273 396.548 28.616 396.566 28.742L396.65 29.82ZM404.914 30.086C404.68 29.7733 404.428 29.5563 404.158 29.435C403.887 29.309 403.584 29.246 403.248 29.246C402.59 29.246 402.083 29.4817 401.729 29.953C401.374 30.4243 401.197 31.0963 401.197 31.969C401.197 32.431 401.236 32.8277 401.316 33.159C401.395 33.4857 401.512 33.7563 401.666 33.971C401.82 34.181 402.009 34.335 402.233 34.433C402.457 34.531 402.711 34.58 402.996 34.58C403.406 34.58 403.763 34.4867 404.067 34.3C404.375 34.1133 404.657 33.8497 404.914 33.509V30.086ZM406.16 25.179V35.49H405.418C405.24 35.49 405.128 35.4037 405.082 35.231L404.97 34.37C404.666 34.734 404.321 35.028 403.934 35.252C403.546 35.476 403.098 35.588 402.59 35.588C402.184 35.588 401.815 35.511 401.484 35.357C401.152 35.1983 400.87 34.9673 400.637 34.664C400.403 34.3607 400.224 33.9827 400.098 33.53C399.972 33.0773 399.909 32.557 399.909 31.969C399.909 31.4463 399.979 30.961 400.119 30.513C400.259 30.0603 400.459 29.6683 400.721 29.337C400.982 29.0057 401.302 28.7467 401.68 28.56C402.062 28.3687 402.492 28.273 402.968 28.273C403.402 28.273 403.773 28.3477 404.081 28.497C404.393 28.6417 404.671 28.8447 404.914 29.106V25.179H406.16ZM412.258 29.568C412.202 29.6707 412.115 29.722 411.999 29.722C411.929 29.722 411.849 29.6963 411.761 29.645C411.672 29.5937 411.562 29.5377 411.432 29.477C411.306 29.4117 411.154 29.3533 410.977 29.302C410.799 29.246 410.589 29.218 410.347 29.218C410.137 29.218 409.948 29.246 409.78 29.302C409.612 29.3533 409.467 29.4257 409.346 29.519C409.229 29.6123 409.138 29.722 409.073 29.848C409.012 29.9693 408.982 30.1023 408.982 30.247C408.982 30.429 409.033 30.5807 409.136 30.702C409.243 30.8233 409.383 30.9283 409.556 31.017C409.728 31.1057 409.924 31.185 410.144 31.255C410.363 31.3203 410.587 31.3927 410.816 31.472C411.049 31.5467 411.275 31.6307 411.495 31.724C411.714 31.8173 411.91 31.934 412.083 32.074C412.255 32.214 412.393 32.3867 412.496 32.592C412.603 32.7927 412.657 33.0353 412.657 33.32C412.657 33.6467 412.598 33.95 412.482 34.23C412.365 34.5053 412.192 34.7457 411.964 34.951C411.735 35.1517 411.455 35.3103 411.124 35.427C410.792 35.5437 410.41 35.602 409.976 35.602C409.481 35.602 409.033 35.5227 408.632 35.364C408.23 35.2007 407.89 34.993 407.61 34.741L407.904 34.265C407.941 34.2043 407.985 34.1577 408.037 34.125C408.088 34.0923 408.153 34.076 408.233 34.076C408.317 34.076 408.405 34.1087 408.499 34.174C408.592 34.2393 408.704 34.3117 408.835 34.391C408.97 34.4703 409.133 34.5427 409.325 34.608C409.516 34.6733 409.754 34.706 410.039 34.706C410.281 34.706 410.494 34.6757 410.676 34.615C410.858 34.5497 411.009 34.4633 411.131 34.356C411.252 34.2487 411.341 34.125 411.397 33.985C411.457 33.845 411.488 33.6957 411.488 33.537C411.488 33.341 411.434 33.18 411.327 33.054C411.224 32.9233 411.086 32.8137 410.914 32.725C410.741 32.6317 410.543 32.5523 410.319 32.487C410.099 32.417 409.873 32.3447 409.64 32.27C409.411 32.1953 409.185 32.1113 408.961 32.018C408.741 31.92 408.545 31.7987 408.373 31.654C408.2 31.5093 408.06 31.332 407.953 31.122C407.85 30.9073 407.799 30.6483 407.799 30.345C407.799 30.0743 407.855 29.8153 407.967 29.568C408.079 29.316 408.242 29.0967 408.457 28.91C408.671 28.7187 408.935 28.567 409.248 28.455C409.56 28.343 409.917 28.287 410.319 28.287C410.785 28.287 411.203 28.3617 411.572 28.511C411.945 28.6557 412.267 28.8563 412.538 29.113L412.258 29.568ZM419.418 26.565V30.072H423.541V31.178H419.418V35.49H418.06V25.459H424.241V26.565H419.418ZM430.497 31.766L428.922 27.685C428.875 27.5637 428.826 27.4237 428.775 27.265C428.723 27.1017 428.674 26.929 428.628 26.747C428.53 27.125 428.429 27.44 428.327 27.692L426.752 31.766H430.497ZM433.325 35.49H432.275C432.153 35.49 432.055 35.4597 431.981 35.399C431.906 35.3383 431.85 35.2613 431.813 35.168L430.875 32.746H426.374L425.436 35.168C425.408 35.252 425.354 35.3267 425.275 35.392C425.195 35.4573 425.097 35.49 424.981 35.49H423.931L427.942 25.459H429.314L433.325 35.49ZM435.155 30.478C435.155 31.094 435.239 31.647 435.407 32.137C435.575 32.6223 435.813 33.0353 436.121 33.376C436.433 33.712 436.809 33.971 437.248 34.153C437.686 34.3303 438.174 34.419 438.711 34.419C439.252 34.419 439.742 34.3303 440.181 34.153C440.619 33.971 440.993 33.712 441.301 33.376C441.609 33.0353 441.847 32.6223 442.015 32.137C442.183 31.647 442.267 31.094 442.267 30.478C442.267 29.862 442.183 29.309 442.015 28.819C441.847 28.329 441.609 27.916 441.301 27.58C440.993 27.2393 440.619 26.978 440.181 26.796C439.742 26.614 439.252 26.523 438.711 26.523C438.174 26.523 437.686 26.614 437.248 26.796C436.809 26.978 436.433 27.2393 436.121 27.58C435.813 27.916 435.575 28.329 435.407 28.819C435.239 29.309 435.155 29.862 435.155 30.478ZM444.122 37.562H443.002C442.834 37.562 442.684 37.5387 442.554 37.492C442.423 37.4453 442.304 37.3637 442.197 37.247L440.44 35.329C439.908 35.5063 439.331 35.595 438.711 35.595C437.973 35.595 437.301 35.4713 436.695 35.224C436.088 34.972 435.568 34.6197 435.134 34.167C434.7 33.7143 434.364 33.1753 434.126 32.55C433.888 31.92 433.769 31.2293 433.769 30.478C433.769 29.7267 433.888 29.0383 434.126 28.413C434.364 27.783 434.7 27.2417 435.134 26.789C435.568 26.3317 436.088 25.977 436.695 25.725C437.301 25.473 437.973 25.347 438.711 25.347C439.448 25.347 440.12 25.473 440.727 25.725C441.338 25.977 441.861 26.3317 442.295 26.789C442.729 27.2417 443.065 27.783 443.303 28.413C443.541 29.0383 443.66 29.7267 443.66 30.478C443.66 30.9493 443.611 31.3973 443.513 31.822C443.419 32.2467 443.282 32.6433 443.1 33.012C442.918 33.376 442.696 33.7073 442.435 34.006C442.173 34.3047 441.879 34.5637 441.553 34.783L444.122 37.562Z" fill="#2C7500"/>
<g clip-path="url(#clip0_113_880)">
<path d="M327.233 72.5341V80.8391H326.417V76.9561H321.499V80.8391H320.691V72.5341H321.499V76.2281H326.417V72.5341H327.233ZM330.931 72.5341L333.65 77.0011L336.378 72.5341H337.267L334.045 77.7471V80.8301H333.237V77.7201L330.042 72.5251H330.931V72.5341ZM340.076 80.8401V72.5331H343.504C343.863 72.5331 344.194 72.6051 344.491 72.7581C344.787 72.9101 345.047 73.1081 345.271 73.3511C345.71 73.8408 345.956 74.4735 345.962 75.1311C345.962 75.4721 345.909 75.8051 345.792 76.1191C345.682 76.4241 345.518 76.7071 345.308 76.9551C345.101 77.1981 344.85 77.3951 344.554 77.5401C344.251 77.6931 343.916 77.77 343.576 77.7641H340.874V80.8291H340.076V80.8391V80.8401ZM340.883 77.0461H343.531C343.773 77.0461 343.988 76.9921 344.195 76.8841C344.392 76.7771 344.563 76.6421 344.706 76.4621C344.85 76.2821 344.958 76.0841 345.029 75.8511C345.11 75.6171 345.146 75.3831 345.146 75.1311C345.146 74.8711 345.101 74.6281 345.012 74.4031C344.93 74.182 344.808 73.978 344.652 73.8011C344.502 73.632 344.319 73.4946 344.114 73.3971C343.913 73.3008 343.692 73.2515 343.468 73.2531H340.891V77.0461H340.883ZM354.479 80.1111V80.8391H348.906V72.5341H354.372V73.2621H349.714V76.2551H353.779V76.9471H349.714V80.1201H354.479V80.1111ZM357.513 80.8401V72.5331H361.003C361.363 72.5331 361.695 72.6051 362 72.7581C362.305 72.9101 362.565 73.1081 362.78 73.3511C363.098 73.7053 363.317 74.1369 363.414 74.6025C363.512 75.0681 363.485 75.5512 363.336 76.0031C363.247 76.2811 363.122 76.5331 362.96 76.7491C362.803 76.9699 362.605 77.1589 362.377 77.3061C362.147 77.4602 361.887 77.5641 361.614 77.6111L363.66 80.8111H362.736L360.77 77.7461H358.32V80.8111H357.513V80.8381V80.8401ZM358.312 77.0461H361.031C361.273 77.0461 361.488 76.9921 361.695 76.8841C361.892 76.7771 362.063 76.6421 362.206 76.4621C362.35 76.2821 362.458 76.0841 362.529 75.8511C362.691 75.3871 362.685 74.8812 362.512 74.4211C362.43 74.2 362.308 73.996 362.152 73.8191C362 73.6499 361.817 73.5099 361.614 73.4061C361.413 73.307 361.193 73.2547 360.968 73.2531H358.32V77.0461H358.312Z" fill="#00AFD0"/>
<path d="M369.996 72.5967H370.776L371.944 75.5447L372.186 76.1377L373.774 79.8957L376.772 72.5427H377.66L374.16 80.8477H373.433L371.693 76.7317L371.441 76.1377L369.996 72.5967Z" fill="#005D80"/>
<path d="M382.623 73.496L379.679 80.839H378.818L382.282 72.534H382.946L386.41 80.839H385.53L382.623 73.496ZM389.255 80.84V72.533H390.063V80.11H394.864V80.838L389.255 80.84ZM397.736 80.84V72.533H398.544V80.11H403.344V80.838L397.736 80.84ZM411.79 80.111V80.839H406.217V72.534H411.682V73.262H407.024V76.255H411.09V76.947H407.024V80.12H411.79V80.111ZM421.078 73.262H418.126V80.839H417.309V73.262H414.356V72.534H421.078V73.262ZM371.414 75.536L372.59 72.596H373.362L371.917 76.138L371.692 76.732L369.942 80.839H369.215L365.725 72.534H366.585L369.601 79.887L371.181 76.129L371.414 75.536ZM381.277 82.637H383.96V83.637H381.277V82.637ZM314.265 65.99H297.358C296.138 65.99 295.141 66.988 295.141 68.21V86.412C295.141 87.635 296.137 88.632 297.358 88.632H314.265C315.485 88.632 316.482 87.635 316.482 86.412V68.21C316.482 66.988 315.486 65.99 314.265 65.99ZM302.949 85.307H299.591V69.316H302.948V85.306L302.949 85.307ZM307.489 81.711H304.134V77.307H307.491V81.711H307.489ZM312.031 85.307H308.674V69.316H312.031V85.307Z" fill="#00AFD0"/>
<path d="M356.238 95.0248L355.655 96.1568H354.928L357.567 91.2038H358.222L359.29 96.1568H358.59L358.356 95.0248H356.238ZM357.755 92.1028L356.535 94.4398H358.231L357.755 92.1028ZM401.514 95.7258C401.774 95.7258 401.99 95.6808 402.16 95.5818C402.319 95.4943 402.45 95.3632 402.537 95.2038C402.617 95.0518 402.663 94.8898 402.663 94.7278C402.668 94.5952 402.627 94.465 402.546 94.3598C402.434 94.2329 402.296 94.1316 402.142 94.0628L401.514 93.7928C401.164 93.6308 400.904 93.4608 400.751 93.2718C400.595 93.0788 400.512 92.8368 400.518 92.5888C400.518 92.3008 400.59 92.0398 400.742 91.8158C400.886 91.5908 401.102 91.4198 401.362 91.3028C401.631 91.1868 401.936 91.1228 402.277 91.1228C402.564 91.1328 402.815 91.1688 403.031 91.2398C403.246 91.3118 403.435 91.4298 403.596 91.5728L403.488 92.2378C403.139 91.9135 402.681 91.731 402.205 91.7258C401.909 91.7258 401.667 91.7978 401.478 91.9508C401.389 92.0163 401.317 92.1015 401.267 92.1998C401.217 92.2981 401.191 92.4066 401.191 92.5168C401.191 92.6428 401.236 92.7598 401.335 92.8488C401.425 92.9388 401.595 93.0468 401.846 93.1548L402.456 93.4248C402.788 93.5868 403.022 93.7658 403.156 93.9548C403.291 94.1438 403.363 94.3688 403.363 94.6288C403.363 94.9348 403.3 95.2038 403.165 95.4648C403.04 95.7168 402.825 95.9238 402.537 96.0848C402.25 96.2468 401.882 96.3278 401.433 96.3278C400.814 96.3278 400.329 96.1748 399.979 95.8608L400.096 95.1508C400.518 95.5368 400.994 95.7258 401.514 95.7258ZM406.854 92.9568C407.087 93.2178 407.213 93.5598 407.213 93.9728C407.213 94.1078 407.203 94.2248 407.195 94.3148C407.177 94.4048 407.159 94.5118 407.123 94.6378H404.431C404.413 94.9978 404.511 95.2758 404.709 95.4648C404.906 95.6628 405.185 95.7528 405.526 95.7528C405.768 95.7528 405.983 95.7258 406.181 95.6628C406.385 95.5953 406.58 95.5047 406.764 95.3928L406.674 95.9328C406.306 96.1838 405.876 96.3098 405.374 96.3098C405.041 96.3098 404.754 96.2378 404.52 96.0938C404.284 95.9577 404.093 95.7544 403.973 95.5098C403.845 95.2498 403.781 94.9634 403.785 94.6738C403.785 94.3688 403.856 94.0538 404.018 93.7208C404.17 93.3978 404.404 93.1188 404.718 92.8938C405.032 92.6698 405.408 92.5618 405.867 92.5618C406.279 92.5708 406.612 92.6968 406.854 92.9568ZM404.969 93.4068C404.751 93.5993 404.589 93.848 404.503 94.1258H406.585C406.594 94.0898 406.594 94.0358 406.594 93.9638C406.594 93.6938 406.522 93.4878 406.378 93.3338C406.235 93.1818 406.028 93.1008 405.768 93.1008C405.473 93.1036 405.19 93.2122 404.969 93.4068ZM409.421 93.2178C409.286 93.2154 409.153 93.2415 409.029 93.2942C408.905 93.3469 408.794 93.4252 408.703 93.5238C408.505 93.7298 408.379 94.0268 408.317 94.4138L408.038 96.1838H407.401L407.958 92.6788H408.577L408.487 93.2718C408.774 92.8578 409.115 92.6518 409.519 92.6518C409.618 92.6518 409.717 92.6608 409.797 92.6698L409.707 93.2268C409.609 93.2268 409.52 93.2178 409.421 93.2178ZM411.332 96.1838H410.74L409.905 92.6878H410.551L411.144 95.4198L412.597 92.6878H413.262L411.332 96.1838ZM413.728 96.1838H413.019L413.619 92.6788H414.337L413.728 96.1838ZM413.808 92.0038C413.773 91.9721 413.745 91.9333 413.726 91.8901C413.707 91.8468 413.697 91.8 413.698 91.7528C413.697 91.69 413.711 91.628 413.739 91.5717C413.767 91.5154 413.808 91.4665 413.858 91.4288C413.968 91.3388 414.088 91.2938 414.228 91.2938C414.338 91.2938 414.427 91.3298 414.507 91.3938C414.577 91.4558 414.617 91.5458 414.617 91.6438C414.617 91.7618 414.567 91.8698 414.457 91.9688C414.354 92.0592 414.223 92.1099 414.087 92.1118C414.035 92.1145 413.983 92.1063 413.935 92.0877C413.887 92.0691 413.844 92.0405 413.808 92.0038ZM415.146 96.1028C414.913 95.9595 414.721 95.7583 414.59 95.5188C414.455 95.2675 414.387 94.9859 414.392 94.7008C414.392 94.3238 414.473 93.9818 414.644 93.6488C414.814 93.3258 415.056 93.0648 415.379 92.8668C415.703 92.6698 416.079 92.5708 416.519 92.5708C416.941 92.5708 417.282 92.6788 417.542 92.8848L417.435 93.5418C417.192 93.2808 416.869 93.1548 416.483 93.1548C416.205 93.1548 415.963 93.2268 415.738 93.3708C415.524 93.5085 415.351 93.7008 415.236 93.9278C415.119 94.1618 415.056 94.4038 415.056 94.6648C415.056 94.9888 415.146 95.2488 415.326 95.4468C415.506 95.6448 415.756 95.7438 416.07 95.7438C416.268 95.7438 416.465 95.7078 416.663 95.6358C416.86 95.5638 417.031 95.4558 417.183 95.3208L417.085 95.9868C416.913 96.1038 416.726 96.1948 416.528 96.2568C416.34 96.3098 416.142 96.3368 415.936 96.3368C415.657 96.3265 415.385 96.246 415.146 96.1028ZM420.719 92.9568C420.953 93.2178 421.079 93.5598 421.079 93.9728C421.079 94.1078 421.069 94.2248 421.06 94.3148C421.042 94.4048 421.024 94.5118 420.988 94.6378H418.296C418.278 94.9978 418.376 95.2758 418.574 95.4648C418.772 95.6628 419.05 95.7528 419.391 95.7528C419.633 95.7528 419.849 95.7258 420.046 95.6628C420.25 95.5953 420.445 95.5047 420.629 95.3928L420.539 95.9328C420.172 96.1838 419.741 96.3098 419.239 96.3098C418.906 96.3098 418.619 96.2378 418.386 96.0938C418.149 95.9556 417.956 95.7532 417.829 95.5098C417.701 95.2498 417.637 94.9634 417.641 94.6738C417.641 94.3688 417.713 94.0538 417.874 93.7208C418.027 93.3978 418.26 93.1188 418.574 92.8938C418.888 92.6698 419.265 92.5618 419.724 92.5618C420.144 92.5708 420.486 92.6968 420.719 92.9568ZM418.835 93.4068C418.616 93.5992 418.455 93.8479 418.368 94.1258H420.45C420.459 94.0898 420.459 94.0358 420.459 93.9638C420.459 93.6938 420.387 93.4878 420.244 93.3338C420.1 93.1818 419.894 93.1008 419.634 93.1008C419.339 93.105 419.057 93.2134 418.835 93.4068Z" fill="#99999A"/>
<path d="M386.078 88.6326H383.358C383.269 88.6321 383.183 88.6635 383.116 88.7212C383.048 88.7789 383.004 88.8589 382.991 88.9466L381.887 95.9226C381.869 96.0566 381.967 96.1826 382.112 96.1826H383.502C383.565 96.1814 383.625 96.1583 383.672 96.1174C383.72 96.0765 383.751 96.0203 383.762 95.9586L384.077 93.9806C384.091 93.8931 384.136 93.8136 384.203 93.7559C384.271 93.6983 384.356 93.6663 384.445 93.6656H385.306C387.092 93.6656 388.124 92.8026 388.394 91.0856C388.519 90.3316 388.403 89.7466 388.044 89.3336C387.667 88.8746 386.984 88.6326 386.078 88.6326ZM386.383 91.1856C386.231 92.1656 385.495 92.1656 384.768 92.1656H384.355L384.642 90.3406C384.65 90.2871 384.677 90.2383 384.719 90.2034C384.76 90.1685 384.813 90.1497 384.867 90.1506H385.055C385.549 90.1506 386.006 90.1506 386.249 90.4306C386.401 90.5916 386.437 90.8346 386.383 91.1856Z" fill="#009CDE"/>
<path d="M366.72 88.6326H364.01C363.921 88.6316 363.835 88.6628 363.767 88.7205C363.699 88.7783 363.655 88.8585 363.641 88.9466L362.537 95.9226C362.519 96.0566 362.618 96.1826 362.762 96.1826H364.054C364.143 96.1833 364.229 96.152 364.297 96.0943C364.365 96.0366 364.409 95.9565 364.422 95.8686L364.718 93.9896C364.733 93.9021 364.777 93.8226 364.845 93.7649C364.912 93.7073 364.998 93.6753 365.086 93.6746H365.948C367.734 93.6746 368.766 92.8116 369.035 91.0946C369.161 90.3406 369.044 89.7556 368.685 89.3426C368.317 88.8746 367.626 88.6326 366.72 88.6326ZM367.034 91.1856C366.881 92.1656 366.145 92.1656 365.418 92.1656H365.005L365.293 90.3406C365.301 90.2873 365.329 90.2387 365.37 90.2038C365.411 90.1688 365.463 90.15 365.517 90.1506H365.705C366.199 90.1506 366.657 90.1506 366.899 90.4306C367.043 90.5916 367.087 90.8346 367.034 91.1856ZM374.832 91.1496H373.531C373.478 91.1501 373.426 91.1691 373.386 91.2034C373.345 91.2377 373.317 91.2851 373.307 91.3376L373.253 91.6976L373.163 91.5626C372.885 91.1496 372.257 91.0146 371.628 91.0146C370.193 91.0146 368.963 92.1016 368.73 93.6296C368.604 94.3936 368.784 95.1226 369.214 95.6256C369.609 96.0926 370.174 96.2906 370.848 96.2906C372.005 96.2906 372.643 95.5446 372.643 95.5446L372.589 95.9046C372.571 96.0386 372.669 96.1646 372.813 96.1646H373.98C374.069 96.1653 374.155 96.134 374.223 96.0763C374.291 96.0186 374.335 95.9385 374.348 95.8506L375.048 91.3916C375.075 91.2746 374.967 91.1496 374.832 91.1496ZM373.019 93.6836C372.969 94.0331 372.792 94.352 372.523 94.5804C372.254 94.8088 371.91 94.9309 371.557 94.9236C371.18 94.9236 370.875 94.7986 370.687 94.5736C370.497 94.3496 370.426 94.0256 370.48 93.6566C370.53 93.3074 370.705 92.9881 370.972 92.7583C371.24 92.5285 371.582 92.4039 371.934 92.4076C372.302 92.4076 372.598 92.5336 372.804 92.7576C373.002 92.9916 373.074 93.3246 373.019 93.6836Z" fill="#003087"/>
<path d="M394.181 91.1504H392.88C392.827 91.1506 392.775 91.1696 392.734 91.2039C392.693 91.2382 392.665 91.2858 392.655 91.3384L392.602 91.6984L392.512 91.5634C392.234 91.1504 391.605 91.0154 390.977 91.0154C389.541 91.0154 388.312 92.1024 388.078 93.6304C387.953 94.3944 388.132 95.1234 388.563 95.6264C388.958 96.0934 389.523 96.2914 390.196 96.2914C391.354 96.2914 391.991 95.5454 391.991 95.5454L391.937 95.9054C391.919 96.0394 392.018 96.1654 392.162 96.1654H393.328C393.417 96.1661 393.503 96.1348 393.571 96.0771C393.638 96.0194 393.683 95.9393 393.696 95.8514L394.396 91.3924C394.423 91.2754 394.325 91.1504 394.181 91.1504ZM392.368 93.6844C392.318 94.034 392.141 94.3531 391.872 94.5816C391.602 94.81 391.258 94.9319 390.905 94.9244C390.528 94.9244 390.223 94.7994 390.035 94.5744C389.846 94.3504 389.775 94.0264 389.828 93.6574C389.878 93.3082 390.052 92.9889 390.32 92.7591C390.587 92.5293 390.929 92.4046 391.282 92.4084C391.65 92.4084 391.946 92.5344 392.152 92.7584C392.35 92.9924 392.431 93.3254 392.368 93.6844Z" fill="#009CDE"/>
<path d="M381.753 91.1492H380.443C380.382 91.1493 380.321 91.1639 380.266 91.1919C380.212 91.2199 380.164 91.2604 380.128 91.3102L378.333 93.9712L377.57 91.4182C377.548 91.3405 377.501 91.2723 377.436 91.2236C377.372 91.1749 377.293 91.1485 377.212 91.1482H375.928C375.893 91.149 375.858 91.158 375.826 91.1744C375.795 91.1909 375.768 91.2145 375.747 91.2433C375.726 91.272 375.712 91.3052 375.706 91.3403C375.7 91.3753 375.703 91.4112 375.713 91.4452L377.149 95.6702L375.794 97.5852C375.686 97.7372 375.794 97.9452 375.982 97.9452H377.283C377.345 97.9447 377.405 97.9297 377.46 97.9013C377.514 97.873 377.561 97.8322 377.597 97.7822L381.941 91.5092C382.04 91.3562 381.932 91.1492 381.753 91.1492Z" fill="#003087"/>
<path d="M395.717 88.8292L394.604 95.9222C394.586 96.0562 394.684 96.1822 394.828 96.1822H395.95C396.039 96.183 396.125 96.1516 396.192 96.0939C396.26 96.0362 396.304 95.9561 396.318 95.8682L397.413 88.9012C397.417 88.8689 397.415 88.836 397.406 88.8047C397.397 88.7733 397.381 88.7443 397.36 88.7197C397.338 88.695 397.312 88.6752 397.282 88.6617C397.253 88.6481 397.22 88.6411 397.188 88.6412H395.932C395.824 88.6312 395.735 88.7132 395.717 88.8292Z" fill="#009CDE"/>
</g>
<path d="M221.49 79.282C221.719 79.59 221.968 79.807 222.239 79.933C222.51 80.059 222.813 80.122 223.149 80.122C223.812 80.122 224.32 79.8863 224.675 79.415C225.03 78.9437 225.207 78.2717 225.207 77.399C225.207 76.937 225.165 76.5403 225.081 76.209C225.002 75.8777 224.885 75.607 224.731 75.397C224.577 75.1823 224.388 75.026 224.164 74.928C223.94 74.83 223.686 74.781 223.401 74.781C222.995 74.781 222.638 74.8743 222.33 75.061C222.027 75.2477 221.747 75.5113 221.49 75.852V79.282ZM221.427 74.998C221.726 74.6293 222.071 74.333 222.463 74.109C222.855 73.885 223.303 73.773 223.807 73.773C224.218 73.773 224.589 73.8523 224.92 74.011C225.251 74.165 225.534 74.396 225.767 74.704C226 75.0073 226.18 75.3853 226.306 75.838C226.432 76.2907 226.495 76.811 226.495 77.399C226.495 77.9217 226.425 78.4093 226.285 78.862C226.145 79.31 225.942 79.6997 225.676 80.031C225.415 80.3577 225.093 80.6167 224.71 80.808C224.332 80.9947 223.905 81.088 223.429 81.088C222.995 81.088 222.622 81.0157 222.309 80.871C222.001 80.7217 221.728 80.5163 221.49 80.255V83.391H220.237V73.899H220.986C221.163 73.899 221.273 73.9853 221.315 74.158L221.427 74.998ZM231.074 73.787C231.592 73.787 232.058 73.8733 232.474 74.046C232.889 74.2187 233.244 74.4637 233.538 74.781C233.832 75.0983 234.056 75.4833 234.21 75.936C234.368 76.384 234.448 76.8857 234.448 77.441C234.448 78.001 234.368 78.505 234.21 78.953C234.056 79.401 233.832 79.7837 233.538 80.101C233.244 80.4183 232.889 80.6633 232.474 80.836C232.058 81.004 231.592 81.088 231.074 81.088C230.551 81.088 230.08 81.004 229.66 80.836C229.244 80.6633 228.89 80.4183 228.596 80.101C228.302 79.7837 228.075 79.401 227.917 78.953C227.763 78.505 227.686 78.001 227.686 77.441C227.686 76.8857 227.763 76.384 227.917 75.936C228.075 75.4833 228.302 75.0983 228.596 74.781C228.89 74.4637 229.244 74.2187 229.66 74.046C230.08 73.8733 230.551 73.787 231.074 73.787ZM231.074 80.115C231.774 80.115 232.296 79.8817 232.642 79.415C232.987 78.9437 233.16 78.288 233.16 77.448C233.16 76.6033 232.987 75.9453 232.642 75.474C232.296 75.0027 231.774 74.767 231.074 74.767C230.719 74.767 230.409 74.8277 230.143 74.949C229.881 75.0703 229.662 75.2453 229.485 75.474C229.312 75.7027 229.181 75.985 229.093 76.321C229.009 76.6523 228.967 77.028 228.967 77.448C228.967 78.288 229.139 78.9437 229.485 79.415C229.835 79.8817 230.364 80.115 231.074 80.115ZM245.698 73.899L243.402 80.99H242.415C242.293 80.99 242.209 80.9107 242.163 80.752L240.595 75.943C240.557 75.8357 240.527 75.7283 240.504 75.621C240.48 75.509 240.457 75.3993 240.434 75.292C240.41 75.3993 240.387 75.509 240.364 75.621C240.34 75.7283 240.31 75.838 240.273 75.95L238.677 80.752C238.635 80.9107 238.541 80.99 238.397 80.99H237.459L235.163 73.899H236.143C236.241 73.899 236.322 73.9247 236.388 73.976C236.458 74.0273 236.504 74.088 236.528 74.158L237.886 78.722C237.965 79.058 238.028 79.3753 238.075 79.674C238.117 79.52 238.159 79.3637 238.201 79.205C238.247 79.0463 238.296 78.8853 238.348 78.722L239.846 74.13C239.869 74.06 239.909 74.0017 239.965 73.955C240.025 73.9083 240.098 73.885 240.182 73.885H240.728C240.821 73.885 240.898 73.9083 240.959 73.955C241.019 74.0017 241.061 74.06 241.085 74.13L242.548 78.722C242.599 78.8853 242.646 79.0463 242.688 79.205C242.73 79.3637 242.769 79.52 242.807 79.674C242.83 79.52 242.858 79.366 242.891 79.212C242.928 79.0533 242.968 78.89 243.01 78.722L244.396 74.158C244.419 74.0833 244.463 74.0227 244.529 73.976C244.594 73.9247 244.671 73.899 244.76 73.899H245.698ZM251.561 76.671C251.561 76.3817 251.519 76.118 251.435 75.88C251.356 75.6373 251.237 75.4297 251.078 75.257C250.924 75.0797 250.735 74.9443 250.511 74.851C250.287 74.753 250.033 74.704 249.748 74.704C249.151 74.704 248.677 74.879 248.327 75.229C247.982 75.5743 247.767 76.055 247.683 76.671H251.561ZM252.569 79.996C252.415 80.1827 252.231 80.346 252.016 80.486C251.801 80.6213 251.57 80.7333 251.323 80.822C251.08 80.9107 250.828 80.976 250.567 81.018C250.306 81.0647 250.047 81.088 249.79 81.088C249.3 81.088 248.847 81.0063 248.432 80.843C248.021 80.675 247.664 80.4323 247.361 80.115C247.062 79.793 246.829 79.3963 246.661 78.925C246.493 78.4537 246.409 77.9123 246.409 77.301C246.409 76.8063 246.484 76.3443 246.633 75.915C246.787 75.4857 247.006 75.1147 247.291 74.802C247.576 74.4847 247.923 74.2373 248.334 74.06C248.745 73.878 249.207 73.787 249.72 73.787C250.145 73.787 250.537 73.8593 250.896 74.004C251.26 74.144 251.573 74.3493 251.834 74.62C252.1 74.886 252.308 75.2173 252.457 75.614C252.606 76.006 252.681 76.454 252.681 76.958C252.681 77.154 252.66 77.2847 252.618 77.35C252.576 77.4153 252.497 77.448 252.38 77.448H247.641C247.655 77.896 247.716 78.2857 247.823 78.617C247.935 78.9483 248.089 79.226 248.285 79.45C248.481 79.6693 248.714 79.835 248.985 79.947C249.256 80.0543 249.559 80.108 249.895 80.108C250.208 80.108 250.476 80.073 250.7 80.003C250.929 79.9283 251.125 79.849 251.288 79.765C251.451 79.681 251.587 79.604 251.694 79.534C251.806 79.4593 251.902 79.422 251.981 79.422C252.084 79.422 252.163 79.4617 252.219 79.541L252.569 79.996ZM255.395 75.32C255.619 74.8347 255.894 74.4567 256.221 74.186C256.547 73.9107 256.946 73.773 257.418 73.773C257.567 73.773 257.709 73.7893 257.845 73.822C257.985 73.8547 258.108 73.906 258.216 73.976L258.125 74.907C258.097 75.0237 258.027 75.082 257.915 75.082C257.849 75.082 257.754 75.068 257.628 75.04C257.502 75.012 257.359 74.998 257.201 74.998C256.977 74.998 256.776 75.0307 256.599 75.096C256.426 75.1613 256.27 75.2593 256.13 75.39C255.994 75.516 255.871 75.6747 255.759 75.866C255.651 76.0527 255.553 76.2673 255.465 76.51V80.99H254.212V73.899H254.926C255.061 73.899 255.154 73.9247 255.206 73.976C255.257 74.0273 255.292 74.116 255.311 74.242L255.395 75.32ZM263.77 76.671C263.77 76.3817 263.728 76.118 263.644 75.88C263.565 75.6373 263.446 75.4297 263.287 75.257C263.133 75.0797 262.944 74.9443 262.72 74.851C262.496 74.753 262.242 74.704 261.957 74.704C261.36 74.704 260.886 74.879 260.536 75.229C260.191 75.5743 259.976 76.055 259.892 76.671H263.77ZM264.778 79.996C264.624 80.1827 264.44 80.346 264.225 80.486C264.01 80.6213 263.779 80.7333 263.532 80.822C263.289 80.9107 263.037 80.976 262.776 81.018C262.515 81.0647 262.256 81.088 261.999 81.088C261.509 81.088 261.056 81.0063 260.641 80.843C260.23 80.675 259.873 80.4323 259.57 80.115C259.271 79.793 259.038 79.3963 258.87 78.925C258.702 78.4537 258.618 77.9123 258.618 77.301C258.618 76.8063 258.693 76.3443 258.842 75.915C258.996 75.4857 259.215 75.1147 259.5 74.802C259.785 74.4847 260.132 74.2373 260.543 74.06C260.954 73.878 261.416 73.787 261.929 73.787C262.354 73.787 262.746 73.8593 263.105 74.004C263.469 74.144 263.782 74.3493 264.043 74.62C264.309 74.886 264.517 75.2173 264.666 75.614C264.815 76.006 264.89 76.454 264.89 76.958C264.89 77.154 264.869 77.2847 264.827 77.35C264.785 77.4153 264.706 77.448 264.589 77.448H259.85C259.864 77.896 259.925 78.2857 260.032 78.617C260.144 78.9483 260.298 79.226 260.494 79.45C260.69 79.6693 260.923 79.835 261.194 79.947C261.465 80.0543 261.768 80.108 262.104 80.108C262.417 80.108 262.685 80.073 262.909 80.003C263.138 79.9283 263.334 79.849 263.497 79.765C263.66 79.681 263.796 79.604 263.903 79.534C264.015 79.4593 264.111 79.422 264.19 79.422C264.293 79.422 264.372 79.4617 264.428 79.541L264.778 79.996ZM271.041 75.586C270.807 75.2733 270.555 75.0563 270.285 74.935C270.014 74.809 269.711 74.746 269.375 74.746C268.717 74.746 268.21 74.9817 267.856 75.453C267.501 75.9243 267.324 76.5963 267.324 77.469C267.324 77.931 267.363 78.3277 267.443 78.659C267.522 78.9857 267.639 79.2563 267.793 79.471C267.947 79.681 268.136 79.835 268.36 79.933C268.584 80.031 268.838 80.08 269.123 80.08C269.533 80.08 269.89 79.9867 270.194 79.8C270.502 79.6133 270.784 79.3497 271.041 79.009V75.586ZM272.287 70.679V80.99H271.545C271.367 80.99 271.255 80.9037 271.209 80.731L271.097 79.87C270.793 80.234 270.448 80.528 270.061 80.752C269.673 80.976 269.225 81.088 268.717 81.088C268.311 81.088 267.942 81.011 267.611 80.857C267.279 80.6983 266.997 80.4673 266.764 80.164C266.53 79.8607 266.351 79.4827 266.225 79.03C266.099 78.5773 266.036 78.057 266.036 77.469C266.036 76.9463 266.106 76.461 266.246 76.013C266.386 75.5603 266.586 75.1683 266.848 74.837C267.109 74.5057 267.429 74.2467 267.807 74.06C268.189 73.8687 268.619 73.773 269.095 73.773C269.529 73.773 269.9 73.8477 270.208 73.997C270.52 74.1417 270.798 74.3447 271.041 74.606V70.679H272.287ZM279.09 79.282C279.318 79.59 279.568 79.807 279.839 79.933C280.114 80.059 280.415 80.122 280.742 80.122C281.409 80.122 281.92 79.8863 282.275 79.415C282.629 78.9437 282.807 78.2413 282.807 77.308C282.807 76.44 282.648 75.803 282.331 75.397C282.018 74.9863 281.57 74.781 280.987 74.781C280.581 74.781 280.226 74.8743 279.923 75.061C279.624 75.2477 279.346 75.5113 279.09 75.852V79.282ZM279.09 74.921C279.388 74.5757 279.724 74.3003 280.098 74.095C280.476 73.8897 280.91 73.787 281.4 73.787C281.815 73.787 282.188 73.8663 282.52 74.025C282.856 74.1837 283.14 74.4147 283.374 74.718C283.607 75.0167 283.784 75.3807 283.906 75.81C284.032 76.2393 284.095 76.7223 284.095 77.259C284.095 77.833 284.025 78.3557 283.885 78.827C283.745 79.2983 283.542 79.702 283.276 80.038C283.014 80.3693 282.695 80.6283 282.317 80.815C281.939 80.997 281.514 81.088 281.043 81.088C280.576 81.088 280.182 81.0017 279.86 80.829C279.542 80.6517 279.265 80.402 279.027 80.08L278.964 80.724C278.926 80.9013 278.819 80.99 278.642 80.99H277.837V70.679H279.09V74.921ZM291.611 73.899L287.656 83.083C287.614 83.1763 287.56 83.251 287.495 83.307C287.434 83.363 287.339 83.391 287.208 83.391H286.284L287.579 80.577L284.653 73.899H285.731C285.838 73.899 285.922 73.927 285.983 73.983C286.048 74.0343 286.093 74.0927 286.116 74.158L288.013 78.624C288.088 78.82 288.151 79.0253 288.202 79.24C288.267 79.0207 288.337 78.813 288.412 78.617L290.253 74.158C290.281 74.0833 290.328 74.0227 290.393 73.976C290.463 73.9247 290.54 73.899 290.624 73.899H291.611Z" fill="#999999"/>
<path d="M0.900391 1.98999H639.49V-0.0100098H0.900391V1.98999Z" fill="#E0E0E0" mask="url(#path-1-inside-1_113_880)"/>
<defs>
<clipPath id="clip0_113_880">
<rect width="126" height="32" fill="white" transform="translate(295.141 65.99)"/>
</clipPath>
</defs>
</svg>
