<svg width="41" height="41" viewBox="0 0 41 41" fill="none" xmlns="http://www.w3.org/2000/svg">
<rect x="0.830078" y="0.98999" width="40" height="40" rx="20" fill="#F5F5F5"/>
<g clip-path="url(#clip0_113_776)">
<path fill-rule="evenodd" clip-rule="evenodd" d="M25.8301 14.99C25.2781 14.99 24.8301 14.542 24.8301 13.99C24.8301 13.438 25.2781 12.99 25.8301 12.99C27.4871 12.99 28.8301 14.333 28.8301 15.99V27.99C28.8301 29.647 27.4871 30.99 25.8301 30.99H15.8301C14.1731 30.99 12.8301 29.647 12.8301 27.99V15.99C12.8301 14.333 14.1731 12.99 15.8301 12.99C16.3821 12.99 16.8301 13.438 16.8301 13.99C16.8301 14.542 16.3821 14.99 15.8301 14.99C15.2781 14.99 14.8301 15.438 14.8301 15.99V27.99C14.8301 28.542 15.2781 28.99 15.8301 28.99H25.8301C26.3821 28.99 26.8301 28.542 26.8301 27.99V15.99C26.8301 15.438 26.3821 14.99 25.8301 14.99ZM18.8301 11.99H22.8301C23.3821 11.99 23.8301 12.438 23.8301 12.99C23.8301 13.542 23.3821 13.99 22.8301 13.99H18.8301C18.2781 13.99 17.8301 13.542 17.8301 12.99C17.8301 12.438 18.2781 11.99 18.8301 11.99ZM17.8301 18.99H23.8301C24.3821 18.99 24.8301 19.438 24.8301 19.99C24.8301 20.542 24.3821 20.99 23.8301 20.99H17.8301C17.2781 20.99 16.8301 20.542 16.8301 19.99C16.8301 19.438 17.2781 18.99 17.8301 18.99ZM17.8301 22.99H20.8301C21.3821 22.99 21.8301 23.438 21.8301 23.99C21.8301 24.542 21.3821 24.99 20.8301 24.99H17.8301C17.2781 24.99 16.8301 24.542 16.8301 23.99C16.8301 23.438 17.2781 22.99 17.8301 22.99Z" fill="#666666"/>
</g>
<defs>
<clipPath id="clip0_113_776">
<rect width="24" height="24" fill="white" transform="translate(8.83008 8.98999)"/>
</clipPath>
</defs>
</svg>
