<svg width="41" height="41" viewBox="0 0 41 41" fill="none" xmlns="http://www.w3.org/2000/svg">
<rect x="0.830078" y="0.98999" width="40" height="40" rx="20" fill="#F5F5F5"/>
<g clip-path="url(#clip0_113_785)">
<path fill-rule="evenodd" clip-rule="evenodd" d="M16.4582 30.3C15.6422 30.725 14.6332 30.414 14.2042 29.606C14.0332 29.284 13.9742 28.916 14.0362 28.556L14.8712 23.736L11.3342 20.322C10.6742 19.684 10.6602 18.637 11.3042 17.984C11.5602 17.724 11.8962 17.554 12.2592 17.502L17.1472 16.798L19.3332 12.412C19.7412 11.593 20.7422 11.257 21.5692 11.661C21.8982 11.821 22.1642 12.086 22.3272 12.411L24.5132 16.798L29.4002 17.502C30.3132 17.632 30.9452 18.472 30.8122 19.375C30.7602 19.735 30.5892 20.068 30.3262 20.322L26.7892 23.736L27.6242 28.556C27.7802 29.456 27.1692 30.311 26.2612 30.466C25.8992 30.527 25.5262 30.469 25.2012 30.3L20.8302 28.024L16.4582 30.3ZM20.0532 25.938C20.5392 25.684 21.1202 25.684 21.6072 25.938L25.2392 27.828L24.5462 23.823C24.4532 23.287 24.6322 22.739 25.0262 22.36L27.9642 19.523L23.9042 18.938C23.3592 18.86 22.8892 18.522 22.6462 18.034L20.8302 14.389L19.0142 18.034C18.7702 18.522 18.3002 18.86 17.7572 18.938L13.6952 19.523L16.6352 22.36C17.0282 22.74 17.2072 23.287 17.1152 23.823L16.4202 27.829L20.0532 25.938Z" fill="#666666"/>
</g>
<defs>
<clipPath id="clip0_113_785">
<rect width="24" height="24" fill="white" transform="translate(8.83008 8.98999)"/>
</clipPath>
</defs>
</svg>
