<svg width="41" height="41" viewBox="0 0 41 41" fill="none" xmlns="http://www.w3.org/2000/svg">
<rect x="0.830078" y="0.98999" width="40" height="40" rx="20" fill="#F5F5F5"/>
<g clip-path="url(#clip0_113_804)">
<path fill-rule="evenodd" clip-rule="evenodd" d="M19.8301 10.99C24.8001 10.99 28.8301 15.02 28.8301 19.99C28.8301 22.115 28.0941 24.068 26.8621 25.607L30.5371 29.283C30.9271 29.673 30.9271 30.307 30.5371 30.697C30.1771 31.057 29.6091 31.085 29.2171 30.78L29.1231 30.697L25.4471 27.022C23.9071 28.254 21.9551 28.99 19.8301 28.99C14.8601 28.99 10.8301 24.96 10.8301 19.99C10.8301 15.02 14.8601 10.99 19.8301 10.99ZM19.8301 12.99C15.9641 12.99 12.8301 16.124 12.8301 19.99C12.8301 23.856 15.9641 26.99 19.8301 26.99C23.6961 26.99 26.8301 23.856 26.8301 19.99C26.8301 16.124 23.6961 12.99 19.8301 12.99Z" fill="#666666"/>
</g>
<defs>
<clipPath id="clip0_113_804">
<rect width="24" height="24" fill="white" transform="translate(8.83008 8.98999)"/>
</clipPath>
</defs>
</svg>
