<svg width="42" height="42" viewBox="0 0 42 42" fill="none" xmlns="http://www.w3.org/2000/svg">
<rect x="0.830078" y="0.47998" width="41" height="41" rx="20.5" fill="#CB2027"/>
<g clip-path="url(#clip0_113_858)">
<path fill-rule="evenodd" clip-rule="evenodd" d="M21.3301 10.98C15.8072 10.98 11.3301 15.4572 11.3301 20.98C11.3301 25.2165 13.9659 28.8381 17.6858 30.2952C17.5984 29.504 17.5194 28.2872 17.7205 27.4235C17.9022 26.643 18.8931 22.4528 18.8931 22.4528C18.8931 22.4528 18.594 21.8537 18.594 20.9681C18.594 19.5776 19.3999 18.5395 20.4034 18.5395C21.2566 18.5395 21.6687 19.18 21.6687 19.9481C21.6687 20.8061 21.1224 22.0889 20.8405 23.2777C20.6049 24.273 21.3396 25.0847 22.3213 25.0847C24.0987 25.0847 25.4649 23.2106 25.4649 20.5055C25.4649 18.1111 23.7445 16.4371 21.2878 16.4371C18.4425 16.4371 16.7724 18.5712 16.7724 20.7768C16.7724 21.6363 17.1035 22.5579 17.5166 23.0589C17.5983 23.1579 17.6103 23.2447 17.586 23.3457C17.51 23.6616 17.3413 24.3408 17.3082 24.4798C17.2646 24.6629 17.1633 24.7017 16.9738 24.6135C15.7249 24.0322 14.944 22.2061 14.944 20.7395C14.944 17.585 17.2359 14.688 21.5514 14.688C25.0204 14.688 27.7162 17.16 27.7162 20.4636C27.7162 23.9099 25.5432 26.6836 22.5271 26.6836C21.5138 26.6836 20.5612 26.1571 20.2351 25.5353C20.2351 25.5353 19.7336 27.4446 19.6121 27.9125C19.3863 28.7811 18.7768 29.8698 18.3692 30.5341C19.3048 30.8238 20.2992 30.98 21.3301 30.98C26.8529 30.98 31.3301 26.5028 31.3301 20.98C31.3301 15.4572 26.8529 10.98 21.3301 10.98Z" fill="white"/>
</g>
<defs>
<clipPath id="clip0_113_858">
<rect width="24" height="24" fill="white" transform="translate(9.33008 8.97998)"/>
</clipPath>
</defs>
</svg>
