<svg width="42" height="42" viewBox="0 0 42 42" fill="none" xmlns="http://www.w3.org/2000/svg">
<rect x="0.830078" y="0.47998" width="41" height="41" rx="20.5" fill="#666666"/>
<g clip-path="url(#clip0_113_862)">
<path fill-rule="evenodd" clip-rule="evenodd" d="M14.3301 13.48H28.3301C29.987 13.48 31.3301 14.8231 31.3301 16.48V25.48C31.3301 27.1369 29.987 28.48 28.3301 28.48H14.3301C12.6732 28.48 11.3301 27.1369 11.3301 25.48V16.48C11.3301 14.8231 12.6732 13.48 14.3301 13.48ZM14.33 15.4801C13.7777 15.4801 13.33 15.9278 13.33 16.4801V25.4801C13.33 26.0324 13.7777 26.4801 14.33 26.4801H28.3301C28.8823 26.4801 29.3301 26.0324 29.3301 25.4801V16.4801C29.3301 15.9278 28.8823 15.4801 28.3301 15.4801H14.33ZM15.8156 19.3374C15.342 19.0532 15.1885 18.4389 15.4726 17.9654C15.7568 17.4918 16.371 17.3382 16.8446 17.6224L19.7866 19.3876C20.7367 19.9576 21.9236 19.9576 22.8736 19.3876L25.8156 17.6224C26.2892 17.3382 26.9035 17.4918 27.1876 17.9654C27.4718 18.4389 27.3182 19.0532 26.8446 19.3374L23.9026 21.1026C22.3192 22.0526 20.3411 22.0526 18.7576 21.1026L15.8156 19.3374Z" fill="white"/>
</g>
<defs>
<clipPath id="clip0_113_862">
<rect width="24" height="24" fill="white" transform="translate(9.33008 8.97998)"/>
</clipPath>
</defs>
</svg>
