<svg width="32" height="33" viewBox="0 0 32 33" fill="none" xmlns="http://www.w3.org/2000/svg">
<rect y="0.860352" width="32" height="32" rx="16" fill="#E0E0E0"/>
<g clip-path="url(#clip0_34_4813)">
<path fill-rule="evenodd" clip-rule="evenodd" d="M19.333 19.5274C20.0402 19.5274 20.7184 19.8082 21.2185 20.3082C21.7186 20.8081 21.9997 21.4862 22 22.1934V22.5274C22 22.7926 21.8946 23.0469 21.7071 23.2345C21.5196 23.422 21.2652 23.5274 21 23.5274H11C10.7348 23.5274 10.4804 23.422 10.2929 23.2345C10.1054 23.0469 10 22.7926 10 22.5274V22.1934C10.0003 21.4862 10.2814 20.8081 10.7815 20.3082C11.2816 19.8082 11.9598 19.5274 12.667 19.5274H19.333ZM16 10.1934C17.0609 10.1934 18.0783 10.6148 18.8284 11.3649C19.5786 12.1151 20 13.1325 20 14.1934C20 15.2542 19.5786 16.2716 18.8284 17.0218C18.0783 17.7719 17.0609 18.1934 16 18.1934C14.9391 18.1934 13.9217 17.7719 13.1716 17.0218C12.4214 16.2716 12 15.2542 12 14.1934C12 13.1325 12.4214 12.1151 13.1716 11.3649C13.9217 10.6148 14.9391 10.1934 16 10.1934Z" fill="#999999"/>
</g>
<defs>
<clipPath id="clip0_34_4813">
<rect width="16" height="16" fill="white" transform="translate(8 8.86035)"/>
</clipPath>
</defs>
</svg>
