<svg width="15" height="15" viewBox="0 0 15 15" fill="none" xmlns="http://www.w3.org/2000/svg">
<path fill-rule="evenodd" clip-rule="evenodd" d="M0.328125 6.74534C0.328125 3.43165 3.01438 0.745361 6.32808 0.745361C9.64188 0.745361 12.3281 3.43165 12.3281 6.74534C12.3281 8.04114 11.9174 9.24104 11.2189 10.2218L14.0353 13.0382C14.4258 13.4287 14.4258 14.0619 14.0353 14.4524C13.6447 14.8429 13.0116 14.8429 12.621 14.4524L9.80467 11.6361C8.82387 12.3345 7.62398 12.7453 6.32808 12.7453C3.01438 12.7453 0.328125 10.059 0.328125 6.74534ZM6.32808 2.74536C4.11898 2.74536 2.32808 4.53624 2.32808 6.74534C2.32808 8.95454 4.11898 10.7453 6.32808 10.7453C8.53728 10.7453 10.3281 8.95454 10.3281 6.74534C10.3281 4.53624 8.53728 2.74536 6.32808 2.74536Z" fill="#999999"/>
</svg>
